<svg width="185" height="49" viewBox="0 0 185 49" fill="none" xmlns="http://www.w3.org/2000/svg">
<g clip-path="url(#clip0_3407_53080)">
<path d="M76.8966 10.1426C76.8961 10.1426 76.8958 10.1426 76.8953 10.1426C76.1009 10.1426 75.4439 10.3839 74.9261 10.8648C74.4083 11.3473 74.1497 11.9733 74.1497 12.7431C74.1497 13.2777 74.2768 13.7409 74.5254 14.1359C74.9839 14.9736 75.873 15.5418 76.8953 15.5418C77.9218 15.5418 78.8143 14.9688 79.2709 14.1254C79.5154 13.7325 79.6408 13.2729 79.6408 12.7431C79.6408 11.9733 79.3814 11.3473 78.8636 10.8648C78.3461 10.3842 77.6911 10.1429 76.8966 10.1426Z" fill="#00ABDD"/>
<path d="M185 33.6845H171.561V27.3876H183.136V22.2167H171.561V15.9169H184.997V10.7461H166.39V10.7464V15.9169V22.2167V27.3876V38.8588H171.561V38.8554H185V33.6845Z" fill="#1D1D1D"/>
<path d="M117.388 10.7461L111.192 30.2038L105.762 10.7461H100.591L95.2045 30.2038L88.9645 10.7461H83.7935L92.8088 38.8583H97.9801L103.187 20.0484L108.436 38.8583H113.608L122.559 10.7461H117.388Z" fill="#1D1D1D"/>
<path d="M129.295 10.7461L120.343 38.8583H125.514L131.71 19.4005L137.141 38.8583H142.312L134.466 10.7461H129.295Z" fill="#1D1D1D"/>
<path d="M151.262 30.2038L145.832 10.7461H140.661L148.507 38.8583H153.678L162.629 10.7461H157.458L151.262 30.2038Z" fill="#1D1D1D"/>
<path d="M74.904 19.0176H74.4054V19.5162V38.3594V38.8576H79.5766V19.0176H78.8866H74.904Z" fill="#1D1D1D"/>
<path d="M61.9292 11.9959C59.9802 11.1186 57.8414 10.7461 55.704 10.7461H51.4692L47.0243 10.7464V38.8588H52.1955L55.919 38.8584C57.7138 38.8584 59.5108 38.5998 61.1923 37.972C64.7929 36.6278 69.4265 33.2649 69.4265 24.8895C69.4265 16.3692 65.4139 13.5642 61.9292 11.9959ZM54.4063 33.6875H52.1955V15.9174H54.2626C55.6917 15.9174 64.1385 15.2198 64.1385 24.8022C64.1385 34.0367 55.6064 33.6875 54.4063 33.6875Z" fill="#1D1D1D"/>
<path d="M31.3641 0C28.6992 0 26.5421 2.16091 26.5421 4.82172C26.5421 5.03032 26.5538 5.235 26.5815 5.43571C26.7585 6.82121 27.5222 8.02171 28.6166 8.78533C29.3919 9.32465 30.3406 9.64344 31.3641 9.64344C34.0252 9.64344 36.182 7.48245 36.182 4.82172C36.182 2.16099 34.0251 0 31.3641 0Z" fill="#00ABDD"/>
<path d="M9.89208 6.29499C8.8536 6.29499 7.82925 6.36917 6.82957 6.51396C11.7783 6.96256 16.0878 9.63288 18.7405 13.5254C20.5173 16.125 21.5558 19.2652 21.5558 22.6489C21.5558 26.3471 20.6233 30.5837 18.2895 33.0965C16.6177 34.8966 16.3709 35.1138 14.6332 36.0023C13.8657 36.3948 12.9299 35.9509 12.9299 35.0889V31.7741C12.9299 31.1897 12.457 30.7156 11.8726 30.7144C11.209 30.7131 10.46 30.7112 10.3585 30.7092C9.95879 30.7024 9.40204 30.7 8.75611 30.7477C3.89033 30.9252 -0.000355231 34.9234 2.43266e-08 39.8324C0.000355279 44.8739 4.22618 48.6861 9.26235 48.9245C11.3652 49.024 11.3657 49.0341 12.9299 48.8928C14.3756 48.7622 15.7592 48.3418 17.0909 47.865C17.4761 47.7307 17.8574 47.5824 18.2318 47.4235C25.9146 44.1739 31.3015 36.5656 31.3015 27.7034C31.3015 27.3819 31.2943 27.064 31.2802 26.7461C30.7787 15.3655 21.397 6.29499 9.89208 6.29499Z" fill="#293989"/>
</g>
<defs>
<clipPath id="clip0_3407_53080">
<rect width="185" height="49" fill="white"/>
</clipPath>
</defs>
</svg>
