<svg width="89" height="23" viewBox="0 0 89 23" fill="none" xmlns="http://www.w3.org/2000/svg">
<g clip-path="url(#clip0_4103_103)">
<path d="M36.9936 4.76074C36.9933 4.76074 36.9932 4.76074 36.9929 4.76074C36.6108 4.76074 36.2947 4.87398 36.0456 5.09972C35.7966 5.32617 35.6721 5.62006 35.6721 5.9814C35.6721 6.23233 35.7333 6.4497 35.8529 6.63513C36.0734 7.02835 36.5012 7.29508 36.9929 7.29508C37.4867 7.29508 37.9162 7.02613 38.1358 6.6302C38.2535 6.44582 38.3138 6.23009 38.3138 5.9814C38.3138 5.62006 38.189 5.32617 37.9399 5.09972C37.691 4.87413 37.3758 4.76095 36.9936 4.76074Z" fill="#DFE1E7"/>
<path d="M88.9999 15.811H82.5346V12.8553H88.1034V10.4281H82.5346V7.47107H88.9985V5.04395H80.0469V5.04412V7.47107V10.4281V12.8553V18.2397H82.5346V18.2381H88.9999V15.811Z" fill="#DFE1E7"/>
<path d="M56.4731 5.04395L53.4925 14.1772L50.88 5.04395H48.3923L45.8012 14.1772L42.7992 5.04395H40.3115L44.6486 18.2395H47.1364L49.6413 9.41032L52.1667 18.2395H54.6545L58.9608 5.04395H56.4731Z" fill="#DFE1E7"/>
<path d="M62.2014 5.04395L57.895 18.2395H60.3827L63.3633 9.10627L65.9758 18.2395H68.4635L64.6891 5.04395H62.2014Z" fill="#DFE1E7"/>
<path d="M72.7694 14.1772L70.157 5.04395H67.6692L71.4437 18.2395H73.9314L78.2378 5.04395H75.7501L72.7694 14.1772Z" fill="#DFE1E7"/>
<path d="M36.0351 8.92676H35.7952V9.16079V18.0056V18.2394H38.283V8.92676H37.951H36.0351Z" fill="#DFE1E7"/>
<path d="M29.793 5.63059C28.8554 5.21881 27.8264 5.04395 26.7982 5.04395H24.7609L22.6226 5.0441V18.2397H25.1103L26.9016 18.2395C27.765 18.2395 28.6296 18.1181 29.4385 17.8235C31.1707 17.1925 33.3998 15.614 33.3998 11.6827C33.3998 7.68335 31.4695 6.36676 29.793 5.63059ZM26.1739 15.8124H25.1103V7.4713H26.1047C26.7923 7.4713 30.8558 7.14384 30.8558 11.6417C30.8558 15.9763 26.7512 15.8124 26.1739 15.8124Z" fill="#DFE1E7"/>
<path d="M15.0888 0C13.8068 0 12.769 1.01432 12.769 2.26327C12.769 2.36116 12.7747 2.45725 12.788 2.55147C12.8732 3.2018 13.2405 3.76531 13.767 4.12371C14.14 4.37684 14.5964 4.52651 15.0888 4.52651C16.369 4.52651 17.4066 3.51218 17.4066 2.26324C17.4066 1.0143 16.369 0 15.0888 0Z" fill="#DFE1E7"/>
<path d="M4.75888 2.9551C4.25927 2.9551 3.76649 2.98992 3.28556 3.05788C5.66628 3.26845 7.73952 4.52186 9.01569 6.34894C9.8705 7.56917 10.3701 9.04311 10.3701 10.6314C10.3701 12.3673 9.92144 14.3559 8.79873 15.5354C7.99444 16.3803 7.8757 16.4823 7.03975 16.8993C6.67052 17.0835 6.22031 16.8752 6.22031 16.4706V14.9147C6.22031 14.6404 5.99281 14.4178 5.71168 14.4173C5.39242 14.4166 5.03211 14.4157 4.98324 14.4148C4.79098 14.4117 4.52314 14.4105 4.21238 14.4329C1.87156 14.5162 -0.000156976 16.3929 9.87441e-09 18.6971C0.00018316 21.0636 2.03315 22.853 4.45595 22.9649C5.46762 23.0116 5.46783 23.0163 6.22034 22.95C6.91587 22.8887 7.58146 22.6914 8.22212 22.4676C8.40742 22.4045 8.59086 22.3349 8.771 22.2603C12.4671 20.735 15.0586 17.1637 15.0586 13.0039C15.0586 12.8531 15.0552 12.7038 15.0483 12.5546C14.8071 7.21271 10.2937 2.9551 4.75888 2.9551Z" fill="#DFE1E7"/>
</g>
<defs>
<clipPath id="clip0_4103_103">
<rect width="89" height="23" fill="white"/>
</clipPath>
</defs>
</svg>
