<svg width="37" height="39" viewBox="0 0 37 39" fill="none" xmlns="http://www.w3.org/2000/svg">
<path d="M9.91473 24.8716L16.1222 9.00928C16.3147 8.51709 16.7574 8.3365 17.1081 8.33147C17.4333 8.32811 17.9065 8.49312 18.1137 8.97971L21.7529 17.5123C23.276 16.0609 24.3749 14.6012 25.1819 13.4798L20.3727 2.20396C19.8025 0.865077 18.4824 0 17.0109 0C15.5147 0 14.1472 0.925865 13.608 2.30373L2.81836 29.8743C4.1348 28.4284 6.33168 26.692 9.91473 24.8716Z" fill="#12B7B6"/>
<path d="M28.1855 20.5226C27.2504 21.4899 26.0221 22.6025 24.4302 23.7895L30.4623 37.9325C30.7028 38.4976 31.2595 38.8628 31.8806 38.8628H33.5671C34.0837 38.8628 34.6857 38.6092 34.9719 38.1838C35.2576 37.7585 35.3084 37.224 35.108 36.7535L28.1855 20.5226Z" fill="#12B7B6"/>
<path d="M6.85146 32.887C7.94571 31.4828 9.60142 30.0771 12.112 29.0746C16.4568 27.3397 20.4681 25.1155 23.8485 22.4253C25.1847 21.3619 26.2413 20.1866 27.2918 18.9087C30.1658 15.412 33.2435 9.6408 33.2435 9.6408L36.3548 12.1513L34.8289 1.5188L26.0335 7.69152L30.1321 8.45951C30.1321 8.45951 28.0836 12.1684 25.8119 14.957C25.0255 15.9224 23.8984 17.3774 22.3308 18.867C20.8509 20.2731 19.0378 21.7974 16.8489 22.9535C14.66 24.1095 10.594 25.9359 9.57119 26.5105C9.48365 26.5597 8.7189 26.9678 8.40808 27.1415C6.28792 28.3268 2.20262 30.9354 0.838765 34.9519L0.109575 36.7959C-0.0733589 37.263 -0.033295 37.805 0.275565 38.2023C0.558059 38.5656 0.908721 38.7154 1.39358 38.7838C1.90462 38.8559 2.45521 38.8498 2.45521 38.8498C3.01558 38.8498 4.10202 38.9623 4.39683 38.0778C4.68291 37.2196 4.91083 35.4973 6.69929 33.0873" fill="#12B7B6"/>
</svg>
