<svg width="165" height="34" viewBox="0 0 165 34" fill="none" xmlns="http://www.w3.org/2000/svg">
<path d="M156.234 26.1914C150.398 26.1914 146.812 22.3945 146.812 16.3477C146.812 10.4414 150.434 6.46875 156.023 6.46875C161.051 6.46875 164.988 9.63281 164.988 16.1367V17.6133H151.945C151.945 20.4961 153.668 22.2891 156.34 22.2891C158.098 22.2891 159.363 21.5156 159.891 20.3555H164.848C164.109 23.8711 160.945 26.1914 156.234 26.1914ZM151.945 14.3438H160.066C160.066 12.0234 158.449 10.3711 156.129 10.3711C153.738 10.3711 152.033 12.1465 151.945 14.3438Z" fill="#DEDEDE"/>
<path d="M134.262 33.3633C128.988 33.3633 125.754 31.0078 125.438 27.3867H130.57C130.852 28.8984 132.293 29.6016 134.367 29.6016C136.793 29.6016 138.41 28.582 138.41 25.9102V22.4297H138.164C137.461 23.9766 135.773 25.5234 132.715 25.5234C128.391 25.5234 124.945 22.5 124.945 16.1367C124.945 9.66797 128.496 6.46875 132.715 6.46875C135.914 6.46875 137.461 8.36719 138.164 9.91406H138.375V6.71484H143.543V26.0156C143.543 30.8672 139.676 33.3633 134.262 33.3633ZM134.332 21.6211C136.934 21.6211 138.41 19.582 138.41 16.207C138.41 12.7969 136.934 10.6172 134.332 10.6172C131.695 10.6172 130.289 12.9023 130.289 16.207C130.289 19.5117 131.695 21.6211 134.332 21.6211Z" fill="#DEDEDE"/>
<path d="M105.082 25.8047H99.3867L108.211 0.351562H114.996L123.785 25.8047H118.125L116.227 19.9336H107.016L105.082 25.8047ZM108.352 15.8203H114.891L111.691 6.08203H111.516L108.352 15.8203Z" fill="#DEDEDE"/>
<path d="M89.2617 26.1914C83.4961 26.1914 79.9102 22.2188 79.9102 16.3125C79.9102 10.4062 83.4961 6.46875 89.2617 6.46875C95.0273 6.46875 98.6484 10.4062 98.6484 16.3125C98.6484 22.2188 95.0273 26.1914 89.2617 26.1914ZM89.2969 22.1484C91.9688 22.1484 93.3398 19.6523 93.3398 16.3125C93.3398 12.9375 91.9688 10.4414 89.2969 10.4414C86.5898 10.4414 85.1836 12.9375 85.1836 16.3125C85.1836 19.6523 86.5898 22.1484 89.2969 22.1484Z" fill="#DEDEDE"/>
<path d="M68.6602 26.1914C62.8242 26.1914 59.2383 22.3945 59.2383 16.3477C59.2383 10.4414 62.8594 6.46875 68.4492 6.46875C73.4766 6.46875 77.4141 9.63281 77.4141 16.1367V17.6133H64.3711C64.3711 20.4961 66.0938 22.2891 68.7656 22.2891C70.5234 22.2891 71.7891 21.5156 72.3164 20.3555H77.2734C76.5352 23.8711 73.3711 26.1914 68.6602 26.1914ZM64.3711 14.3438H72.4922C72.4922 12.0234 70.875 10.3711 68.5547 10.3711C66.1641 10.3711 64.459 12.1465 64.3711 14.3438Z" fill="#DEDEDE"/>
<path d="M56.9531 6.71484V10.6172H53.3672V19.9336C53.3672 21.4453 54.1055 21.832 55.1602 21.8672C55.6875 21.8672 56.6016 21.832 57.2344 21.7617V25.875C56.6719 25.9805 55.7578 26.0508 54.457 26.0508C50.6953 26.0508 48.1289 24.3633 48.1641 20.6719V10.6172H45.5273V6.71484H48.1641V2.14453H53.3672V6.71484H56.9531Z" fill="#DEDEDE"/>
<path d="M38.3906 12.375C38.1797 11.0391 36.9844 10.1602 35.2617 10.1602C33.5742 10.1602 32.2734 10.9688 32.3086 12.1289C32.2734 12.9727 32.9766 13.6406 34.7695 14.0273L38.1797 14.7305C41.8711 15.5039 43.6641 17.1562 43.6992 19.8984C43.6641 23.6602 40.2891 26.1914 35.2266 26.1914C30.0586 26.1914 27.0352 23.8711 26.6133 20.1445H31.8516C32.0977 21.6562 33.3281 22.4297 35.2266 22.4297C37.125 22.4297 38.3906 21.6562 38.3906 20.4258C38.3906 19.4414 37.582 18.8438 35.7891 18.457L32.625 17.8242C29.0039 17.1211 27.1055 15.2227 27.1406 12.4102C27.1055 8.75391 30.2695 6.46875 35.1914 6.46875C40.0078 6.46875 42.9961 8.75391 43.2773 12.375H38.3906Z" fill="#DEDEDE"/>
<path d="M23.8008 13.0781C23.8008 21.375 18.6328 26.1562 11.918 26.1562C5.13281 26.1562 0 21.3398 0 13.0781C0 4.78125 5.13281 0 11.918 0C18.6328 0 23.8008 4.78125 23.8008 13.0781ZM18.4219 13.0781C18.4219 7.62891 15.8555 4.67578 11.918 4.67578C7.98047 4.67578 5.37891 7.62891 5.37891 13.0781C5.37891 18.5273 7.98047 21.4805 11.918 21.4805C15.8555 21.4805 18.4219 18.5273 18.4219 13.0781Z" fill="#DEDEDE"/>
</svg>
