<svg width="204" height="58" viewBox="0 0 204 58" fill="none" xmlns="http://www.w3.org/2000/svg">
<g clip-path="url(#clip0_20_28544)">
<path d="M58.2595 31.6158C57.3695 31.3373 49.1827 29.9817 48.5559 29.8404C47.929 29.6992 47.1228 29.2144 47.1228 28.4493V27.2304C47.1228 26.4652 47.7677 25.8392 48.5559 25.8392H58.4779L59.4982 22.4607C59.4982 22.3295 59.3877 22.2222 59.2526 22.2222H46.8089C44.6846 22.2222 42.9466 23.9094 42.9466 25.9717V28.9395C42.9466 31.6283 44.6116 32.9804 47.9826 33.4574C49.5526 33.6795 52.0251 34.0625 54.2193 34.4084C54.2193 34.4084 54.5575 34.4618 54.6671 34.4792C55.4798 34.6817 56.086 35.3988 56.086 36.2486V36.9817C56.086 37.9873 55.2384 38.8101 54.2026 38.8101H43.9307L42.5281 42.3173C42.7844 42.3804 43.0537 42.4138 43.3314 42.4138H55.9666C58.3236 42.4138 60.2521 40.5417 60.2521 38.2536V34.3718C60.2521 33.073 59.1495 31.8943 58.2595 31.6158Z" fill="white"/>
<path d="M70.5791 38.8362C68.8086 38.7107 68.4473 36.822 68.3864 35.7372V25.7111H73.846V22.2217H68.3864V15.6943L64.2101 17.4521V22.2217H61.0747V25.7111H64.2101V36.6103H64.223C64.4825 42.2952 68.7594 42.3692 68.7594 42.3692H74.0002V38.8362H70.5791Z" fill="white"/>
<path d="M89.5769 21.8243H81.279C78.284 21.8243 75.8562 24.1812 75.8562 27.0886V37.1049C75.8562 40.0123 78.2841 42.3692 81.279 42.3692H93.9383V38.7831H82.0797C81.0388 38.7831 80.1872 37.9563 80.1872 36.9459V27.5478C80.1872 26.5373 81.0388 25.7106 82.0797 25.7106H89.1766C90.2175 25.7106 91.0691 26.5373 91.0691 27.5478V30.339H84.0268L81.4064 33.5011H93.4621C94.3113 33.5011 94.9997 32.8328 94.9997 32.0083V27.0885C94.9997 24.1811 92.5717 21.8243 89.5769 21.8243Z" fill="white"/>
<path d="M188.956 21.8247H180.731C177.748 21.8247 175.308 24.1936 175.308 27.089V37.1584C175.308 40.0537 177.748 42.4227 180.731 42.4227H193.214V38.8366H182.033C180.556 38.8366 179.348 37.6633 179.348 36.2295V27.8685C179.348 26.6066 180.411 25.5742 181.711 25.5742H188.048C189.348 25.5742 190.412 26.6066 190.412 27.8685V30.1814C190.412 30.2878 190.322 30.3748 190.213 30.3748H183.183L180.522 33.5501H192.743C193.643 33.5501 194.379 32.8357 194.379 31.9625V27.089C194.379 24.1936 191.938 21.8247 188.956 21.8247Z" fill="white"/>
<path d="M127.956 30.4548L133.62 16.2232C133.795 15.7816 134.199 15.6196 134.519 15.6151C134.816 15.6121 135.248 15.7601 135.437 16.1967L138.757 23.852C140.147 22.5499 141.149 21.2402 141.886 20.2341L137.498 10.1175C136.977 8.91628 135.773 8.14014 134.431 8.14014C133.065 8.14014 131.818 8.97082 131.326 10.207L121.481 34.9432C122.683 33.6459 124.687 32.088 127.956 30.4548Z" fill="white"/>
<path d="M144.626 26.5528C143.773 27.4206 142.652 28.4188 141.2 29.4838L146.703 42.1728C146.923 42.6798 147.431 43.0074 147.997 43.0074H149.536C150.007 43.0074 150.557 42.7799 150.818 42.3983C151.078 42.0167 151.125 41.5371 150.942 41.115L144.626 26.5528Z" fill="white"/>
<path d="M125.161 37.6462C126.159 36.3865 127.67 35.1252 129.961 34.2258C133.925 32.6692 137.585 30.6737 140.669 28.2601C141.888 27.306 142.852 26.2516 143.81 25.105C146.433 21.9678 149.241 16.7899 149.241 16.7899L152.079 19.0423L150.687 9.50293L142.662 15.0411L146.402 15.7301C146.402 15.7301 144.533 19.0577 142.46 21.5596C141.743 22.4258 140.714 23.7312 139.284 25.0676C137.934 26.3292 136.28 27.6968 134.283 28.734C132.285 29.7712 128.576 31.4098 127.643 31.9254C127.563 31.9695 126.865 32.3356 126.581 32.4915C124.647 33.5549 120.92 35.8953 119.675 39.4989L119.01 41.1533C118.843 41.5724 118.88 42.0587 119.161 42.4151C119.419 42.741 119.739 42.8755 120.181 42.9368C120.648 43.0015 121.15 42.9961 121.15 42.9961C121.661 42.9961 122.653 43.097 122.922 42.3034C123.183 41.5334 123.39 39.9882 125.022 37.826" fill="white"/>
<path d="M33.3664 15.1348H16.5062C12.7194 15.1348 9.62109 18.1425 9.62109 21.8187V35.6075C9.62109 39.2836 12.7194 42.2914 16.5062 42.2914H33.3665C37.1533 42.2914 40.2516 39.2836 40.2516 35.6075V21.8187C40.2516 18.1425 37.1532 15.1348 33.3664 15.1348ZM35.4537 35.1338C35.4537 36.8051 34.058 38.16 32.3364 38.16H17.5362C15.8146 38.16 14.4189 36.8051 14.4189 35.1338V22.2923C14.4189 20.621 15.8146 19.2661 17.5362 19.2661H32.3364C34.058 19.2661 35.4537 20.621 35.4537 22.2923V35.1338Z" fill="white"/>
<path d="M110.54 21.8247H104.735C100.715 21.8247 97.4563 24.9882 97.4563 28.8906V35.5864C97.4563 39.4888 100.715 42.6523 104.735 42.6523H110.54C114.56 42.6523 117.819 39.4888 117.819 35.5864V28.8906C117.819 24.9882 114.56 21.8247 110.54 21.8247ZM113.397 35.6655C113.397 37.4117 111.939 38.8274 110.14 38.8274H105.135C103.336 38.8274 101.878 37.4117 101.878 35.6655V28.8116C101.878 27.0653 103.336 25.6496 105.135 25.6496H110.14C111.939 25.6496 113.397 27.0653 113.397 28.8116V35.6655Z" fill="white"/>
<path d="M168.238 22.0367V24.9563C167.442 23.1215 165.568 21.8247 163.396 21.8247H158.469C155.345 21.8247 152.789 24.306 152.789 27.3387V35.8579C152.789 38.8906 155.345 41.3719 158.469 41.3719H163.396C165.537 41.3719 167.386 40.1107 168.202 38.3173C168.225 38.4963 168.238 38.6781 168.238 38.8631V43.222C168.238 44.9636 166.771 46.3886 164.977 46.3886H154.236V49.8599H167.501C170.144 49.8599 172.306 47.7612 172.306 45.1962V22.0367H168.238ZM168.088 34.1377C168.088 36.0128 166.508 37.547 164.576 37.547H159.956C158.331 37.547 157.002 36.2563 157.002 34.6787V28.5179C157.002 26.9403 158.331 25.6496 159.956 25.6496H164.576C166.508 25.6496 168.088 27.1838 168.088 29.0589V34.1377Z" fill="white"/>
</g>
<defs>
<clipPath id="clip0_20_28544">
<rect width="184.758" height="41.7195" fill="white" transform="translate(9.62109 8.14014)"/>
</clipPath>
</defs>
</svg>
