<svg width="135" height="31" viewBox="0 0 135 31" fill="none" xmlns="http://www.w3.org/2000/svg">
<g clip-path="url(#clip0_5133_85709)">
<path d="M35.5396 17.4436C34.8892 17.2367 28.9073 16.2294 28.4492 16.1244C27.9912 16.0195 27.4021 15.6593 27.4021 15.0907V14.185C27.4021 13.6165 27.8733 13.1513 28.4492 13.1513H35.6991L36.4447 10.6408C36.4447 10.5433 36.3639 10.4636 36.2652 10.4636H27.1727C25.6205 10.4636 24.3506 11.7174 24.3506 13.2497V15.455C24.3506 17.453 25.5672 18.4576 28.0304 18.812C29.1775 18.9771 30.9841 19.2617 32.5874 19.5187C32.5874 19.5187 32.8345 19.5584 32.9147 19.5713C33.5085 19.7217 33.9514 20.2546 33.9514 20.8861V21.4308C33.9514 22.178 33.3321 22.7894 32.5752 22.7894H25.0697L24.0448 25.3955C24.2321 25.4424 24.4289 25.4672 24.6318 25.4672H33.8642C35.5864 25.4672 36.9955 24.0761 36.9955 22.3759V19.4915C36.9955 18.5264 36.1899 17.6506 35.5396 17.4436Z" fill="#212F64"/>
<path d="M44.5412 22.8091C43.2475 22.7159 42.9835 21.3124 42.939 20.5064V13.0564H46.9282V10.4636H42.939V5.61337L39.8874 6.91947V10.4636H37.5964V13.0564H39.8874V21.1552H39.8968C40.0865 25.3794 43.2115 25.4344 43.2115 25.4344H47.0409V22.8091H44.5412Z" fill="#212F64"/>
<path d="M58.4227 10.1683H52.3595C50.1712 10.1683 48.3972 11.9196 48.3972 14.0799V21.5227C48.3972 23.683 50.1712 25.4343 52.3595 25.4343H61.6095V22.7697H52.9446C52.1841 22.7697 51.5618 22.1553 51.5618 21.4045V14.4212C51.5618 13.6703 52.1841 13.056 52.9446 13.056H58.1302C58.8908 13.056 59.5131 13.6703 59.5131 14.4212V16.4952H54.3673L52.4527 18.8448H61.2616C61.8821 18.8448 62.3851 18.3482 62.3851 17.7356V14.0799C62.3851 11.9195 60.611 10.1683 58.4227 10.1683Z" fill="#212F64"/>
<path d="M131.038 10.1682H125.028C122.848 10.1682 121.065 11.9285 121.065 14.0799V21.562C121.065 23.7135 122.848 25.4737 125.028 25.4737H134.149V22.809H125.979C124.9 22.809 124.017 21.9372 124.017 20.8718V14.6591C124.017 13.7215 124.794 12.9543 125.744 12.9543H130.374C131.324 12.9543 132.101 13.7215 132.101 14.6591V16.3777C132.101 16.4568 132.036 16.5215 131.956 16.5215H126.819L124.875 18.8809H133.805C134.462 18.8809 135 18.3501 135 17.7012V14.0799C135 11.9285 133.217 10.1682 131.038 10.1682Z" fill="#12B7B6"/>
<path d="M86.4657 16.5811L90.604 6.00619C90.7323 5.67806 91.0274 5.55766 91.2612 5.55432C91.478 5.55207 91.7935 5.66208 91.9316 5.98647L94.3578 11.6748C95.3732 10.7073 96.1058 9.73411 96.6438 8.9865L93.4376 1.46931C93.0575 0.576718 92.1774 0 91.1965 0C90.199 0 89.2873 0.617243 88.9278 1.53582L81.7347 19.9162C82.6124 18.9523 84.077 17.7947 86.4657 16.5811Z" fill="#12B7B6"/>
<path d="M98.6463 13.6818C98.023 14.3266 97.2041 15.0683 96.1428 15.8597L100.164 25.2883C100.325 25.6651 100.696 25.9085 101.11 25.9085H102.234C102.579 25.9085 102.98 25.7395 103.171 25.4559C103.361 25.1724 103.395 24.816 103.261 24.5023L98.6463 13.6818Z" fill="#12B7B6"/>
<path d="M84.4235 21.9247C85.153 20.9886 86.2568 20.0514 87.9305 19.3831C90.827 18.2264 93.5012 16.7437 95.7548 14.9502C96.6456 14.2412 97.3501 13.4578 98.0503 12.6058C99.9664 10.2747 102.018 6.42721 102.018 6.42721L104.092 8.10085L103.075 1.01254L97.2115 5.12769L99.9439 5.63968C99.9439 5.63968 98.5782 8.11227 97.0638 9.97134C96.5395 10.615 95.7881 11.5849 94.743 12.578C93.7564 13.5154 92.5477 14.5316 91.0884 15.3023C89.6292 16.073 86.9185 17.2906 86.2366 17.6737C86.1783 17.7065 85.6684 17.9785 85.4612 18.0944C84.0478 18.8845 81.3242 20.6236 80.415 23.3013L79.9289 24.5306C79.8069 24.842 79.8336 25.2033 80.0395 25.4682C80.2279 25.7104 80.4616 25.8103 80.7849 25.8559C81.1256 25.9039 81.4926 25.8999 81.4926 25.8999C81.8662 25.8999 82.5905 25.9749 82.7871 25.3852C82.9778 24.813 83.1297 23.6649 84.322 22.0582" fill="#12B7B6"/>
<path d="M17.3504 5.19736H5.03083C2.26389 5.19736 0 7.43227 0 10.1639V20.4098C0 23.1414 2.26389 25.3763 5.03083 25.3763H17.3504C20.1174 25.3763 22.3813 23.1414 22.3813 20.4098V10.1639C22.3813 7.43227 20.1173 5.19736 17.3504 5.19736ZM18.8755 20.0578C18.8755 21.2997 17.8557 22.3064 16.5978 22.3064H5.78346C4.52551 22.3064 3.50573 21.2997 3.50573 20.0578V10.5158C3.50573 9.27392 4.52551 8.26721 5.78346 8.26721H16.5978C17.8557 8.26721 18.8755 9.27392 18.8755 10.5158V20.0578Z" fill="#212F64"/>
<path d="M73.7404 10.1682H69.4984C66.5612 10.1682 64.1801 12.5189 64.1801 15.4186V20.394C64.1801 23.2937 66.5612 25.6444 69.4984 25.6444H73.7404C76.6777 25.6444 79.0588 23.2937 79.0588 20.394V15.4186C79.0588 12.5189 76.6777 10.1682 73.7404 10.1682ZM75.8277 20.4527C75.8277 21.7503 74.7622 22.8022 73.4478 22.8022H69.791C68.4766 22.8022 67.4111 21.7503 67.4111 20.4527V15.3599C67.4111 14.0623 68.4766 13.0104 69.791 13.0104H73.4478C74.7622 13.0104 75.8277 14.0623 75.8277 15.3599V20.4527Z" fill="#212F64"/>
<path d="M115.9 10.3258V12.4952C115.317 11.1318 113.948 10.1682 112.362 10.1682H108.761C106.479 10.1682 104.611 12.012 104.611 14.2654V20.5957C104.611 22.8492 106.479 24.6929 108.761 24.6929H112.362C113.926 24.6929 115.277 23.7558 115.873 22.4232C115.89 22.5562 115.9 22.6913 115.9 22.8288V26.0677C115.9 27.3618 114.827 28.4206 113.516 28.4206H105.668V31H115.361C117.292 31 118.871 29.4405 118.871 27.5346V10.3258H115.9ZM115.79 19.3175C115.79 20.7108 114.635 21.8508 113.224 21.8508H109.848C108.661 21.8508 107.689 20.8917 107.689 19.7195V15.1417C107.689 13.9695 108.661 13.0104 109.848 13.0104H113.224C114.635 13.0104 115.79 14.1504 115.79 15.5437V19.3175Z" fill="#12B7B6"/>
</g>
<defs>
<clipPath id="clip0_5133_85709">
<rect width="135" height="31" fill="white"/>
</clipPath>
</defs>
</svg>
