<svg width="105" height="24" viewBox="0 0 105 24" fill="none" xmlns="http://www.w3.org/2000/svg">
<g clip-path="url(#clip0_3988_85222)">
<path d="M27.6418 13.5047C27.136 13.3445 22.4833 12.5647 22.1271 12.4834C21.7708 12.4022 21.3127 12.1233 21.3127 11.6831V10.9819C21.3127 10.5418 21.6792 10.1816 22.1271 10.1816H27.7659L28.3458 8.23805C28.3458 8.16258 28.2829 8.10086 28.2062 8.10086H21.1343C19.927 8.10086 18.9392 9.0715 18.9392 10.2578V11.9651C18.9392 13.512 19.8855 14.2898 21.8013 14.5641C22.6935 14.6919 24.0987 14.9123 25.3457 15.1113C25.3457 15.1113 25.5379 15.142 25.6002 15.152C26.0621 15.2684 26.4065 15.681 26.4065 16.1698V16.5916C26.4065 17.1701 25.9248 17.6434 25.3362 17.6434H19.4985L18.7014 19.661C18.8471 19.6973 19.0002 19.7165 19.1579 19.7165H26.3387C27.6782 19.7165 28.7742 18.6396 28.7742 17.3233V15.0902C28.7742 14.343 28.1476 13.665 27.6418 13.5047Z" fill="#212F64"/>
<path d="M34.6432 17.6586C33.637 17.5865 33.4316 16.4999 33.397 15.8759V10.1082H36.4997V8.10085H33.397V4.34583L31.0236 5.357V8.10085H29.2417V10.1082H31.0236V16.3782H31.0309C31.1784 19.6486 33.609 19.6911 33.609 19.6911H36.5874V17.6586H34.6432Z" fill="#212F64"/>
<path d="M45.4399 7.87219H40.7241C39.0221 7.87219 37.6423 9.22805 37.6423 10.9006V16.6627C37.6423 18.3352 39.0221 19.6911 40.7241 19.6911H47.9186V17.6281H41.1792C40.5877 17.6281 40.1037 17.1525 40.1037 16.5712V11.1648C40.1037 10.5835 40.5877 10.1079 41.1792 10.1079H45.2125C45.804 10.1079 46.288 10.5835 46.288 11.1648V12.7705H42.2858L40.7966 14.5895H47.648C48.1306 14.5895 48.5218 14.2051 48.5218 13.7308V10.9006C48.5218 9.22802 47.142 7.87219 45.4399 7.87219Z" fill="#212F64"/>
<path d="M101.918 7.87219H97.2437C95.5487 7.87219 94.1619 9.23497 94.1619 10.9006V16.6932C94.1619 18.3588 95.5487 19.7216 97.2437 19.7216H104.338V17.6586H97.984C97.1445 17.6586 96.4577 16.9837 96.4577 16.1588V11.349C96.4577 10.6231 97.0621 10.0292 97.8008 10.0292H101.402C102.141 10.0292 102.745 10.6231 102.745 11.349V12.6795C102.745 12.7407 102.695 12.7908 102.632 12.7908H98.6372L97.1247 14.6175H104.07C104.582 14.6175 105 14.2065 105 13.7042V10.9006C105 9.23497 103.613 7.87219 101.918 7.87219Z" fill="#12B7B6"/>
<path d="M67.2511 12.837L70.4698 4.64995C70.5697 4.39592 70.7992 4.30271 70.981 4.30012C71.1496 4.29838 71.395 4.38355 71.5024 4.63469L73.3895 9.03859C74.1792 8.28952 74.749 7.53609 75.1674 6.95729L72.6738 1.13753C72.3781 0.446491 71.6936 0 70.9306 0C70.1548 0 69.4457 0.477866 69.1662 1.18902L63.5715 15.419C64.2541 14.6727 65.3933 13.7765 67.2511 12.837Z" fill="#12B7B6"/>
<path d="M76.725 10.5923C76.2402 11.0915 75.6033 11.6658 74.7778 12.2784L77.9056 19.578C78.0303 19.8697 78.319 20.0582 78.641 20.0582H79.5155C79.7834 20.0582 80.0955 19.9273 80.2439 19.7078C80.3921 19.4883 80.4184 19.2124 80.3145 18.9695L76.725 10.5923Z" fill="#12B7B6"/>
<path d="M65.6627 16.9739C66.2301 16.2492 67.0886 15.5237 68.3904 15.0063C70.6432 14.1108 72.7232 12.9628 74.476 11.5744C75.1688 11.0255 75.7167 10.4189 76.2614 9.75934C77.7517 7.9546 79.3475 4.9759 79.3475 4.9759L80.9608 6.27163L80.1695 0.783905L75.609 3.96983L77.7342 4.36621C77.7342 4.36621 76.672 6.28047 75.4941 7.71975C75.0863 8.21803 74.5019 8.96899 73.689 9.73783C72.9217 10.4635 71.9815 11.2503 70.8466 11.847C69.7116 12.4436 67.6033 13.3863 67.0729 13.6829C67.0276 13.7083 66.631 13.9189 66.4699 14.0085C65.3705 14.6203 63.2522 15.9666 62.545 18.0397L62.1669 18.9914C62.0721 19.2325 62.0928 19.5123 62.253 19.7173C62.3995 19.9048 62.5813 19.9821 62.8327 20.0174C63.0977 20.0546 63.3832 20.0515 63.3832 20.0515C63.6737 20.0515 64.2371 20.1096 64.3899 19.6531C64.5383 19.2101 64.6565 18.3212 65.5838 17.0773" fill="#12B7B6"/>
<path d="M13.4948 4.02374H3.91287C1.7608 4.02374 0 5.754 0 7.86879V15.8011C0 17.9159 1.7608 19.6461 3.91287 19.6461H13.4948C15.6469 19.6461 17.4077 17.9159 17.4077 15.8011V7.86879C17.4077 5.754 15.6468 4.02374 13.4948 4.02374ZM14.681 15.5286C14.681 16.4901 13.8878 17.2695 12.9094 17.2695H4.49824C3.51984 17.2695 2.72668 16.4901 2.72668 15.5286V8.14127C2.72668 7.17979 3.51984 6.4004 4.49824 6.4004H12.9094C13.8878 6.4004 14.681 7.17979 14.681 8.14127V15.5286Z" fill="#212F64"/>
<path d="M57.3535 7.87219H54.0542C51.7697 7.87219 49.9177 9.69207 49.9177 11.937V15.7889C49.9177 18.0338 51.7697 19.8537 54.0542 19.8537H57.3535C59.6381 19.8537 61.4901 18.0338 61.4901 15.7889V11.937C61.4901 9.69207 59.6381 7.87219 57.3535 7.87219ZM58.977 15.8344C58.977 16.839 58.1483 17.6533 57.126 17.6533H54.2818C53.2595 17.6533 52.4307 16.839 52.4307 15.8344V11.8915C52.4307 10.887 53.2595 10.0726 54.2818 10.0726H57.126C58.1483 10.0726 58.977 10.887 58.977 11.8915V15.8344Z" fill="#212F64"/>
<path d="M90.1441 7.99416V9.67368C89.6912 8.61817 88.6263 7.87219 87.3923 7.87219H84.592C82.8166 7.87219 81.364 9.2996 81.364 11.0442V15.9451C81.364 17.6897 82.8166 19.1171 84.592 19.1171H87.3923C88.6087 19.1171 89.6596 18.3916 90.1232 17.3599C90.1363 17.4629 90.1441 17.5674 90.1441 17.6739V20.1814C90.1441 21.1833 89.3099 22.0031 88.2903 22.0031H82.1861V24H89.7252C91.2268 24 92.4554 22.7927 92.4554 21.3171V7.99416H90.1441ZM90.0588 14.9555C90.0588 16.0342 89.1606 16.9168 88.0629 16.9168H85.4372C84.5137 16.9168 83.7581 16.1743 83.7581 15.2667V11.7226C83.7581 10.8151 84.5137 10.0726 85.4372 10.0726H88.0629C89.1606 10.0726 90.0588 10.9551 90.0588 12.0338V14.9555Z" fill="#12B7B6"/>
</g>
<defs>
<clipPath id="clip0_3988_85222">
<rect width="105" height="24" fill="white"/>
</clipPath>
</defs>
</svg>
