<svg width="56" height="15" viewBox="0 0 56 15" fill="none" xmlns="http://www.w3.org/2000/svg">
<g clip-path="url(#clip0_3988_85210)">
<path d="M23.2768 3.10474C23.2767 3.10474 23.2766 3.10474 23.2764 3.10474C23.036 3.10474 22.8371 3.1786 22.6803 3.32582C22.5236 3.47352 22.4453 3.66517 22.4453 3.90083C22.4453 4.06447 22.4838 4.20625 22.5591 4.32718C22.6978 4.58362 22.967 4.75757 23.2764 4.75757C23.5871 4.75757 23.8573 4.58217 23.9955 4.32396C24.0695 4.20371 24.1075 4.06301 24.1075 3.90083C24.1075 3.66517 24.029 3.47352 23.8722 3.32582C23.7156 3.17871 23.5173 3.10485 23.2768 3.10474Z" fill="#00ABDD"/>
<path d="M56.0001 10.3113H51.932V8.38364H55.436V6.80073H51.932V4.8722H55.9992V3.28931H50.3667V3.28942V4.8722V6.80073V8.38364V11.8952H51.932V11.8942H56.0001V10.3113Z" fill="#1D1D1D"/>
<path d="M35.5336 3.28931L33.6582 9.24576L32.0144 3.28931H30.4491L28.8187 9.24576L26.9298 3.28931H25.3645L28.0935 11.8951H29.6588L31.2349 6.13694L32.824 11.8951H34.3893L37.0989 3.28931H35.5336Z" fill="#1D1D1D"/>
<path d="M39.1378 3.28931L36.4282 11.8951H37.9935L39.869 5.93863L41.5128 11.8951H43.0781L40.7032 3.28931H39.1378Z" fill="#1D1D1D"/>
<path d="M45.7875 9.24574L44.1437 3.28931H42.5784L44.9533 11.8951H46.5186L49.2283 3.28931H47.663L45.7875 9.24574Z" fill="#1D1D1D"/>
<path d="M22.6736 5.82178H22.5227V5.97441V11.7428V11.8953H24.0881V5.82178H23.8792H22.6736Z" fill="#1D1D1D"/>
<path d="M18.7461 3.6719C18.1562 3.40334 17.5087 3.28931 16.8618 3.28931H15.5799L14.2344 3.28942V11.8952H15.7997L16.9268 11.8951C17.4701 11.8951 18.0141 11.816 18.5231 11.6238C19.613 11.2123 21.0156 10.1828 21.0156 7.61891C21.0156 5.01065 19.801 4.15199 18.7461 3.6719ZM16.4689 10.3122H15.7997V4.87235H16.4254C16.858 4.87235 19.4149 4.65879 19.4149 7.59218C19.4149 10.4191 16.8322 10.3122 16.4689 10.3122Z" fill="#1D1D1D"/>
<path d="M9.49404 0C8.68737 0 8.03442 0.661504 8.03442 1.47604C8.03442 1.53989 8.03797 1.60255 8.04636 1.66399C8.09994 2.08813 8.3311 2.45562 8.66237 2.68939C8.89706 2.85448 9.18425 2.95207 9.49406 2.95207C10.2996 2.95207 10.9525 2.29055 10.9525 1.47604C10.9525 0.661526 10.2995 0 9.49404 0Z" fill="#00ABDD"/>
<path d="M2.99436 1.92727C2.68001 1.92727 2.36994 1.94997 2.06733 1.9943C3.56531 2.13162 4.86982 2.94907 5.6728 4.14065C6.21065 4.93646 6.525 5.89773 6.525 6.93356C6.525 8.06568 6.24272 9.36259 5.53629 10.1318C5.03022 10.6829 4.9555 10.7493 4.42952 11.0213C4.1972 11.1415 3.91393 11.0056 3.91393 10.7417V9.72699C3.91393 9.54811 3.77077 9.40297 3.59388 9.4026C3.393 9.40219 3.16627 9.4016 3.13553 9.40102C3.01455 9.39893 2.84602 9.39819 2.6505 9.41278C1.17761 9.46711 -0.000107529 10.6911 7.36373e-09 12.1938C0.000107544 13.7371 1.27928 14.9041 2.80374 14.9771C3.44029 15.0076 3.44042 15.0107 3.9139 14.9674C4.35154 14.9274 4.77035 14.7987 5.17346 14.6528C5.29005 14.6117 5.40548 14.5663 5.51883 14.5176C7.84443 13.5229 9.47503 11.1938 9.47503 8.48085C9.47503 8.38245 9.47288 8.28513 9.4686 8.18782C9.31678 4.70395 6.47693 1.92727 2.99436 1.92727Z" fill="#293989"/>
</g>
<defs>
<clipPath id="clip0_3988_85210">
<rect width="56" height="15" fill="white"/>
</clipPath>
</defs>
</svg>
