<svg width="595" height="40" viewBox="0 0 595 40" fill="none" xmlns="http://www.w3.org/2000/svg">
<rect width="595" height="40" fill="url(#paint0_linear_3988_85224)"/>
<g clip-path="url(#clip0_3988_85224)">
<path d="M37.6382 20.9404C37.3154 20.8403 34.3466 20.3529 34.1193 20.3021C33.8919 20.2513 33.5996 20.077 33.5996 19.8019V19.3637C33.5996 19.0886 33.8334 18.8635 34.1193 18.8635H37.7173L38.0874 17.6487C38.0874 17.6016 38.0473 17.563 37.9983 17.563H33.4857C32.7154 17.563 32.0851 18.1696 32.0851 18.9111V19.9782C32.0851 20.9449 32.6889 21.431 33.9114 21.6025C34.4807 21.6824 35.3773 21.8201 36.173 21.9445C36.173 21.9445 36.2957 21.9637 36.3354 21.9699C36.6301 22.0427 36.8499 22.3006 36.8499 22.6061V22.8697C36.8499 23.2312 36.5426 23.5271 36.1669 23.5271H32.442L31.9333 24.7881C32.0263 24.8108 32.124 24.8228 32.2247 24.8228H36.8067C37.6614 24.8228 38.3607 24.1497 38.3607 23.327V21.9313C38.3607 21.4644 37.9609 21.0406 37.6382 20.9404Z" fill="white"/>
<path d="M42.1056 23.5367C41.4635 23.4916 41.3325 22.8125 41.3104 22.4225V18.8177H43.2903V17.5631H41.3104V15.2162L39.7959 15.8482V17.5631H38.6589V18.8177H39.7959V22.7364H39.8006C39.8947 24.7804 41.4457 24.807 41.4457 24.807H43.3462V23.5367H42.1056Z" fill="white"/>
<path d="M48.9949 17.4201H45.9858C44.8997 17.4201 44.0193 18.2675 44.0193 19.3128V22.9141C44.0193 23.9595 44.8997 24.8069 45.9858 24.8069H50.5765V23.5175H46.2761C45.8987 23.5175 45.5899 23.2203 45.5899 22.857V19.4779C45.5899 19.1146 45.8987 18.8174 46.2761 18.8174H48.8498C49.2272 18.8174 49.536 19.1146 49.536 19.4779V20.4815H46.9822L46.032 21.6184H50.4038C50.7118 21.6184 50.9614 21.3781 50.9614 21.0817V19.3128C50.9614 18.2675 50.081 17.4201 48.9949 17.4201Z" fill="white"/>
<path d="M85.0334 17.4202H82.0507C80.9691 17.4202 80.0842 18.2719 80.0842 19.3129V22.9333C80.0842 23.9743 80.9692 24.826 82.0507 24.826H86.5776V23.5367H82.5231C81.9874 23.5367 81.5492 23.1148 81.5492 22.5993V19.5932C81.5492 19.1395 81.9349 18.7683 82.4062 18.7683H84.7043C85.1757 18.7683 85.5614 19.1395 85.5614 19.5932V20.4248C85.5614 20.463 85.5289 20.4943 85.4891 20.4943H82.9399L81.9748 21.636H86.4069C86.7331 21.636 86.9999 21.3791 86.9999 21.0651V19.3129C86.9999 18.2719 86.115 17.4202 85.0334 17.4202Z" fill="white"/>
<path d="M62.9126 20.5231L64.9665 15.4062C65.0302 15.2474 65.1766 15.1892 65.2926 15.1876C65.4003 15.1865 65.5568 15.2397 65.6254 15.3967L66.8295 18.1491C67.3334 17.6809 67.697 17.2101 67.964 16.8483L66.3728 13.211C66.1841 12.7791 65.7474 12.5 65.2605 12.5C64.7655 12.5 64.313 12.7987 64.1346 13.2431L60.5647 22.1369C61.0003 21.6705 61.7271 21.1103 62.9126 20.5231Z" fill="white"/>
<path d="M68.9578 19.1203C68.6485 19.4323 68.242 19.7912 67.7153 20.1741L69.7111 24.7363C69.7907 24.9186 69.9749 25.0364 70.1804 25.0364H70.7384C70.9093 25.0364 71.1085 24.9546 71.2032 24.8174C71.2977 24.6802 71.3146 24.5078 71.2483 24.356L68.9578 19.1203Z" fill="white"/>
<path d="M61.8991 23.1088C62.2612 22.6558 62.809 22.2023 63.6396 21.879C65.0772 21.3193 66.4044 20.6018 67.5228 19.734C67.9649 19.391 68.3145 19.0119 68.6621 18.5996C69.613 17.4717 70.6313 15.61 70.6313 15.61L71.6607 16.4198L71.1558 12.99L68.2458 14.9812L69.6018 15.2289C69.6018 15.2289 68.924 16.4253 68.1724 17.3249C67.9122 17.6363 67.5393 18.1057 67.0206 18.5862C66.531 19.0398 65.9311 19.5315 65.2069 19.9044C64.4827 20.2773 63.1374 20.8665 62.799 21.0518C62.77 21.0677 62.517 21.1993 62.4141 21.2554C61.7126 21.6377 60.361 22.4792 59.9097 23.7749L59.6685 24.3697C59.6079 24.5204 59.6212 24.6952 59.7234 24.8234C59.8168 24.9406 59.9329 24.9889 60.0933 25.011C60.2624 25.0342 60.4445 25.0323 60.4445 25.0323C60.6299 25.0323 60.9894 25.0685 61.087 24.7832C61.1816 24.5064 61.257 23.9508 61.8488 23.1734" fill="white"/>
<path d="M28.6109 15.0149H22.4968C21.1236 15.0149 20 16.0963 20 17.418V22.3757C20 23.6975 21.1236 24.7789 22.4968 24.7789H28.611C29.9842 24.7789 31.1077 23.6975 31.1077 22.3757V17.418C31.1077 16.0963 29.9842 15.0149 28.6109 15.0149ZM29.3678 22.2054C29.3678 22.8063 28.8617 23.2935 28.2374 23.2935H22.8703C22.246 23.2935 21.7399 22.8063 21.7399 22.2054V17.5883C21.7399 16.9874 22.246 16.5003 22.8703 16.5003H28.2374C28.8617 16.5003 29.3678 16.9874 29.3678 17.5883V22.2054Z" fill="white"/>
<path d="M56.5971 17.4202H54.4918C53.034 17.4202 51.8523 18.5576 51.8523 19.9607V22.3681C51.8523 23.7712 53.034 24.9086 54.4918 24.9086H56.5971C58.0548 24.9086 59.2365 23.7712 59.2365 22.3681V19.9607C59.2365 18.5576 58.0548 17.4202 56.5971 17.4202ZM57.633 22.3965C57.633 23.0244 57.1042 23.5334 56.4518 23.5334H54.637C53.9847 23.5334 53.4558 23.0244 53.4558 22.3965V19.9323C53.4558 19.3044 53.9847 18.7954 54.637 18.7954H56.4518C57.1042 18.7954 57.633 19.3044 57.633 19.9323V22.3965Z" fill="white"/>
<path d="M77.5206 17.4964V18.5461C77.2316 17.8864 76.5521 17.4202 75.7647 17.4202H73.9778C72.845 17.4202 71.9181 18.3123 71.9181 19.4027V22.4657C71.9181 23.5561 72.845 24.4482 73.9778 24.4482H75.7647C76.5409 24.4482 77.2115 23.9948 77.5073 23.35C77.5157 23.4144 77.5206 23.4797 77.5206 23.5462V25.1134C77.5206 25.7396 76.9883 26.252 76.3377 26.252H72.4427V27.5H77.2533C78.2115 27.5 78.9955 26.7455 78.9955 25.8232V17.4964H77.5206ZM77.4662 21.8472C77.4662 22.5214 76.8931 23.073 76.1926 23.073H74.5172C73.9279 23.073 73.4457 22.609 73.4457 22.0417V19.8267C73.4457 19.2595 73.9279 18.7954 74.5172 18.7954H76.1926C76.8931 18.7954 77.4662 19.347 77.4662 20.0212V21.8472Z" fill="white"/>
</g>
<defs>
<linearGradient id="paint0_linear_3988_85224" x1="595" y1="20" x2="0" y2="20" gradientUnits="userSpaceOnUse">
<stop stop-color="#2DB7AE"/>
<stop offset="1" stop-color="#285989"/>
</linearGradient>
<clipPath id="clip0_3988_85224">
<rect width="67" height="15" fill="white" transform="translate(20 12.5)"/>
</clipPath>
</defs>
</svg>
