<svg width="504" height="60" viewBox="0 0 504 60" fill="none" xmlns="http://www.w3.org/2000/svg">
<g filter="url(#filter0_dd_3427_66311)">
<path d="M23 6L18 12L28 12L23 6Z" fill="#4E545C"/>
<rect x="10" y="12" width="480" height="30" rx="4" fill="#4E545C"/>
<path d="M27.9609 29.9102V30.6719H18.4219V29.9102H21.082V27.4258H19.2891V26.6641H20.918V23.2656H19.2656V22.5039H27.0469V23.2656H25.3945V26.6641H27.0234V27.4258H25.2305V29.9102H27.9609ZM21.832 26.6641H24.4922V23.2656H21.832V26.6641ZM22.0078 29.9102H24.3164V27.4258H22.0078V29.9102ZM34.1367 22.832C34.1309 24.1152 35.877 25.1582 37.7227 25.4102L37.3594 26.1367C35.6777 25.8906 34.1016 25.0527 33.5391 23.834C32.9707 25.0527 31.4062 25.8906 29.7188 26.1367L29.3789 25.4102C31.2129 25.1582 32.9473 24.1152 32.9414 22.832V22.8086H29.6602V22.0586H37.4414V22.8086H34.1367V22.832ZM28.7812 27.6602V26.8984H38.3203V27.6602H34.0781V29.793H33.1641V27.6602H28.7812ZM30 31.7266V28.75H30.9258V30.9531H37.2539V31.7266H30ZM45.7617 23.1719C45.75 24.6602 46.8105 25.9668 48.3398 26.4883L47.8242 27.2031C46.6758 26.7754 45.7734 25.9258 45.3223 24.8301C44.877 26.0781 43.9277 27.0449 42.668 27.5195L42.1641 26.7695C43.7695 26.207 44.8359 24.8242 44.8477 23.207V22.1289H45.7617V23.1719ZM43.8633 29.9805C43.8574 28.7266 45.1875 28.0059 47.3555 28.0117C49.5176 28.0059 50.8477 28.7266 50.8477 29.9805C50.8477 31.2227 49.5176 31.9258 47.3555 31.9258C45.1875 31.9258 43.8574 31.2227 43.8633 29.9805ZM44.7773 29.9805C44.7715 30.7363 45.7559 31.1934 47.3555 31.1875C48.9492 31.1934 49.9336 30.7363 49.9336 29.9805C49.9336 29.2012 48.9492 28.7383 47.3555 28.7383C45.7559 28.7383 44.7715 29.2012 44.7773 29.9805ZM47.5664 24.5312V23.7695H49.8867V21.5312H50.8125V27.707H49.8867V24.5312H47.5664ZM56.0742 23.5117C56.0801 24.877 57.0996 26.0957 58.6289 26.5938L58.1953 27.3203C56.9941 26.9219 56.0859 26.0957 55.6348 25.0469C55.1895 26.2422 54.2285 27.1738 52.9805 27.625L52.5117 26.8867C54.0703 26.3594 55.1602 25.0176 55.1719 23.5117V23.0664H52.793V22.3047H58.418V23.0664H56.0742V23.5117ZM53.8945 30.0039C53.9004 28.8027 55.207 28.1055 57.3516 28.1055C59.4902 28.1055 60.7852 28.8027 60.7852 30.0039C60.7852 31.2227 59.4902 31.9258 57.3516 31.9258C55.207 31.9258 53.9004 31.2227 53.8945 30.0039ZM54.8203 30.0039C54.8086 30.7539 55.7812 31.1934 57.3516 31.1875C58.9277 31.1934 59.8887 30.7539 59.8945 30.0039C59.8887 29.2773 58.9277 28.8438 57.3516 28.8438C55.7812 28.8438 54.8086 29.2773 54.8203 30.0039ZM59.7773 27.8242V21.5312H60.6914V24.1914H62.2617V24.9648H60.6914V27.8242H59.7773ZM75.4219 26.4883V27.25H65.9414V26.4883H69.8672V24.3789H70.7695V26.4883H75.4219ZM66.9492 29.207V28.4453H74.2148V31.9492H73.2773V29.207H66.9492ZM67.0664 22.8555V22.1055H74.2148V22.8906C74.209 23.6934 74.209 24.584 73.957 25.7734L73.0312 25.6797C73.3008 24.5137 73.3008 23.6758 73.3008 22.8906V22.8555H67.0664ZM79.8633 23.5C79.8633 24.9531 80.918 26.3242 82.4414 26.875L81.9258 27.5898C80.7832 27.1387 79.8691 26.2363 79.4238 25.0996C78.9844 26.3594 78.0352 27.3555 76.8047 27.8477L76.3125 27.0977C77.877 26.5234 78.9551 25.0645 78.9609 23.4648V22.1758H79.8633V23.5ZM78.1992 31.7266V28.457H79.125V30.9531H85.1719V31.7266H78.1992ZM81.6914 24.7656V23.9922H84.0117V21.543H84.9375V29.3477H84.0117V24.7656H81.6914ZM98.2969 21.5312V31.9492H97.3711V21.5312H98.2969ZM89.8125 29.2422C92.6309 27.9062 94.0723 25.9082 94.2773 23.418H90.293V22.668H95.2148C95.2031 25.6621 93.8086 28.3164 90.3164 29.9922L89.8125 29.2422ZM108.199 21.543V24.6953H109.77V25.4688H108.199V29.1953H107.285V21.543H108.199ZM100.5 27.4375V22.293H101.402V24.0508H104.438V22.293H105.352V27.4375H100.5ZM101.402 26.6875H104.438V24.7773H101.402V26.6875ZM101.684 31.7266V28.4453H102.586V30.9531H108.68V31.7266H101.684ZM122.367 21.5312V31.9492H121.477V21.5312H122.367ZM113.566 26.0312C113.572 23.8164 114.451 22.416 115.805 22.4102C116.695 22.416 117.381 23.0195 117.756 24.0625H119.414V21.7539H120.293V31.4219H119.414V28H117.756C117.387 29.0488 116.695 29.6582 115.805 29.6523C114.451 29.6582 113.572 28.2461 113.566 26.0312ZM114.422 26.0312C114.416 27.7188 114.949 28.7852 115.805 28.7734C116.654 28.7852 117.199 27.7188 117.199 26.0312C117.199 24.3379 116.654 23.2773 115.805 23.2773C114.949 23.2773 114.416 24.3379 114.422 26.0312ZM117.949 24.8242C118.02 25.1934 118.055 25.5977 118.055 26.0312C118.055 26.459 118.02 26.8633 117.955 27.2266H119.414V24.8242H117.949ZM133.301 26.793V27.543H123.809V26.793H133.301ZM124.371 25.4922C126.322 25.3223 127.975 24.5137 128.051 23.3242H124.793V22.5859H128.098V21.5078H129V22.5859H132.34V23.3242H129.059C129.123 24.5137 130.77 25.3223 132.738 25.4922L132.434 26.2188C130.717 26.0254 129.182 25.3984 128.555 24.3438C127.916 25.3984 126.381 26.0254 124.676 26.2188L124.371 25.4922ZM124.863 29.418V28.668H132.129V31.9492H131.203V29.418H124.863ZM142.781 22.6211C142.77 25.627 141.686 28.4043 137.918 30.25L137.402 29.5117C139.359 28.5742 140.566 27.373 141.223 25.9609L137.602 26.3125L137.449 25.4922L141.516 25.2227C141.703 24.6426 141.814 24.0273 141.861 23.3828H137.977V22.6211H142.781ZM144.879 31.9492V21.5312H145.805V31.9492H144.879ZM156.492 21.5312V31.9492H155.602V21.5312H156.492ZM147.691 26.0312C147.697 23.8164 148.576 22.416 149.93 22.4102C151.195 22.416 152.051 23.6348 152.168 25.5977H153.516V21.7539H154.395V31.4219H153.516V26.3594H152.174C152.086 28.3867 151.213 29.6582 149.93 29.6523C148.576 29.6582 147.697 28.2461 147.691 26.0312ZM148.559 26.0312C148.547 27.7188 149.086 28.7852 149.93 28.7734C150.779 28.7852 151.318 27.7188 151.312 26.0312C151.318 24.3379 150.779 23.2773 149.93 23.2773C149.086 23.2773 148.547 24.3379 148.559 26.0312ZM170.473 27.4727V28.2344H167.953V31.9492H167.027V28.2344H164.355V31.9492H163.406V28.2344H160.934V27.4727H170.473ZM162.012 24.2266C162.018 22.8379 163.488 21.959 165.68 21.9531C167.865 21.959 169.348 22.8379 169.348 24.2266C169.348 25.6152 167.865 26.4824 165.68 26.4766C163.488 26.4824 162.018 25.6152 162.012 24.2266ZM162.961 24.2266C162.949 25.1465 164.057 25.7383 165.68 25.7383C167.303 25.7383 168.404 25.1465 168.41 24.2266C168.404 23.3008 167.303 22.7031 165.68 22.7031C164.057 22.7031 162.949 23.3008 162.961 24.2266ZM179.953 21.543V29.1836H179.027V25.1875H176.883V24.4258H179.027V21.543H179.953ZM171.363 27.0977C172.898 26.5586 174.012 25.1816 174.012 23.6875V23.1484H171.656V22.3867H177.27V23.1484H174.938V23.6875C174.938 25.0352 175.98 26.3418 177.504 26.8633L177.023 27.6016C175.852 27.1738 174.943 26.3008 174.492 25.2227C174.041 26.4297 173.08 27.3848 171.844 27.8477L171.363 27.0977ZM173.262 31.7266V28.4922H174.188V30.9531H180.246V31.7266H173.262ZM185.309 23.4531C185.309 24.8066 186.352 26.1016 187.875 26.6289L187.395 27.3555C186.223 26.9336 185.314 26.0605 184.869 24.9883C184.418 26.1836 183.451 27.1445 182.215 27.6016L181.734 26.875C183.27 26.3242 184.383 24.9355 184.383 23.4648V23.0078H182.027V22.2578H187.641V23.0078H185.309V23.4531ZM183.316 29.0898V28.3281H190.324V31.9492H189.398V29.0898H183.316ZM187.312 25.0352V24.2617H189.398V21.5312H190.324V27.7773H189.398V25.0352H187.312ZM204.609 29.8398V30.6133H195.07V29.8398H197.438V27.0332C196.547 26.5703 196.008 25.8203 196.008 24.8711C196.008 23.2598 197.59 22.1992 199.816 22.1875C202.043 22.1992 203.625 23.2598 203.625 24.8711C203.625 25.8027 203.104 26.541 202.242 27.0039V29.8398H204.609ZM196.898 24.8711C196.893 26.0371 198.105 26.8164 199.816 26.8164C201.51 26.8164 202.734 26.0371 202.734 24.8711C202.734 23.7051 201.51 22.9375 199.816 22.9492C198.105 22.9375 196.893 23.7051 196.898 24.8711ZM198.34 29.8398H201.316V27.3613C200.865 27.4785 200.361 27.543 199.816 27.543C199.283 27.543 198.785 27.4844 198.34 27.3672V29.8398ZM214.043 21.543V29.1602H213.129V21.543H214.043ZM205.688 24.8242C205.682 23.3242 206.859 22.2754 208.418 22.2695C209.977 22.2754 211.143 23.3242 211.148 24.8242C211.143 26.3418 209.977 27.3965 208.418 27.3906C206.859 27.3965 205.682 26.3418 205.688 24.8242ZM206.59 24.8242C206.578 25.8613 207.363 26.582 208.418 26.582C209.455 26.582 210.246 25.8613 210.246 24.8242C210.246 23.8047 209.455 23.0781 208.418 23.0781C207.363 23.0781 206.578 23.8047 206.59 24.8242ZM207.316 31.7266V28.3867H208.23V30.9531H214.371V31.7266H207.316ZM224.262 22.2109V26.4531H219.375V22.2109H224.262ZM220.125 31.1992C221.918 31 223.641 29.9863 223.641 28.9492H220.559V28.2344H223.652V27.2148H224.566V28.2344H227.684V28.9492H224.59C224.584 29.9629 226.26 30.9766 228.047 31.1992L227.73 31.9141C226.166 31.6973 224.736 30.959 224.115 29.998C223.488 30.9824 222.023 31.6973 220.453 31.9141L220.125 31.1992ZM220.277 25.7266H223.359V22.9609H220.277V25.7266ZM226.512 27.5195V21.5312H227.414V27.5195H226.512ZM240.492 21.9648V22.6328C240.486 23.3066 240.486 24.1035 240.293 25.1172L239.379 25.0234C239.572 24.0625 239.578 23.3594 239.578 22.7148H233.344V21.9648H240.492ZM232.219 26.4414V25.6914H236.145V23.8867H237.047V25.6914H241.699V26.4414H232.219ZM233.344 28.1641V27.4141H240.527V29.8867H234.281V31.082H240.797V31.832H233.355V29.2305H239.613V28.1641H233.344ZM251.215 21.543V29.2422H250.289V26.4297H247.594C247.113 27.0449 246.34 27.4141 245.449 27.4141C243.891 27.4141 242.736 26.3359 242.742 24.8125C242.736 23.2832 243.891 22.2051 245.449 22.1992C246.334 22.2051 247.096 22.5684 247.582 23.1719H250.289V21.543H251.215ZM243.621 24.8125C243.621 25.8555 244.383 26.5996 245.449 26.5938C246.475 26.5996 247.254 25.8555 247.254 24.8125C247.254 23.7754 246.475 23.0254 245.449 23.0195C244.383 23.0254 243.621 23.7754 243.621 24.8125ZM244.523 31.7266V28.4336H245.449V30.9531H251.508V31.7266H244.523ZM247.998 23.9336C248.092 24.2031 248.145 24.4961 248.145 24.8125C248.145 25.1172 248.092 25.4043 248.004 25.668H250.289V23.9336H247.998ZM257.895 22.1289V25.0469H254.309V26.6406C256.266 26.6406 257.279 26.5996 258.504 26.3711L258.598 27.1328C257.303 27.3613 256.242 27.4023 254.133 27.3906H253.395V24.3086H256.98V22.8906H253.371V22.1289H257.895ZM254.637 30.0977C254.631 28.8789 255.961 28.1641 258.141 28.1641C260.309 28.1641 261.627 28.8789 261.621 30.0977C261.627 31.3164 260.309 32.0137 258.141 32.0078C255.961 32.0137 254.631 31.3164 254.637 30.0977ZM255.574 30.0977C255.562 30.8535 256.529 31.2812 258.141 31.2812C259.729 31.2812 260.725 30.8535 260.719 30.0977C260.725 29.3359 259.729 28.8965 258.141 28.8906C256.529 28.8965 255.562 29.3359 255.574 30.0977ZM258.598 26.0664V25.293H260.66V23.9336H258.598V23.1836H260.66V21.543H261.586V27.9883H260.66V26.0664H258.598ZM269.918 23.1719C269.906 24.6602 270.967 25.9668 272.496 26.4883L271.98 27.2031C270.832 26.7754 269.93 25.9258 269.479 24.8301C269.033 26.0781 268.084 27.0449 266.824 27.5195L266.32 26.7695C267.926 26.207 268.992 24.8242 269.004 23.207V22.1289H269.918V23.1719ZM268.02 29.9805C268.014 28.7266 269.344 28.0059 271.512 28.0117C273.674 28.0059 275.004 28.7266 275.004 29.9805C275.004 31.2227 273.674 31.9258 271.512 31.9258C269.344 31.9258 268.014 31.2227 268.02 29.9805ZM268.934 29.9805C268.928 30.7363 269.912 31.1934 271.512 31.1875C273.105 31.1934 274.09 30.7363 274.09 29.9805C274.09 29.2012 273.105 28.7383 271.512 28.7383C269.912 28.7383 268.928 29.2012 268.934 29.9805ZM271.723 24.5312V23.7695H274.043V21.5312H274.969V27.707H274.043V24.5312H271.723ZM281.93 22.1641C281.924 23.4824 283.822 24.6543 285.656 24.918L285.293 25.6328C283.699 25.3809 282.117 24.5488 281.455 23.3711C280.793 24.5547 279.205 25.3809 277.605 25.6328L277.254 24.918C279.1 24.6543 280.98 23.5059 280.98 22.1641V21.6719H281.93V22.1641ZM276.703 27.2266V26.4648H286.195V27.2266H281.895V28.5625H285.023V31.9492H284.098V29.3125H277.758V28.5625H280.992V27.2266H276.703ZM295.488 26.418V27.168H292.266V29.8633H296.613V30.6367H287.074V29.8633H291.363V27.168H288.293V22.3867H295.383V23.1367H289.219V26.418H295.488ZM306.973 26.3711V27.0977H297.434V26.3711H306.973ZM298.582 28.6211V27.9297H305.777V30.1445H299.52V31.1406H306.117V31.8086H298.594V29.5117H304.863V28.6211H298.582ZM298.641 22.5156V21.8477H305.742V24.0039H299.59V24.918H305.93V25.5859H298.676V23.3711H304.816V22.5156H298.641ZM318.973 21.543V24.6953H320.543V25.4688H318.973V29.1953H318.059V21.543H318.973ZM311.273 27.4375V22.293H312.176V24.0508H315.211V22.293H316.125V27.4375H311.273ZM312.176 26.6875H315.211V24.7773H312.176V26.6875ZM312.457 31.7266V28.4453H313.359V30.9531H319.453V31.7266H312.457ZM324.07 22.1641C324.949 22.1582 325.693 22.4922 326.18 23.043H328.91V21.5312H329.836V27.707H328.91V26.2188H326.18C325.699 26.7695 324.949 27.1035 324.07 27.0977C322.512 27.1035 321.357 26.084 321.363 24.6367C321.357 23.1777 322.512 22.1582 324.07 22.1641ZM322.242 24.6367C322.242 25.6035 323.004 26.3184 324.07 26.3125C325.102 26.3184 325.875 25.6035 325.875 24.6367C325.875 23.6465 325.102 22.9551 324.07 22.9609C323.004 22.9551 322.242 23.6465 322.242 24.6367ZM322.887 29.9336C322.881 28.6797 324.217 27.9531 326.379 27.9531C328.535 27.9531 329.871 28.6797 329.871 29.9336C329.871 31.1992 328.535 31.9258 326.379 31.9258C324.217 31.9258 322.881 31.1992 322.887 29.9336ZM323.789 29.9336C323.783 30.7188 324.779 31.1934 326.379 31.1875C327.979 31.1934 328.975 30.7188 328.969 29.9336C328.975 29.1426 327.979 28.6738 326.379 28.668C324.779 28.6738 323.783 29.1426 323.789 29.9336ZM326.619 23.793C326.713 24.0508 326.766 24.332 326.766 24.6367C326.766 24.9297 326.713 25.2051 326.625 25.457H328.91V23.793H326.619ZM339.633 21.5312V25.832H341.379V26.5938H339.633V31.9492H338.719V21.5312H339.633ZM331.512 23.9688V23.207H334.195V21.6602H335.109V23.207H337.711V23.9688H331.512ZM332.109 27.2266C332.104 25.8203 333.182 24.8359 334.664 24.8359C336.135 24.8359 337.207 25.8203 337.219 27.2266C337.207 28.6387 336.135 29.6172 334.664 29.6172C333.182 29.6172 332.104 28.6387 332.109 27.2266ZM332.988 27.2266C332.982 28.1758 333.691 28.8438 334.664 28.832C335.625 28.8438 336.328 28.1758 336.34 27.2266C336.328 26.2832 335.625 25.6035 334.664 25.6094C333.691 25.6035 332.982 26.2832 332.988 27.2266ZM344.742 22.3398C345.697 22.3457 346.477 22.9023 346.928 23.8633H349.664V21.5312H350.578V31.9727H349.664V27.9297H346.992C346.559 28.9844 345.75 29.5996 344.742 29.5938C343.201 29.5996 342.123 28.1934 342.129 25.9727C342.123 23.7578 343.201 22.3457 344.742 22.3398ZM343.008 25.9727C343.014 27.666 343.717 28.7793 344.742 28.7734C345.762 28.7793 346.477 27.666 346.477 25.9727C346.477 24.2793 345.762 23.166 344.742 23.1602C343.717 23.166 343.014 24.2793 343.008 25.9727ZM347.191 24.6367C347.291 25.041 347.344 25.4863 347.344 25.9727C347.344 26.4004 347.303 26.8047 347.227 27.168H349.664V24.6367H347.191ZM364.863 29.8516V30.6133H355.324V29.8516H359.613V27.6016H356.449V22.2695H357.375V24.1562H362.789V22.2695H363.691V27.6016H360.516V29.8516H364.863ZM357.375 26.8516H362.789V24.9062H357.375V26.8516ZM374.332 21.5312V27.7422H373.406V25.0117H371.309V24.25H373.406V21.5312H374.332ZM365.742 26.9102C367.289 26.3535 368.391 24.9414 368.391 23.4531V23.0664H366.035V22.293H371.648V23.0664H369.316V23.4414C369.316 24.8008 370.359 26.0957 371.883 26.6172L371.402 27.3555C370.236 26.9336 369.328 26.0547 368.877 24.9824C368.432 26.2012 367.465 27.1738 366.223 27.6484L365.742 26.9102ZM367.383 30.0039C367.377 28.7793 368.707 28.0645 370.875 28.0703C373.037 28.0645 374.367 28.7793 374.367 30.0039C374.367 31.2344 373.037 31.9375 370.875 31.9492C368.707 31.9375 367.377 31.2344 367.383 30.0039ZM368.297 30.0039C368.291 30.7598 369.275 31.2168 370.875 31.2109C372.469 31.2168 373.453 30.7598 373.453 30.0039C373.453 29.2422 372.469 28.7852 370.875 28.7852C369.275 28.7852 368.291 29.2422 368.297 30.0039ZM384.211 21.543V24.9766H385.781V25.75H384.211V29.3477H383.297V21.543H384.211ZM376.09 23.5703V22.8203H378.738V21.543H379.652V22.8203H382.301V23.5703H376.09ZM376.688 26.0898C376.682 24.9062 377.689 24.1445 379.195 24.1445C380.684 24.1445 381.691 24.9062 381.703 26.0898C381.691 27.2617 380.684 28.0176 379.195 28.0117C377.689 28.0176 376.682 27.2617 376.688 26.0898ZM377.566 26.0898C377.561 26.8223 378.211 27.2969 379.195 27.2852C380.168 27.2969 380.824 26.8223 380.836 26.0898C380.824 25.3457 380.168 24.8652 379.195 24.8711C378.211 24.8652 377.561 25.3457 377.566 26.0898ZM377.695 31.7266V28.7266H378.598V30.9531H384.691V31.7266H377.695ZM393.398 27.0273V28.9492C394.406 28.8965 395.426 28.8145 396.387 28.668L396.457 29.3477C394.072 29.7812 391.512 29.7988 389.637 29.793L389.508 29.0312C390.381 29.0254 391.412 29.0195 392.496 28.9844V27.0273H393.398ZM389.824 26.6641C391.365 26.207 392.449 25.0645 392.473 23.6641H390.082V22.9023H392.496V21.6133H393.398V22.9023H395.848V23.6641H393.398C393.428 25.0059 394.541 26.1074 396.082 26.5469L395.648 27.2734C394.4 26.8984 393.416 26.0957 392.947 25.041C392.496 26.1543 391.523 26.9863 390.27 27.3672L389.824 26.6641ZM397.078 31.9727V21.5312H397.992V31.9727H397.078ZM405.012 25.2344V26.7227H409.312V27.4844H399.82V26.7227H404.109V25.2344H405.012ZM400.348 25.0234C402.164 24.8301 403.904 23.9395 403.969 22.7734H400.688V22.0234H408.469V22.7734H405.164C405.229 23.9336 406.969 24.8301 408.785 25.0234L408.445 25.75C406.74 25.5391 405.141 24.7949 404.566 23.6406C403.992 24.7949 402.404 25.5391 400.688 25.75L400.348 25.0234ZM400.969 30.1328C400.963 28.9785 402.305 28.3398 404.566 28.3398C406.805 28.3398 408.141 28.9785 408.152 30.1328C408.141 31.293 406.805 31.9258 404.566 31.9258C402.305 31.9258 400.963 31.293 400.969 30.1328ZM401.906 30.1328C401.895 30.8184 402.879 31.2168 404.566 31.2109C406.236 31.2168 407.221 30.8184 407.227 30.1328C407.221 29.4531 406.236 29.0605 404.566 29.0664C402.879 29.0605 401.895 29.4531 401.906 30.1328ZM422.133 21.5312V31.9492H421.242V21.5312H422.133ZM413.332 26.0312C413.338 23.8164 414.217 22.416 415.57 22.4102C416.461 22.416 417.146 23.0195 417.521 24.0625H419.18V21.7539H420.059V31.4219H419.18V28H417.521C417.152 29.0488 416.461 29.6582 415.57 29.6523C414.217 29.6582 413.338 28.2461 413.332 26.0312ZM414.188 26.0312C414.182 27.7188 414.715 28.7852 415.57 28.7734C416.42 28.7852 416.965 27.7188 416.965 26.0312C416.965 24.3379 416.42 23.2773 415.57 23.2773C414.715 23.2773 414.182 24.3379 414.188 26.0312ZM417.715 24.8242C417.785 25.1934 417.82 25.5977 417.82 26.0312C417.82 26.459 417.785 26.8633 417.721 27.2266H419.18V24.8242H417.715ZM433.066 26.793V27.543H423.574V26.793H433.066ZM424.137 25.4922C426.088 25.3223 427.74 24.5137 427.816 23.3242H424.559V22.5859H427.863V21.5078H428.766V22.5859H432.105V23.3242H428.824C428.889 24.5137 430.535 25.3223 432.504 25.4922L432.199 26.2188C430.482 26.0254 428.947 25.3984 428.32 24.3438C427.682 25.3984 426.146 26.0254 424.441 26.2188L424.137 25.4922ZM424.629 29.418V28.668H431.895V31.9492H430.969V29.418H424.629ZM439.535 22.6211C439.523 25.627 438.439 28.4043 434.672 30.25L434.156 29.5117C436.113 28.5742 437.32 27.373 437.977 25.9609L434.355 26.3125L434.203 25.4922L438.27 25.2227C438.457 24.6426 438.568 24.0273 438.615 23.3828H434.73V22.6211H439.535ZM441.633 31.9492V21.5312H442.559V31.9492H441.633ZM455.93 21.5312V27.1211H455.016V21.5312H455.93ZM447.574 24.4375C447.568 23.0137 448.723 22.0352 450.305 22.0469C451.887 22.0352 453.029 23.0137 453.035 24.4375C453.029 25.8555 451.887 26.834 450.305 26.8281C448.723 26.834 447.568 25.8555 447.574 24.4375ZM448.477 24.4375C448.465 25.3867 449.232 26.0605 450.305 26.0664C451.365 26.0605 452.133 25.3867 452.133 24.4375C452.133 23.4824 451.365 22.8145 450.305 22.8203C449.232 22.8145 448.465 23.4824 448.477 24.4375ZM449.18 31.8086V27.6484H450.094V28.9141H455.016V27.6484H455.93V31.8086H449.18ZM450.094 31.0586H455.016V29.6523H450.094V31.0586ZM466.289 21.5312V31.9492H465.375V21.5312H466.289ZM458.379 29.2656V22.5625H459.281V28.4688C460.875 28.457 462.516 28.334 464.262 27.9648L464.391 28.75C462.539 29.1367 460.893 29.2656 459.223 29.2656H458.379ZM476.133 21.5312V25.6562H477.879V26.4297H476.133V31.9727H475.219V21.5312H476.133ZM468.527 29.3594V22.5508H473.391V23.3125H469.441V28.5859C471.328 28.5801 472.658 28.498 474.211 28.2109L474.328 29.0078C472.693 29.3008 471.328 29.3594 469.348 29.3594H468.527ZM479.543 31.0703C479.133 31.0645 478.781 30.7246 478.793 30.3086C478.781 29.8984 479.133 29.5586 479.543 29.5586C479.959 29.5586 480.299 29.8984 480.293 30.3086C480.299 30.7246 479.959 31.0645 479.543 31.0703Z" fill="white" fill-opacity="0.7"/>
</g>
<defs>
<filter id="filter0_dd_3427_66311" x="0" y="0" width="504" height="60" filterUnits="userSpaceOnUse" color-interpolation-filters="sRGB">
<feFlood flood-opacity="0" result="BackgroundImageFix"/>
<feColorMatrix in="SourceAlpha" type="matrix" values="0 0 0 0 0 0 0 0 0 0 0 0 0 0 0 0 0 0 127 0" result="hardAlpha"/>
<feOffset dx="2" dy="6"/>
<feGaussianBlur stdDeviation="6"/>
<feColorMatrix type="matrix" values="0 0 0 0 0 0 0 0 0 0 0 0 0 0 0 0 0 0 0.12 0"/>
<feBlend mode="normal" in2="BackgroundImageFix" result="effect1_dropShadow_3427_66311"/>
<feColorMatrix in="SourceAlpha" type="matrix" values="0 0 0 0 0 0 0 0 0 0 0 0 0 0 0 0 0 0 127 0" result="hardAlpha"/>
<feOffset/>
<feGaussianBlur stdDeviation="2"/>
<feColorMatrix type="matrix" values="0 0 0 0 0 0 0 0 0 0 0 0 0 0 0 0 0 0 0.12 0"/>
<feBlend mode="normal" in2="effect1_dropShadow_3427_66311" result="effect2_dropShadow_3427_66311"/>
<feBlend mode="normal" in="SourceGraphic" in2="effect2_dropShadow_3427_66311" result="shape"/>
</filter>
</defs>
</svg>
