<svg width="303" height="74" viewBox="0 0 303 74" fill="none" xmlns="http://www.w3.org/2000/svg">
<g filter="url(#filter0_dd_3411_70736)">
<path d="M276 6L271 12L281 12L276 6Z" fill="#4E545C"/>
<rect x="10" y="12" width="279" height="44" rx="4" fill="#4E545C"/>
<path d="M27.9492 27.7188V28.4688H23.6016V31.9492H22.6992V28.4688H18.4102V27.7188H27.9492ZM19.6289 26.4531V21.9648H20.543V23.4062H25.793V21.9648H26.7188V26.4531H19.6289ZM20.543 25.7031H25.793V24.1562H20.543V25.7031ZM38.332 29.8398V30.6133H28.793V29.8398H33.082V27.2969H29.918V22.4102H37.1484V27.2969H33.9844V29.8398H38.332ZM30.8203 26.5586H36.2578V23.1484H30.8203V26.5586ZM42.5742 22.293C44.209 22.2988 45.3691 23.2949 45.375 24.7422C45.3691 26.1953 44.209 27.1855 42.5742 27.1914C40.9277 27.1855 39.7559 26.1953 39.7617 24.7422C39.7559 23.2949 40.9277 22.2988 42.5742 22.293ZM39.2227 28.8906C41.1445 28.8965 43.7988 28.8789 46.1016 28.5391L46.1719 29.2188C43.7871 29.6641 41.2266 29.6758 39.3516 29.6758L39.2227 28.8906ZM40.6641 24.7422C40.6582 25.7148 41.4609 26.3828 42.5742 26.3828C43.6758 26.3828 44.4785 25.7148 44.4727 24.7422C44.4785 23.7754 43.6758 23.1016 42.5742 23.1016C41.4609 23.1016 40.6582 23.7754 40.6641 24.7422ZM46.793 31.9727V21.5312H47.707V31.9727H46.793ZM61.1484 21.543V29.1836H60.2344V21.543H61.1484ZM52.6523 26.957C54.2285 26.3418 55.3008 24.8184 55.3008 23.1719V22.1289H56.2383V23.1719C56.2266 24.7598 57.3105 26.1836 58.8633 26.7461L58.3828 27.4844C57.1758 27.0215 56.2383 26.084 55.7754 24.8828C55.3242 26.1602 54.375 27.1855 53.1562 27.6719L52.6523 26.957ZM54.4219 31.7266V28.4805H55.3359V30.9531H61.4766V31.7266H54.4219ZM66.4453 23.5117C66.4512 24.877 67.4707 26.0957 69 26.5938L68.5664 27.3203C67.3652 26.9219 66.457 26.0957 66.0059 25.0469C65.5605 26.2422 64.5996 27.1738 63.3516 27.625L62.8828 26.8867C64.4414 26.3594 65.5312 25.0176 65.543 23.5117V23.0664H63.1641V22.3047H68.7891V23.0664H66.4453V23.5117ZM64.2656 30.0039C64.2715 28.8027 65.5781 28.1055 67.7227 28.1055C69.8613 28.1055 71.1562 28.8027 71.1562 30.0039C71.1562 31.2227 69.8613 31.9258 67.7227 31.9258C65.5781 31.9258 64.2715 31.2227 64.2656 30.0039ZM65.1914 30.0039C65.1797 30.7539 66.1523 31.1934 67.7227 31.1875C69.2988 31.1934 70.2598 30.7539 70.2656 30.0039C70.2598 29.2773 69.2988 28.8438 67.7227 28.8438C66.1523 28.8438 65.1797 29.2773 65.1914 30.0039ZM70.1484 27.8242V21.5312H71.0625V24.1914H72.6328V24.9648H71.0625V27.8242H70.1484ZM78.0352 21.7188C80.3496 21.7188 81.709 22.3574 81.7148 23.5117C81.709 24.6953 80.3496 25.334 78.0352 25.3398C75.709 25.334 74.3438 24.6953 74.3438 23.5117C74.3438 22.3574 75.709 21.7188 78.0352 21.7188ZM73.2891 26.793V26.043H82.7812V26.793H73.2891ZM74.4375 28.3984V27.6953H81.5625V30.0273H75.375V31.1055H81.8789V31.832H74.4609V29.3477H80.6602V28.3984H74.4375ZM75.3047 23.5117C75.293 24.2383 76.3066 24.6367 78.0352 24.6367C79.7637 24.6367 80.7715 24.2383 80.7773 23.5117C80.7715 22.8262 79.7637 22.416 78.0352 22.4102C76.3066 22.416 75.293 22.8262 75.3047 23.5117ZM94.7344 21.5312V25.6328H96.4805V26.4297H94.7344V31.9492H93.8203V21.5312H94.7344ZM87.1055 29.4531V22.4219H88.0195V25.1758H91.0664V22.4219H91.9805V29.4531H87.1055ZM88.0195 28.6797H91.0664V25.9141H88.0195V28.6797ZM105.188 21.5312V24.25H106.758V25.0117H105.188V27.9414H104.273V21.5312H105.188ZM97.5352 27.2266V22.2695H102.328V23.0195H98.4492V24.3555H102.129V25.0938H98.4492V26.4766C100.482 26.4824 101.637 26.4297 103.008 26.1953L103.113 26.9336C101.678 27.1973 100.477 27.2383 98.3203 27.2266H97.5352ZM98.4141 30.0742C98.4023 28.8848 99.7207 28.2051 101.871 28.2109C104.004 28.2051 105.305 28.8848 105.305 30.0742C105.305 31.2578 104.004 31.9258 101.871 31.9258C99.7207 31.9258 98.4023 31.2578 98.4141 30.0742ZM99.3281 30.0742C99.3223 30.7832 100.277 31.2168 101.871 31.2109C103.436 31.2168 104.396 30.7832 104.391 30.0742C104.396 29.3594 103.436 28.9375 101.871 28.9375C100.277 28.9375 99.3223 29.3594 99.3281 30.0742ZM112.16 22.2109C114.334 22.2168 115.969 23.3535 115.969 25.0703C115.969 26.8047 114.334 27.9414 112.16 27.9297C109.986 27.9414 108.352 26.8047 108.352 25.0703C108.352 23.3535 109.986 22.2168 112.16 22.2109ZM107.414 30.5664V29.793H116.953V30.5664H107.414ZM109.23 25.0703C109.219 26.3359 110.479 27.1797 112.16 27.1797C113.83 27.1797 115.078 26.3359 115.078 25.0703C115.078 23.8223 113.83 22.9551 112.16 22.9609C110.479 22.9551 109.219 23.8223 109.23 25.0703ZM127.324 29.8867V30.6602H117.785V29.8867H122.074V27.918H118.98V24.707H125.215V23.0664H118.957V22.3047H126.117V25.457H119.895V27.1562H126.363V27.918H122.977V29.8867H127.324ZM134.672 23.5C134.666 24.9355 135.75 26.2598 137.285 26.793L136.816 27.5312C135.633 27.0977 134.713 26.2188 134.25 25.1172C133.811 26.3594 132.867 27.3145 131.637 27.7891L131.133 27.0508C132.721 26.4941 133.764 25.082 133.77 23.4648V22.1758H134.672V23.5ZM132.809 31.7266V28.4922H133.746V30.9531H139.793V31.7266H132.809ZM138.398 29.2305V21.5312H139.312V24.7305H140.883V25.5156H139.312V29.2305H138.398ZM151.031 26.1719V26.8867H146.73V27.8594H149.812V30.1094H143.625V31.1289H150.129V31.832H142.711V29.4531H148.91V28.5508H142.688V27.8594H145.828V26.8867H141.551V26.1719H151.031ZM142.055 24.9883C143.965 24.8652 145.594 24.2148 145.764 23.1719H142.523V22.4453H145.828V21.4727H146.73V22.4453H150.07V23.1719H146.801C146.965 24.2148 148.594 24.8652 150.516 24.9883L150.234 25.6914C148.494 25.5449 146.924 25.0059 146.285 24.0156C145.641 25.0059 144.07 25.5449 142.324 25.6914L142.055 24.9883ZM157.969 24.9531V25.7031H155.859V27.1562C156.832 27.1152 157.805 27.0449 158.707 26.9453L158.777 27.625C156.533 27.9355 154.055 28 152.098 28L151.957 27.25C152.871 27.2441 153.896 27.2324 154.945 27.1973V25.7031H152.906V22.2109H157.887V22.9727H153.832V24.9531H157.969ZM153.738 31.7266V28.7969H154.652V30.9531H160.84V31.7266H153.738ZM159.574 29.3359V21.543H160.5V29.3359H159.574ZM21.9492 38.7305C21.9375 40.4004 23.1445 42.2402 24.6562 42.9609L24.1289 43.6875C22.957 43.1133 21.9668 41.8828 21.498 40.4707C21.0176 42 19.9746 43.3477 18.8086 43.9453L18.2461 43.2188C19.7461 42.4863 21.0352 40.5059 21.0469 38.7305V37.3711H18.6211V36.6094H24.293V37.3711H21.9492V38.7305ZM25.5703 45.9492V35.5312H26.4844V39.75H28.2305V40.5352H26.4844V45.9492H25.5703ZM37.4414 35.5312V45.9727H36.5156V41.0977H33.3516V40.3359H36.5156V38.7305H33.3516V37.9805H36.5156V35.5312H37.4414ZM29.3672 43.5469V36.6914H30.293V42.75C31.9922 42.75 33.2812 42.6797 34.7461 42.3867L34.8398 43.1484C33.293 43.4531 31.9688 43.541 30.1641 43.5469H29.3672ZM42.5742 36.293C44.209 36.2988 45.3691 37.2949 45.375 38.7422C45.3691 40.1953 44.209 41.1855 42.5742 41.1914C40.9277 41.1855 39.7559 40.1953 39.7617 38.7422C39.7559 37.2949 40.9277 36.2988 42.5742 36.293ZM39.2227 42.8906C41.1445 42.8965 43.7988 42.8789 46.1016 42.5391L46.1719 43.2188C43.7871 43.6641 41.2266 43.6758 39.3516 43.6758L39.2227 42.8906ZM40.6641 38.7422C40.6582 39.7148 41.4609 40.3828 42.5742 40.3828C43.6758 40.3828 44.4785 39.7148 44.4727 38.7422C44.4785 37.7754 43.6758 37.1016 42.5742 37.1016C41.4609 37.1016 40.6582 37.7754 40.6641 38.7422ZM46.793 45.9727V35.5312H47.707V45.9727H46.793ZM62.0742 41.4727V42.2344H59.5547V45.9492H58.6289V42.2344H55.957V45.9492H55.0078V42.2344H52.5352V41.4727H62.0742ZM53.6133 38.2266C53.6191 36.8379 55.0898 35.959 57.2812 35.9531C59.4668 35.959 60.9492 36.8379 60.9492 38.2266C60.9492 39.6152 59.4668 40.4824 57.2812 40.4766C55.0898 40.4824 53.6191 39.6152 53.6133 38.2266ZM54.5625 38.2266C54.5508 39.1465 55.6582 39.7383 57.2812 39.7383C58.9043 39.7383 60.0059 39.1465 60.0117 38.2266C60.0059 37.3008 58.9043 36.7031 57.2812 36.7031C55.6582 36.7031 54.5508 37.3008 54.5625 38.2266ZM71.5547 35.543V43.1836H70.6289V39.1875H68.4844V38.4258H70.6289V35.543H71.5547ZM62.9648 41.0977C64.5 40.5586 65.6133 39.1816 65.6133 37.6875V37.1484H63.2578V36.3867H68.8711V37.1484H66.5391V37.6875C66.5391 39.0352 67.582 40.3418 69.1055 40.8633L68.625 41.6016C67.4531 41.1738 66.5449 40.3008 66.0938 39.2227C65.6426 40.4297 64.6816 41.3848 63.4453 41.8477L62.9648 41.0977ZM64.8633 45.7266V42.4922H65.7891V44.9531H71.8477V45.7266H64.8633ZM76.9102 37.4531C76.9102 38.8066 77.9531 40.1016 79.4766 40.6289L78.9961 41.3555C77.8242 40.9336 76.916 40.0605 76.4707 38.9883C76.0195 40.1836 75.0527 41.1445 73.8164 41.6016L73.3359 40.875C74.8711 40.3242 75.9844 38.9355 75.9844 37.4648V37.0078H73.6289V36.2578H79.2422V37.0078H76.9102V37.4531ZM74.918 43.0898V42.3281H81.9258V45.9492H81V43.0898H74.918ZM78.9141 39.0352V38.2617H81V35.5312H81.9258V41.7773H81V39.0352H78.9141ZM95.2852 35.5312V45.9492H94.3594V35.5312H95.2852ZM86.8008 43.2422C89.6191 41.9062 91.0605 39.9082 91.2656 37.418H87.2812V36.668H92.2031C92.1914 39.6621 90.7969 42.3164 87.3047 43.9922L86.8008 43.2422ZM105.949 35.5312V45.9492H105.07V40.4883H103.535V45.4102H102.691V35.7656H103.535V39.7266H105.07V35.5312H105.949ZM97.4297 43.3711V36.8086H101.332V37.5703H98.3438V42.5859C99.7793 42.5801 100.77 42.5273 101.93 42.293L102.012 43.0664C100.758 43.3242 99.6973 43.3652 98.0977 43.3711H97.4297ZM119.027 35.543V43.1836H118.113V35.543H119.027ZM110.531 40.957C112.107 40.3418 113.18 38.8184 113.18 37.1719V36.1289H114.117V37.1719C114.105 38.7598 115.189 40.1836 116.742 40.7461L116.262 41.4844C115.055 41.0215 114.117 40.084 113.654 38.8828C113.203 40.1602 112.254 41.1855 111.035 41.6719L110.531 40.957ZM112.301 45.7266V42.4805H113.215V44.9531H119.355V45.7266H112.301ZM124.324 37.5117C124.33 38.877 125.35 40.0957 126.879 40.5938L126.445 41.3203C125.244 40.9219 124.336 40.0957 123.885 39.0469C123.439 40.2422 122.479 41.1738 121.23 41.625L120.762 40.8867C122.32 40.3594 123.41 39.0176 123.422 37.5117V37.0664H121.043V36.3047H126.668V37.0664H124.324V37.5117ZM122.145 44.0039C122.15 42.8027 123.457 42.1055 125.602 42.1055C127.74 42.1055 129.035 42.8027 129.035 44.0039C129.035 45.2227 127.74 45.9258 125.602 45.9258C123.457 45.9258 122.15 45.2227 122.145 44.0039ZM123.07 44.0039C123.059 44.7539 124.031 45.1934 125.602 45.1875C127.178 45.1934 128.139 44.7539 128.145 44.0039C128.139 43.2773 127.178 42.8438 125.602 42.8438C124.031 42.8438 123.059 43.2773 123.07 44.0039ZM128.027 41.8242V35.5312H128.941V38.1914H130.512V38.9648H128.941V41.8242H128.027ZM131.895 41.4258C131.9 39.3398 132.463 37.5996 133.477 36.1289H134.379C133.582 37.2188 132.943 39.457 132.938 41.4258C132.943 43.4004 133.582 45.6387 134.379 46.7344H133.477C132.463 45.2578 131.9 43.5176 131.895 41.4258ZM135.773 36.5156H137.039L139.898 43.5H140.004L142.863 36.5156H144.129V45H143.133V38.5898H143.051L140.414 45H139.477L136.84 38.5898H136.77V45H135.773V36.5156ZM145.875 45V38.6367H146.883V45H145.875ZM145.676 36.9141C145.67 36.5391 145.992 36.2402 146.379 36.2461C146.766 36.2402 147.088 36.5391 147.094 36.9141C147.088 37.2832 146.766 37.582 146.379 37.582C145.992 37.582 145.67 37.2832 145.676 36.9141ZM150.891 45.1289C149.303 45.1348 148.184 43.8574 148.184 41.8359C148.184 39.8203 149.303 38.5547 150.902 38.5547C152.139 38.5547 152.525 39.3047 152.742 39.6445H152.812V36.5156H153.832V45H152.848V44.0273H152.742C152.52 44.3789 152.104 45.1348 150.891 45.1289ZM149.203 41.8125C149.203 43.166 149.824 44.2266 151.031 44.2266C152.197 44.2266 152.842 43.2422 152.848 41.8125C152.842 40.4004 152.215 39.457 151.031 39.457C149.807 39.457 149.203 40.4824 149.203 41.8125ZM159.223 40.9102V41.8359H155.508V40.9102H159.223ZM160.898 45V36.5156H163.781C165.768 36.5156 166.676 37.6992 166.676 39.2109C166.676 40.7168 165.768 41.918 163.793 41.918H161.953V45H160.898ZM161.953 40.9805H163.746C165.1 40.9805 165.627 40.2188 165.633 39.2109C165.627 38.1973 165.1 37.4531 163.734 37.4531H161.953V40.9805ZM167.707 43.1953C167.707 41.7363 168.996 41.4023 170.098 41.3203C170.508 41.291 171.533 41.2324 171.82 41.2266V40.7109C171.82 39.9023 171.34 39.4336 170.379 39.4336C169.576 39.4336 169.09 39.8027 168.949 40.2891H167.895C168.023 39.2637 169.02 38.5547 170.426 38.5547C171.258 38.5547 172.822 38.8008 172.816 40.8047V45H171.82V44.1328H171.773C171.562 44.5605 170.982 45.1465 169.875 45.1523C168.668 45.1465 167.707 44.4375 167.707 43.1953ZM168.715 43.2422C168.721 43.916 169.277 44.2559 170.051 44.25C171.188 44.2559 171.82 43.4941 171.82 42.6914V42.0527C171.521 42.0703 170.52 42.1465 170.215 42.1641C169.301 42.2227 168.721 42.5449 168.715 43.2422ZM174.434 45V38.6367H175.406V39.6094H175.477C175.705 38.9648 176.367 38.5371 177.117 38.5312C177.27 38.5371 177.527 38.543 177.645 38.5547V39.5742C177.568 39.5566 177.299 39.5039 177.035 39.5039C176.121 39.5039 175.441 40.1367 175.441 40.9922V45H174.434ZM181.09 45.1289C179.25 45.1348 178.113 43.8223 178.113 41.8711C178.113 39.9141 179.268 38.5547 180.996 38.5547C182.332 38.5547 183.744 39.375 183.738 41.7305V42.1523H179.121C179.174 43.5 179.959 44.2383 181.09 44.2383C181.852 44.2383 182.332 43.9043 182.566 43.5117H183.645C183.346 44.4785 182.402 45.1348 181.09 45.1289ZM179.127 41.2969H182.719C182.713 40.2363 182.045 39.4453 180.996 39.4453C179.895 39.4453 179.197 40.3125 179.127 41.2969ZM186.059 41.1797V45H185.051V38.6367H186.023V39.6328H186.105C186.404 38.9824 187.002 38.5547 187.969 38.5547C189.258 38.5547 190.119 39.3398 190.113 40.957V45H189.105V41.0273C189.105 40.043 188.566 39.457 187.664 39.457C186.738 39.457 186.059 40.0781 186.059 41.1797ZM194.508 38.6367V39.4805H193.172V43.1719C193.166 43.9863 193.576 44.1211 194.004 44.1211C194.186 44.1211 194.455 44.1035 194.602 44.0977V45.0352C194.443 45.0586 194.197 45.082 193.898 45.082C193.049 45.082 192.158 44.5547 192.152 43.4297V39.4805H191.191V38.6367H192.152V37.1133H193.172V38.6367H194.508ZM195.504 43.1953C195.504 41.7363 196.793 41.4023 197.895 41.3203C198.305 41.291 199.33 41.2324 199.617 41.2266V40.7109C199.617 39.9023 199.137 39.4336 198.176 39.4336C197.373 39.4336 196.887 39.8027 196.746 40.2891H195.691C195.82 39.2637 196.816 38.5547 198.223 38.5547C199.055 38.5547 200.619 38.8008 200.613 40.8047V45H199.617V44.1328H199.57C199.359 44.5605 198.779 45.1465 197.672 45.1523C196.465 45.1465 195.504 44.4375 195.504 43.1953ZM196.512 43.2422C196.518 43.916 197.074 44.2559 197.848 44.25C198.984 44.2559 199.617 43.4941 199.617 42.6914V42.0527C199.318 42.0703 198.316 42.1465 198.012 42.1641C197.098 42.2227 196.518 42.5449 196.512 43.2422ZM203.238 36.5156V45H202.23V36.5156H203.238ZM207.984 45V36.5156H209.039V40.2891H213.527V36.5156H214.594V45H213.527V41.2148H209.039V45H207.984ZM219 45.1289C217.16 45.1348 216.023 43.8223 216.023 41.8711C216.023 39.9141 217.178 38.5547 218.906 38.5547C220.242 38.5547 221.654 39.375 221.648 41.7305V42.1523H217.031C217.084 43.5 217.869 44.2383 219 44.2383C219.762 44.2383 220.242 43.9043 220.477 43.5117H221.555C221.256 44.4785 220.312 45.1348 219 45.1289ZM217.037 41.2969H220.629C220.623 40.2363 219.955 39.4453 218.906 39.4453C217.805 39.4453 217.107 40.3125 217.037 41.2969ZM222.961 45V38.6367H223.969V45H222.961ZM222.762 36.9141C222.756 36.5391 223.078 36.2402 223.465 36.2461C223.852 36.2402 224.174 36.5391 224.18 36.9141C224.174 37.2832 223.852 37.582 223.465 37.582C223.078 37.582 222.756 37.2832 222.762 36.9141ZM228.152 47.5195C226.611 47.5195 225.568 46.8457 225.457 45.668H226.512C226.646 46.3184 227.25 46.6406 228.152 46.6406C229.242 46.6406 229.91 46.166 229.91 45.1172V43.8281H229.828C229.611 44.1797 229.207 44.9004 227.977 44.9062C226.43 44.9004 225.27 43.7344 225.27 41.7305C225.27 39.7734 226.389 38.5547 227.988 38.5547C229.225 38.5547 229.623 39.3047 229.852 39.6445H229.934V38.6367H230.918V45.1758C230.912 46.8164 229.705 47.5195 228.152 47.5195ZM226.289 41.7656C226.289 43.084 226.91 44.0039 228.117 44.0039C229.283 44.0039 229.928 43.166 229.934 41.7656C229.928 40.4004 229.301 39.457 228.117 39.457C226.893 39.457 226.289 40.4824 226.289 41.7656ZM233.531 41.1797V45H232.523V36.5156H233.531V39.6328H233.613C233.912 38.9766 234.48 38.5547 235.488 38.5547C236.789 38.5547 237.656 39.3223 237.656 40.957V45H236.648V41.0273C236.648 40.0254 236.098 39.457 235.184 39.457C234.234 39.457 233.531 40.0781 233.531 41.1797ZM242.051 38.6367V39.4805H240.715V43.1719C240.709 43.9863 241.119 44.1211 241.547 44.1211C241.729 44.1211 241.998 44.1035 242.145 44.0977V45.0352C241.986 45.0586 241.74 45.082 241.441 45.082C240.592 45.082 239.701 44.5547 239.695 43.4297V39.4805H238.734V38.6367H239.695V37.1133H240.715V38.6367H242.051ZM245.484 41.4258C245.479 43.5117 244.916 45.252 243.902 46.7227H243C243.797 45.6328 244.436 43.3945 244.441 41.4258C244.436 39.4512 243.797 37.2129 243 36.1172H243.902C244.916 37.5938 245.479 39.334 245.484 41.4258ZM255.656 35.5312V41.1211H254.742V35.5312H255.656ZM247.301 38.4375C247.295 37.0137 248.449 36.0352 250.031 36.0469C251.613 36.0352 252.756 37.0137 252.762 38.4375C252.756 39.8555 251.613 40.834 250.031 40.8281C248.449 40.834 247.295 39.8555 247.301 38.4375ZM248.203 38.4375C248.191 39.3867 248.959 40.0605 250.031 40.0664C251.092 40.0605 251.859 39.3867 251.859 38.4375C251.859 37.4824 251.092 36.8145 250.031 36.8203C248.959 36.8145 248.191 37.4824 248.203 38.4375ZM248.906 45.8086V41.6484H249.82V42.9141H254.742V41.6484H255.656V45.8086H248.906ZM249.82 45.0586H254.742V43.6523H249.82V45.0586ZM266.016 35.5312V45.9492H265.102V35.5312H266.016ZM258.105 43.2656V36.5625H259.008V42.4688C260.602 42.457 262.242 42.334 263.988 41.9648L264.117 42.75C262.266 43.1367 260.619 43.2656 258.949 43.2656H258.105ZM275.859 35.5312V39.6562H277.605V40.4297H275.859V45.9727H274.945V35.5312H275.859ZM268.254 43.3594V36.5508H273.117V37.3125H269.168V42.5859C271.055 42.5801 272.385 42.498 273.938 42.2109L274.055 43.0078C272.42 43.3008 271.055 43.3594 269.074 43.3594H268.254ZM279.27 45.0703C278.859 45.0645 278.508 44.7246 278.52 44.3086C278.508 43.8984 278.859 43.5586 279.27 43.5586C279.686 43.5586 280.025 43.8984 280.02 44.3086C280.025 44.7246 279.686 45.0645 279.27 45.0703Z" fill="white" fill-opacity="0.7"/>
</g>
<defs>
<filter id="filter0_dd_3411_70736" x="0" y="0" width="303" height="74" filterUnits="userSpaceOnUse" color-interpolation-filters="sRGB">
<feFlood flood-opacity="0" result="BackgroundImageFix"/>
<feColorMatrix in="SourceAlpha" type="matrix" values="0 0 0 0 0 0 0 0 0 0 0 0 0 0 0 0 0 0 127 0" result="hardAlpha"/>
<feOffset dx="2" dy="6"/>
<feGaussianBlur stdDeviation="6"/>
<feColorMatrix type="matrix" values="0 0 0 0 0 0 0 0 0 0 0 0 0 0 0 0 0 0 0.12 0"/>
<feBlend mode="normal" in2="BackgroundImageFix" result="effect1_dropShadow_3411_70736"/>
<feColorMatrix in="SourceAlpha" type="matrix" values="0 0 0 0 0 0 0 0 0 0 0 0 0 0 0 0 0 0 127 0" result="hardAlpha"/>
<feOffset/>
<feGaussianBlur stdDeviation="2"/>
<feColorMatrix type="matrix" values="0 0 0 0 0 0 0 0 0 0 0 0 0 0 0 0 0 0 0.12 0"/>
<feBlend mode="normal" in2="effect1_dropShadow_3411_70736" result="effect2_dropShadow_3411_70736"/>
<feBlend mode="normal" in="SourceGraphic" in2="effect2_dropShadow_3411_70736" result="shape"/>
</filter>
</defs>
</svg>
