<svg width="523" height="88" viewBox="0 0 523 88" fill="none" xmlns="http://www.w3.org/2000/svg">
<g filter="url(#filter0_dd_3411_69685)">
<path d="M259.5 6L254.5 12L264.5 12L259.5 6Z" fill="#4E545C"/>
<rect x="10" y="12" width="499" height="58" rx="4" fill="#4E545C"/>
<path d="M27.9258 26.6875V27.4258H18.4219V26.6875H22.7227V25.4688H19.6289V22.0234H26.7422V22.7617H20.5312V24.7188H26.8125V25.4688H23.6133V26.6875H27.9258ZM19.5703 30.0625C19.5645 28.873 20.918 28.1934 23.168 28.1875C25.4004 28.1934 26.7422 28.873 26.7539 30.0625C26.7422 31.2637 25.4004 31.9375 23.168 31.9492C20.918 31.9375 19.5645 31.2637 19.5703 30.0625ZM20.5078 30.0625C20.4961 30.7949 21.498 31.2168 23.168 31.2109C24.8203 31.2168 25.8223 30.7949 25.8281 30.0625C25.8223 29.3418 24.8203 28.9141 23.168 28.9141C21.498 28.9141 20.4961 29.3418 20.5078 30.0625ZM31.7461 21.918C33.3047 21.9238 34.4355 22.873 34.4414 24.2266C34.4355 25.5859 33.3047 26.5234 31.7461 26.5234C30.1699 26.5234 29.0332 25.5859 29.0391 24.2266C29.0332 22.873 30.1699 21.9238 31.7461 21.918ZM29.9414 24.2266C29.9297 25.1406 30.6973 25.7734 31.7461 25.7734C32.7773 25.7734 33.5508 25.1406 33.5508 24.2266C33.5508 23.3242 32.7773 22.6855 31.7461 22.6914C30.6973 22.6855 29.9297 23.3242 29.9414 24.2266ZM30.6211 28.1289V27.3906H37.3945V29.8984H31.5469V31.0703H37.7695V31.8086H30.6445V29.207H36.4805V28.1289H30.6211ZM36.4805 26.8867V21.5312H37.3945V26.8867H36.4805ZM50.8125 21.543V29.2422H49.8867V26.4297H47.1914C46.7109 27.0449 45.9375 27.4141 45.0469 27.4141C43.4883 27.4141 42.334 26.3359 42.3398 24.8125C42.334 23.2832 43.4883 22.2051 45.0469 22.1992C45.9316 22.2051 46.6934 22.5684 47.1797 23.1719H49.8867V21.543H50.8125ZM43.2188 24.8125C43.2188 25.8555 43.9805 26.5996 45.0469 26.5938C46.0723 26.5996 46.8516 25.8555 46.8516 24.8125C46.8516 23.7754 46.0723 23.0254 45.0469 23.0195C43.9805 23.0254 43.2188 23.7754 43.2188 24.8125ZM44.1211 31.7266V28.4336H45.0469V30.9531H51.1055V31.7266H44.1211ZM47.5957 23.9336C47.6895 24.2031 47.7422 24.4961 47.7422 24.8125C47.7422 25.1172 47.6895 25.4043 47.6016 25.668H49.8867V23.9336H47.5957ZM57.4922 22.1289V25.0469H53.9062V26.6406C55.8633 26.6406 56.877 26.5996 58.1016 26.3711L58.1953 27.1328C56.9004 27.3613 55.8398 27.4023 53.7305 27.3906H52.9922V24.3086H56.5781V22.8906H52.9688V22.1289H57.4922ZM54.2344 30.0977C54.2285 28.8789 55.5586 28.1641 57.7383 28.1641C59.9062 28.1641 61.2246 28.8789 61.2188 30.0977C61.2246 31.3164 59.9062 32.0137 57.7383 32.0078C55.5586 32.0137 54.2285 31.3164 54.2344 30.0977ZM55.1719 30.0977C55.1602 30.8535 56.127 31.2812 57.7383 31.2812C59.3262 31.2812 60.3223 30.8535 60.3164 30.0977C60.3223 29.3359 59.3262 28.8965 57.7383 28.8906C56.127 28.8965 55.1602 29.3359 55.1719 30.0977ZM58.1953 26.0664V25.293H60.2578V23.9336H58.1953V23.1836H60.2578V21.543H61.1836V27.9883H60.2578V26.0664H58.1953ZM71.3672 22.2109V26.4531H66.4805V22.2109H71.3672ZM67.2305 31.1992C69.0234 31 70.7461 29.9863 70.7461 28.9492H67.6641V28.2344H70.7578V27.2148H71.6719V28.2344H74.7891V28.9492H71.6953C71.6895 29.9629 73.3652 30.9766 75.1523 31.1992L74.8359 31.9141C73.2715 31.6973 71.8418 30.959 71.2207 29.998C70.5938 30.9824 69.1289 31.6973 67.5586 31.9141L67.2305 31.1992ZM67.3828 25.7266H70.4648V22.9609H67.3828V25.7266ZM73.6172 27.5195V21.5312H74.5195V27.5195H73.6172ZM82.8984 23.1719C82.8867 24.6602 83.9473 25.9668 85.4766 26.4883L84.9609 27.2031C83.8125 26.7754 82.9102 25.9258 82.459 24.8301C82.0137 26.0781 81.0645 27.0449 79.8047 27.5195L79.3008 26.7695C80.9062 26.207 81.9727 24.8242 81.9844 23.207V22.1289H82.8984V23.1719ZM81 29.9805C80.9941 28.7266 82.3242 28.0059 84.4922 28.0117C86.6543 28.0059 87.9844 28.7266 87.9844 29.9805C87.9844 31.2227 86.6543 31.9258 84.4922 31.9258C82.3242 31.9258 80.9941 31.2227 81 29.9805ZM81.9141 29.9805C81.9082 30.7363 82.8926 31.1934 84.4922 31.1875C86.0859 31.1934 87.0703 30.7363 87.0703 29.9805C87.0703 29.2012 86.0859 28.7383 84.4922 28.7383C82.8926 28.7383 81.9082 29.2012 81.9141 29.9805ZM84.7031 24.5312V23.7695H87.0234V21.5312H87.9492V27.707H87.0234V24.5312H84.7031ZM98.3086 21.5312V26.9805H97.3945V25.6445H94.9336V26.5586H90.2109V22.0234H91.125V23.5234H94.0312V22.0234H94.9336V23.0312H97.3945V21.5312H98.3086ZM91.125 25.8086H94.0312V24.25H91.125V25.8086ZM91.5586 28.2227V27.4844H98.3086V29.9336H92.4961V31.0703H98.707V31.8086H91.582V29.2305H97.3945V28.2227H91.5586ZM94.9336 24.918H97.3945V23.7461H94.9336V24.918ZM111.973 21.5312V31.9492H111.094V26.4883H109.559V31.4102H108.715V21.7656H109.559V25.7266H111.094V21.5312H111.973ZM103.453 29.3711V22.8086H107.355V23.5703H104.367V28.5859C105.803 28.5801 106.793 28.5273 107.953 28.293L108.035 29.0664C106.781 29.3242 105.721 29.3652 104.121 29.3711H103.453ZM122.027 21.5312V31.9727H121.102V21.5312H122.027ZM114.047 29.4531V22.4219H114.961V25.1758H118.066V22.4219H118.969V29.4531H114.047ZM114.961 28.6797H118.066V25.9141H114.961V28.6797ZM135.457 21.543V29.4883H134.531V27.25H132.727V26.5H134.531V25.082H132.727V24.3203H134.531V21.543H135.457ZM126.832 23.5703V22.8203H129.363V21.5312H130.277V22.8203H132.727V23.5703H126.832ZM127.453 26.1367C127.441 24.9414 128.414 24.1445 129.809 24.1445C131.203 24.1445 132.182 24.9414 132.188 26.1367C132.182 27.3203 131.203 28.123 129.809 28.1289C128.414 28.123 127.441 27.3203 127.453 26.1367ZM128.309 26.1367C128.303 26.8867 128.918 27.3965 129.809 27.3906C130.699 27.3965 131.314 26.8867 131.32 26.1367C131.314 25.3867 130.699 24.8828 129.809 24.8711C128.918 24.8828 128.303 25.3867 128.309 26.1367ZM128.719 31.7266V28.7852H129.645V30.9531H135.691V31.7266H128.719ZM146.145 21.5312V31.9492H145.254V26.5352H143.836V31.4219H142.957V21.7539H143.836V25.75H145.254V21.5312H146.145ZM137.086 29.0898C138.586 28.2637 139.389 26.4941 139.383 24.3789V23.5469H137.332V22.7734H142.207V23.5469H140.273V24.3789C140.273 26.2832 141.064 27.9648 142.547 28.7266L141.996 29.4414C140.947 28.8672 140.221 27.8418 139.852 26.5703C139.494 28.0176 138.756 29.1543 137.66 29.793L137.086 29.0898ZM159.176 21.543V29.1836H158.262V21.543H159.176ZM150.68 26.957C152.256 26.3418 153.328 24.8184 153.328 23.1719V22.1289H154.266V23.1719C154.254 24.7598 155.338 26.1836 156.891 26.7461L156.41 27.4844C155.203 27.0215 154.266 26.084 153.803 24.8828C153.352 26.1602 152.402 27.1855 151.184 27.6719L150.68 26.957ZM152.449 31.7266V28.4805H153.363V30.9531H159.504V31.7266H152.449ZM164.473 23.5117C164.479 24.877 165.498 26.0957 167.027 26.5938L166.594 27.3203C165.393 26.9219 164.484 26.0957 164.033 25.0469C163.588 26.2422 162.627 27.1738 161.379 27.625L160.91 26.8867C162.469 26.3594 163.559 25.0176 163.57 23.5117V23.0664H161.191V22.3047H166.816V23.0664H164.473V23.5117ZM162.293 30.0039C162.299 28.8027 163.605 28.1055 165.75 28.1055C167.889 28.1055 169.184 28.8027 169.184 30.0039C169.184 31.2227 167.889 31.9258 165.75 31.9258C163.605 31.9258 162.299 31.2227 162.293 30.0039ZM163.219 30.0039C163.207 30.7539 164.18 31.1934 165.75 31.1875C167.326 31.1934 168.287 30.7539 168.293 30.0039C168.287 29.2773 167.326 28.8438 165.75 28.8438C164.18 28.8438 163.207 29.2773 163.219 30.0039ZM168.176 27.8242V21.5312H169.09V24.1914H170.66V24.9648H169.09V27.8242H168.176ZM174.727 22.293C176.361 22.2988 177.521 23.2949 177.527 24.7422C177.521 26.1953 176.361 27.1855 174.727 27.1914C173.08 27.1855 171.908 26.1953 171.914 24.7422C171.908 23.2949 173.08 22.2988 174.727 22.293ZM171.375 28.8906C173.297 28.8965 175.951 28.8789 178.254 28.5391L178.324 29.2188C175.939 29.6641 173.379 29.6758 171.504 29.6758L171.375 28.8906ZM172.816 24.7422C172.811 25.7148 173.613 26.3828 174.727 26.3828C175.828 26.3828 176.631 25.7148 176.625 24.7422C176.631 23.7754 175.828 23.1016 174.727 23.1016C173.613 23.1016 172.811 23.7754 172.816 24.7422ZM178.945 31.9727V21.5312H179.859V31.9727H178.945ZM188.133 22.0469C189.691 22.0352 190.811 22.8965 190.805 24.168C190.811 25.4395 189.691 26.3066 188.133 26.3008C186.574 26.3066 185.461 25.4395 185.461 24.168C185.461 22.8965 186.574 22.0352 188.133 22.0469ZM184.676 27.1914C186.633 27.1973 189.311 27.1562 191.625 26.8164L191.684 27.5078C190.688 27.6895 189.656 27.8008 188.648 27.8652V31.6328H187.734V27.918C186.674 27.9648 185.672 27.9707 184.805 27.9766L184.676 27.1914ZM186.363 24.168C186.352 24.9824 187.096 25.5449 188.133 25.5391C189.182 25.5449 189.932 24.9824 189.926 24.168C189.932 23.3594 189.182 22.7852 188.133 22.7969C187.096 22.7852 186.352 23.3594 186.363 24.168ZM192.387 31.9609V21.543H193.289V31.9609H192.387ZM203.66 21.5312V31.9492H202.734V21.5312H203.66ZM195.281 29.2188C196.828 28.5156 198.012 26.7578 198.012 24.9297V24.0977H195.562V23.3477H198V21.7305H198.914V23.3477H201.34V24.0977H198.914V24.9297C198.914 26.6758 200.133 28.3633 201.703 29.0312L201.188 29.7461C199.98 29.2129 198.967 28.0879 198.48 26.7109C198.012 28.1641 197.004 29.3652 195.797 29.9336L195.281 29.2188ZM206.168 27.4258C206.174 25.3398 206.736 23.5996 207.75 22.1289H208.652C207.855 23.2188 207.217 25.457 207.211 27.4258C207.217 29.4004 207.855 31.6387 208.652 32.7344H207.75C206.736 31.2578 206.174 29.5176 206.168 27.4258ZM210.879 22.1992V23.8516H213.199V22.1992H214.066V27.0508H210.012V22.1992H210.879ZM210.879 26.2891H213.199V24.5898H210.879V26.2891ZM211.359 29.1836V28.4219H218.379V31.9492H217.477V29.1836H211.359ZM215.25 27.7305V21.7422H216.117V24.25H217.5V21.543H218.379V27.7891H217.5V25.0117H216.117V27.7305H215.25ZM229.43 27.0508V27.8008H225.188V29.8398H224.273V27.8008H219.891V27.0508H229.43ZM221.109 31.7266V28.8789H222.023V30.9531H228.363V31.7266H221.109ZM221.168 26.0312V21.8711H222.082V23.207H227.238V21.8711H228.152V26.0312H221.168ZM222.082 25.2812H227.238V23.9102H222.082V25.2812ZM233.707 22.0469C235.266 22.0352 236.385 22.8965 236.379 24.168C236.385 25.4395 235.266 26.3066 233.707 26.3008C232.148 26.3066 231.035 25.4395 231.035 24.168C231.035 22.8965 232.148 22.0352 233.707 22.0469ZM230.25 27.1914C232.207 27.1973 234.885 27.1562 237.199 26.8164L237.258 27.5078C236.262 27.6895 235.23 27.8008 234.223 27.8652V31.6328H233.309V27.918C232.248 27.9648 231.246 27.9707 230.379 27.9766L230.25 27.1914ZM231.938 24.168C231.926 24.9824 232.67 25.5449 233.707 25.5391C234.756 25.5449 235.506 24.9824 235.5 24.168C235.506 23.3594 234.756 22.7852 233.707 22.7969C232.67 22.7852 231.926 23.3594 231.938 24.168ZM237.961 31.9609V21.543H238.863V31.9609H237.961ZM243.164 27.4258C243.158 29.5117 242.596 31.252 241.582 32.7227H240.68C241.477 31.6328 242.115 29.3945 242.121 27.4258C242.115 25.4512 241.477 23.2129 240.68 22.1172H241.582C242.596 23.5938 243.158 25.334 243.164 27.4258ZM254.262 26.3711V27.0977H244.723V26.3711H254.262ZM245.871 28.6211V27.9297H253.066V30.1445H246.809V31.1406H253.406V31.8086H245.883V29.5117H252.152V28.6211H245.871ZM245.93 22.5156V21.8477H253.031V24.0039H246.879V24.918H253.219V25.5859H245.965V23.3711H252.105V22.5156H245.93ZM267.867 25.6914V26.4648H266.18V31.9492H265.266V21.5312H266.18V25.6914H267.867ZM258.551 29.3008V22.5625H259.465V28.5273C260.988 28.5273 262.541 28.4102 264.258 28.0469L264.375 28.832C262.576 29.1953 260.959 29.3008 259.383 29.3008H258.551ZM273.832 22.4805V23.2539H269.871V25.4102H273.598V26.1602H269.871V28.6797C271.752 28.6797 273.07 28.6094 274.629 28.3398L274.734 29.1016C273.105 29.377 271.74 29.4355 269.766 29.4414H268.945V22.4805H273.832ZM275.637 31.9492V21.5312H276.551V25.7266H278.297V26.5117H276.551V31.9492H275.637ZM287.754 21.5312V31.9492H286.852V26.5586H285.352V31.4102H284.484V21.7656H285.352V25.7734H286.852V21.5312H287.754ZM279.387 29.2539V22.8086H280.301V28.4336C281.332 28.4277 282.445 28.3516 283.711 28.0938L283.828 28.9141C282.375 29.1777 281.18 29.2539 280.031 29.2539H279.387ZM297.656 24.6953V25.4336H290.52V21.918H291.434V24.6953H297.656ZM289.219 27.6016V26.8516H298.758V27.6016H289.219ZM290.461 31.6914V28.668H291.375V30.9297H297.715V31.6914H290.461ZM311.25 21.5312V27.6367H310.324V24.918H308.215V24.1445H310.324V21.5312H311.25ZM302.66 26.8047C304.195 26.2598 305.309 24.8652 305.309 23.3828V22.9727H302.953V22.2109H308.566V22.9727H306.234V23.3828C306.234 24.7246 307.277 26.0254 308.801 26.5703L308.32 27.2969C307.148 26.8691 306.24 25.9961 305.789 24.918C305.338 26.125 304.377 27.0801 303.141 27.5312L302.66 26.8047ZM304.441 31.8086V28.1523H311.25V31.8086H304.441ZM305.355 31.0586H310.348V28.8906H305.355V31.0586ZM318.211 22.5039C318.217 23.9746 320.127 25.2402 322.008 25.5039L321.633 26.2539C320.016 25.9844 318.41 25.0879 317.742 23.8105C317.074 25.0996 315.475 25.9844 313.852 26.2539L313.477 25.5039C315.357 25.2402 317.262 23.998 317.262 22.5039V21.9062H318.211V22.5039ZM312.984 28.1758V27.4023H322.477V28.1758H318.164V31.9492H317.262V28.1758H312.984ZM331.957 21.5312V27.1211H331.043V21.5312H331.957ZM323.602 24.4375C323.596 23.0137 324.75 22.0352 326.332 22.0469C327.914 22.0352 329.057 23.0137 329.062 24.4375C329.057 25.8555 327.914 26.834 326.332 26.8281C324.75 26.834 323.596 25.8555 323.602 24.4375ZM324.504 24.4375C324.492 25.3867 325.26 26.0605 326.332 26.0664C327.393 26.0605 328.16 25.3867 328.16 24.4375C328.16 23.4824 327.393 22.8145 326.332 22.8203C325.26 22.8145 324.492 23.4824 324.504 24.4375ZM325.207 31.8086V27.6484H326.121V28.9141H331.043V27.6484H331.957V31.8086H325.207ZM326.121 31.0586H331.043V29.6523H326.121V31.0586ZM342.316 21.5312V31.9492H341.402V21.5312H342.316ZM334.406 29.2656V22.5625H335.309V28.4688C336.902 28.457 338.543 28.334 340.289 27.9648L340.418 28.75C338.566 29.1367 336.92 29.2656 335.25 29.2656H334.406ZM352.16 21.5312V25.6562H353.906V26.4297H352.16V31.9727H351.246V21.5312H352.16ZM344.555 29.3594V22.5508H349.418V23.3125H345.469V28.5859C347.355 28.5801 348.686 28.498 350.238 28.2109L350.355 29.0078C348.721 29.3008 347.355 29.3594 345.375 29.3594H344.555ZM355.57 31.0703C355.16 31.0645 354.809 30.7246 354.82 30.3086C354.809 29.8984 355.16 29.5586 355.57 29.5586C355.986 29.5586 356.326 29.8984 356.32 30.3086C356.326 30.7246 355.986 31.0645 355.57 31.0703ZM26.9531 42.8203C26.2969 42.8203 25.7578 42.2812 25.7578 41.6133C25.7578 40.957 26.2969 40.418 26.9531 40.418C27.6211 40.418 28.1602 40.957 28.1602 41.6133C28.1602 42.2812 27.6211 42.8203 26.9531 42.8203ZM39.832 36.293C41.4668 36.2988 42.627 37.2949 42.6328 38.7422C42.627 40.1953 41.4668 41.1855 39.832 41.1914C38.1855 41.1855 37.0137 40.1953 37.0195 38.7422C37.0137 37.2949 38.1855 36.2988 39.832 36.293ZM36.4805 42.8906C38.4023 42.8965 41.0566 42.8789 43.3594 42.5391L43.4297 43.2188C41.0449 43.6641 38.4844 43.6758 36.6094 43.6758L36.4805 42.8906ZM37.9219 38.7422C37.916 39.7148 38.7188 40.3828 39.832 40.3828C40.9336 40.3828 41.7363 39.7148 41.7305 38.7422C41.7363 37.7754 40.9336 37.1016 39.832 37.1016C38.7188 37.1016 37.916 37.7754 37.9219 38.7422ZM44.0508 45.9727V35.5312H44.9648V45.9727H44.0508ZM52.2188 36.5625V43.3359H47.4023V36.5625H52.2188ZM48.3047 42.5859H51.3164V37.3008H48.3047V42.5859ZM54.457 45.9727V35.5312H55.3828V45.9727H54.457ZM58.2656 45.0703C57.8555 45.0645 57.5039 44.7246 57.5156 44.3086C57.5039 43.8984 57.8555 43.5586 58.2656 43.5586C58.6816 43.5586 59.0215 43.8984 59.0156 44.3086C59.0215 44.7246 58.6816 45.0645 58.2656 45.0703ZM57.5273 39.5977C57.5156 39.1875 57.8672 38.8477 58.2773 38.8477C58.6934 38.8477 59.0332 39.1875 59.0273 39.5977C59.0332 40.0137 58.6934 40.3535 58.2773 40.3594C57.8672 40.3535 57.5156 40.0137 57.5273 39.5977ZM66.5977 36.5156V45H65.5312V37.6172H65.4844L63.4219 38.9883V37.9219L65.5312 36.5156H66.5977ZM71.6367 45.1172C69.7559 45.1172 68.666 43.5352 68.6719 40.7578C68.666 38.0039 69.7676 36.3984 71.6367 36.3984C73.5 36.3984 74.6016 38.0039 74.6016 40.7578C74.6016 43.5352 73.5176 45.1172 71.6367 45.1172ZM69.6914 40.7578C69.6973 42.9551 70.4062 44.1797 71.6367 44.1797C72.8613 44.1797 73.5762 42.9551 73.5703 40.7578C73.5762 38.5605 72.8555 37.3184 71.6367 37.3125C70.418 37.3184 69.6973 38.5605 69.6914 40.7578ZM78.7852 45.1172C76.9043 45.1172 75.8145 43.5352 75.8203 40.7578C75.8145 38.0039 76.916 36.3984 78.7852 36.3984C80.6484 36.3984 81.75 38.0039 81.75 40.7578C81.75 43.5352 80.666 45.1172 78.7852 45.1172ZM76.8398 40.7578C76.8457 42.9551 77.5547 44.1797 78.7852 44.1797C80.0098 44.1797 80.7246 42.9551 80.7188 40.7578C80.7246 38.5605 80.0039 37.3184 78.7852 37.3125C77.5664 37.3184 76.8457 38.5605 76.8398 40.7578ZM91.418 35.5312V41.6367H90.4922V38.918H88.3828V38.1445H90.4922V35.5312H91.418ZM82.8281 40.8047C84.3633 40.2598 85.4766 38.8652 85.4766 37.3828V36.9727H83.1211V36.2109H88.7344V36.9727H86.4023V37.3828C86.4023 38.7246 87.4453 40.0254 88.9688 40.5703L88.4883 41.2969C87.3164 40.8691 86.4082 39.9961 85.957 38.918C85.5059 40.125 84.5449 41.0801 83.3086 41.5312L82.8281 40.8047ZM84.6094 45.8086V42.1523H91.418V45.8086H84.6094ZM85.5234 45.0586H90.5156V42.8906H85.5234V45.0586ZM102.082 35.5312V45.9492H101.191V35.5312H102.082ZM93.2812 40.0312C93.2871 37.8164 94.166 36.416 95.5195 36.4102C96.7852 36.416 97.6406 37.6348 97.7578 39.5977H99.1055V35.7539H99.9844V45.4219H99.1055V40.3594H97.7637C97.6758 42.3867 96.8027 43.6582 95.5195 43.6523C94.166 43.6582 93.2871 42.2461 93.2812 40.0312ZM94.1484 40.0312C94.1367 41.7188 94.6758 42.7852 95.5195 42.7734C96.3691 42.7852 96.9082 41.7188 96.9023 40.0312C96.9082 38.3379 96.3691 37.2773 95.5195 37.2773C94.6758 37.2773 94.1367 38.3379 94.1484 40.0312ZM114.598 35.5312V39.7734H116.285V40.5469H114.598V45.9492H113.684V35.5312H114.598ZM106.605 43.2422C109.295 41.9062 110.76 39.8965 110.971 37.4297H107.086V36.6562H111.902C111.896 39.6035 110.514 42.293 107.121 43.9688L106.605 43.2422ZM125.156 35.5312V39.832H126.738V40.6055H125.156V45.9492H124.23V35.5312H125.156ZM116.871 43.0664C118.441 41.4551 119.08 39.5156 119.197 37.4414H117.199V36.668H120.07C120.059 39.1465 119.502 41.5957 117.609 43.5938L116.871 43.0664ZM119.859 43.7695C121.488 41.9297 121.975 39.6152 122.062 37.4414H120.398V36.668H122.93C122.924 39.1406 122.561 42.0176 120.609 44.2852L119.859 43.7695ZM132.023 35.6602C134.338 35.6602 135.697 36.3047 135.703 37.4648C135.697 38.6367 134.338 39.2754 132.023 39.2812C129.697 39.2754 128.332 38.6367 128.332 37.4648C128.332 36.3047 129.697 35.6602 132.023 35.6602ZM127.277 40.7109V39.9727H136.77V40.7109H132.469V41.6953H135.551V44.0273H129.363V45.1055H135.867V45.832H128.449V43.3477H134.648V42.3984H128.426V41.6953H131.555V40.7109H127.277ZM129.293 37.4648C129.281 38.1797 130.295 38.5664 132.023 38.5781C133.752 38.5664 134.76 38.1797 134.766 37.4648C134.76 36.7793 133.752 36.375 132.023 36.3633C130.295 36.375 129.281 36.7793 129.293 37.4648ZM142.875 36.5039C142.881 37.9746 144.791 39.2402 146.672 39.5039L146.297 40.2539C144.68 39.9844 143.074 39.0879 142.406 37.8105C141.738 39.0996 140.139 39.9844 138.516 40.2539L138.141 39.5039C140.021 39.2402 141.926 37.998 141.926 36.5039V35.9062H142.875V36.5039ZM137.648 42.1758V41.4023H147.141V42.1758H142.828V45.9492H141.926V42.1758H137.648ZM157.547 41.2734V42.0352H148.008V41.2734H152.32V40.1719H149.25V37.6289H155.391V36.5508H149.215V35.8008H156.316V38.3203H150.164V39.4336H156.539V40.1719H153.223V41.2734H157.547ZM149.074 43.582V42.832H156.375V45.8555H155.449V43.582H149.074ZM170.18 40.3711V41.1211H166.406V36.5273H170.051V37.2773H167.332V40.3711H170.18ZM161.402 44.6133V43.8516H165.68V41.6484H166.582V43.8516H170.941V44.6133H161.402ZM162.234 41.1211V36.5273H165.773V37.2891H163.148V40.3594C164.027 40.3535 164.9 40.2891 165.867 40.0664L165.949 40.8398C164.807 41.0977 163.846 41.127 162.809 41.1211H162.234ZM176.027 36.668V40.3125H173.016V42.6797C174.217 42.6738 175.348 42.627 176.695 42.3984L176.777 43.1484C175.295 43.4062 174.117 43.4531 172.805 43.4531H172.125V39.5508H175.137V37.4414H172.102V36.668H176.027ZM177.422 45.4102V35.7656H178.266V39.6562H179.801V35.5312H180.68V45.9492H179.801V40.418H178.266V45.4102H177.422ZM188.531 36.5156V45H187.465V37.6172H187.418L185.355 38.9883V37.9219L187.465 36.5156H188.531ZM193.57 45.1172C191.689 45.1172 190.6 43.5352 190.605 40.7578C190.6 38.0039 191.701 36.3984 193.57 36.3984C195.434 36.3984 196.535 38.0039 196.535 40.7578C196.535 43.5352 195.451 45.1172 193.57 45.1172ZM191.625 40.7578C191.631 42.9551 192.34 44.1797 193.57 44.1797C194.795 44.1797 195.51 42.9551 195.504 40.7578C195.51 38.5605 194.789 37.3184 193.57 37.3125C192.352 37.3184 191.631 38.5605 191.625 40.7578ZM200.719 45.1172C198.838 45.1172 197.748 43.5352 197.754 40.7578C197.748 38.0039 198.85 36.3984 200.719 36.3984C202.582 36.3984 203.684 38.0039 203.684 40.7578C203.684 43.5352 202.6 45.1172 200.719 45.1172ZM198.773 40.7578C198.779 42.9551 199.488 44.1797 200.719 44.1797C201.943 44.1797 202.658 42.9551 202.652 40.7578C202.658 38.5605 201.938 37.3184 200.719 37.3125C199.5 37.3184 198.779 38.5605 198.773 40.7578ZM213.352 35.5312V41.707H212.426V40.0664H209.988V40.957H205.207V36.3281H209.988V37.2305H212.426V35.5312H213.352ZM206.121 40.207H209.086V37.0781H206.121V40.207ZM206.402 43.9805C206.396 42.7266 207.727 42.0059 209.895 42.0117C212.057 42.0059 213.387 42.7266 213.387 43.9805C213.387 45.2227 212.057 45.9258 209.895 45.9258C207.727 45.9258 206.396 45.2227 206.402 43.9805ZM207.316 43.9805C207.311 44.7363 208.295 45.1992 209.895 45.1992C211.488 45.1992 212.473 44.7363 212.473 43.9805C212.473 43.1953 211.488 42.7383 209.895 42.7266C208.295 42.7383 207.311 43.1953 207.316 43.9805ZM209.988 39.293H212.426V37.9922H209.988V39.293ZM227.59 40.4062V41.168H223.289V42.2812C225.252 42.3691 226.418 43.0078 226.43 44.1094C226.418 45.2754 225.076 45.9258 222.844 45.9258C220.582 45.9258 219.24 45.2754 219.246 44.1094C219.24 43.0078 220.4 42.3691 222.387 42.2812V41.168H218.098V40.4062H227.59ZM218.637 39.0469C220.441 38.8594 222.182 37.9395 222.246 36.7734H218.965V36.0234H226.746V36.7734H223.441C223.506 37.9395 225.229 38.8594 227.062 39.0469L226.723 39.7734C225.018 39.5684 223.418 38.8008 222.844 37.6465C222.27 38.8008 220.682 39.5684 218.965 39.7734L218.637 39.0469ZM220.184 44.1094C220.172 44.8008 221.174 45.2168 222.844 45.2109C224.496 45.2168 225.498 44.8008 225.504 44.1094C225.498 43.4004 224.496 42.9961 222.844 42.9844C221.174 42.9961 220.172 43.4004 220.184 44.1094ZM240.082 35.543V43.1836H239.168V35.543H240.082ZM231.586 40.957C233.162 40.3418 234.234 38.8184 234.234 37.1719V36.1289H235.172V37.1719C235.16 38.7598 236.244 40.1836 237.797 40.7461L237.316 41.4844C236.109 41.0215 235.172 40.084 234.709 38.8828C234.258 40.1602 233.309 41.1855 232.09 41.6719L231.586 40.957ZM233.355 45.7266V42.4805H234.27V44.9531H240.41V45.7266H233.355ZM245.379 37.5117C245.385 38.877 246.404 40.0957 247.934 40.5938L247.5 41.3203C246.299 40.9219 245.391 40.0957 244.939 39.0469C244.494 40.2422 243.533 41.1738 242.285 41.625L241.816 40.8867C243.375 40.3594 244.465 39.0176 244.477 37.5117V37.0664H242.098V36.3047H247.723V37.0664H245.379V37.5117ZM243.199 44.0039C243.205 42.8027 244.512 42.1055 246.656 42.1055C248.795 42.1055 250.09 42.8027 250.09 44.0039C250.09 45.2227 248.795 45.9258 246.656 45.9258C244.512 45.9258 243.205 45.2227 243.199 44.0039ZM244.125 44.0039C244.113 44.7539 245.086 45.1934 246.656 45.1875C248.232 45.1934 249.193 44.7539 249.199 44.0039C249.193 43.2773 248.232 42.8438 246.656 42.8438C245.086 42.8438 244.113 43.2773 244.125 44.0039ZM249.082 41.8242V35.5312H249.996V38.1914H251.566V38.9648H249.996V41.8242H249.082ZM260.812 35.5312V45.9727H259.887V35.5312H260.812ZM252.609 39.9727C252.615 37.7578 253.717 36.3457 255.27 36.3398C256.816 36.3457 257.936 37.7578 257.93 39.9727C257.936 42.1934 256.816 43.5996 255.27 43.5938C253.717 43.5996 252.615 42.1934 252.609 39.9727ZM253.5 39.9727C253.5 41.666 254.227 42.7793 255.27 42.7734C256.318 42.7793 257.039 41.666 257.039 39.9727C257.039 38.2793 256.318 37.166 255.27 37.1602C254.227 37.166 253.5 38.2793 253.5 39.9727ZM273.891 36.0938V36.9727C273.891 37.9746 273.891 39.0938 273.604 40.6641H275.133V41.4258H265.605V40.6641H272.672C272.807 39.9961 272.883 39.4043 272.924 38.8652L266.684 39.1523L266.566 38.3672L272.965 38.1738C272.982 37.7461 272.977 37.3477 272.977 36.9727V36.8555H266.812V36.0938H273.891ZM266.812 45.7266V42.4688H267.738V44.9531H274.113V45.7266H266.812ZM287.625 35.5312V43.2891H286.699V40.2656H284.918V39.4922H286.699V38.2852H284.918V37.5234H286.699V35.5312H287.625ZM279.012 40.9219C279.428 40.9219 279.879 40.916 280.359 40.9102V37.1367H279.305V36.3867H284.836V37.1367H283.77V40.7871C284.25 40.7578 284.725 40.7168 285.176 40.6641L285.223 41.3555C283.201 41.666 280.822 41.7012 279.129 41.707L279.012 40.9219ZM280.91 45.7266V42.6445H281.836V44.9531H287.906V45.7266H280.91ZM281.25 40.8926C281.783 40.8809 282.334 40.8633 282.879 40.8398V37.1367H281.25V40.8926ZM298.289 35.5312V45.9492H297.398V35.5312H298.289ZM289.488 40.0312C289.494 37.8164 290.373 36.416 291.727 36.4102C292.992 36.416 293.848 37.6348 293.965 39.5977H295.312V35.7539H296.191V45.4219H295.312V40.3594H293.971C293.883 42.3867 293.01 43.6582 291.727 43.6523C290.373 43.6582 289.494 42.2461 289.488 40.0312ZM290.355 40.0312C290.344 41.7188 290.883 42.7852 291.727 42.7734C292.576 42.7852 293.115 41.7188 293.109 40.0312C293.115 38.3379 292.576 37.2773 291.727 37.2773C290.883 37.2773 290.344 38.3379 290.355 40.0312ZM312.27 40.7695V41.5312H302.742V40.7695H307.031V39.1641H307.934V40.7695H312.27ZM303.316 38.9883C305.156 38.7363 307.02 37.5762 307.02 36.1875V35.6953H307.945V36.1875C307.945 37.5762 309.82 38.7363 311.66 38.9883L311.285 39.7266C309.709 39.4512 308.139 38.6133 307.488 37.4121C306.832 38.625 305.268 39.4512 303.668 39.7266L303.316 38.9883ZM303.797 43.2891V42.5508H311.062V45.9492H310.137V43.2891H303.797ZM321.258 35.5312V38.3086H322.828V39.0938H321.258V41.8125H320.344V35.5312H321.258ZM313.137 37.4062V36.6445H315.785V35.4492H316.699V36.6445H319.348V37.4062H313.137ZM313.734 39.7734C313.729 38.6602 314.73 37.9219 316.242 37.9219C317.736 37.9219 318.738 38.6602 318.75 39.7734C318.738 40.9043 317.736 41.6367 316.242 41.6367C314.73 41.6367 313.729 40.9043 313.734 39.7734ZM314.613 39.7734C314.607 40.4824 315.258 40.9219 316.242 40.9336C317.215 40.9219 317.871 40.4824 317.883 39.7734C317.871 39.0938 317.215 38.6367 316.242 38.6367C315.258 38.6367 314.607 39.0938 314.613 39.7734ZM314.684 45.8086V42.4102H321.258V45.8086H314.684ZM315.586 45.0586H320.344V43.1484H315.586V45.0586ZM328.23 35.7188C330.545 35.7188 331.904 36.3574 331.91 37.5117C331.904 38.6953 330.545 39.334 328.23 39.3398C325.904 39.334 324.539 38.6953 324.539 37.5117C324.539 36.3574 325.904 35.7188 328.23 35.7188ZM323.484 40.793V40.043H332.977V40.793H323.484ZM324.633 42.3984V41.6953H331.758V44.0273H325.57V45.1055H332.074V45.832H324.656V43.3477H330.855V42.3984H324.633ZM325.5 37.5117C325.488 38.2383 326.502 38.6367 328.23 38.6367C329.959 38.6367 330.967 38.2383 330.973 37.5117C330.967 36.8262 329.959 36.416 328.23 36.4102C326.502 36.416 325.488 36.8262 325.5 37.5117ZM340.277 36.293C341.912 36.2988 343.072 37.2949 343.078 38.7422C343.072 40.1953 341.912 41.1855 340.277 41.1914C338.631 41.1855 337.459 40.1953 337.465 38.7422C337.459 37.2949 338.631 36.2988 340.277 36.293ZM336.926 42.8906C338.848 42.8965 341.502 42.8789 343.805 42.5391L343.875 43.2188C341.49 43.6641 338.93 43.6758 337.055 43.6758L336.926 42.8906ZM338.367 38.7422C338.361 39.7148 339.164 40.3828 340.277 40.3828C341.379 40.3828 342.182 39.7148 342.176 38.7422C342.182 37.7754 341.379 37.1016 340.277 37.1016C339.164 37.1016 338.361 37.7754 338.367 38.7422ZM344.496 45.9727V35.5312H345.41V45.9727H344.496ZM352.664 36.5625V43.3359H347.848V36.5625H352.664ZM348.75 42.5859H351.762V37.3008H348.75V42.5859ZM354.902 45.9727V35.5312H355.828V45.9727H354.902ZM365.754 35.5312V38.2031H367.324V38.9883H365.754V41.5898H364.84V35.5312H365.754ZM357.633 37.3711V36.6094H360.281V35.4375H361.195V36.6094H363.844V37.3711H357.633ZM358.23 39.6797C358.225 38.5664 359.227 37.8574 360.738 37.8516C362.232 37.8574 363.234 38.5664 363.246 39.6797C363.234 40.793 362.232 41.5137 360.738 41.5078C359.227 41.5137 358.225 40.793 358.23 39.6797ZM359.109 39.6797C359.104 40.3594 359.754 40.8047 360.738 40.8047C361.711 40.8047 362.367 40.3594 362.379 39.6797C362.367 39.0059 361.711 38.5547 360.738 38.5664C359.754 38.5547 359.104 39.0059 359.109 39.6797ZM359.168 45.8086V42.0469H360.082V43.1602H364.84V42.0469H365.754V45.8086H359.168ZM360.082 45.0703H364.84V43.8867H360.082V45.0703ZM376.57 35.5312V45.9492H375.656V35.5312H376.57ZM368.66 43.2656V36.5625H369.562V42.4688C371.156 42.457 372.797 42.334 374.543 41.9648L374.672 42.75C372.82 43.1367 371.174 43.2656 369.504 43.2656H368.66ZM386.414 35.5312V39.6562H388.16V40.4297H386.414V45.9727H385.5V35.5312H386.414ZM378.809 43.3594V36.5508H383.672V37.3125H379.723V42.5859C381.609 42.5801 382.939 42.498 384.492 42.2109L384.609 43.0078C382.975 43.3008 381.609 43.3594 379.629 43.3594H378.809ZM389.824 45.0703C389.414 45.0645 389.062 44.7246 389.074 44.3086C389.062 43.8984 389.414 43.5586 389.824 43.5586C390.24 43.5586 390.58 43.8984 390.574 44.3086C390.58 44.7246 390.24 45.0645 389.824 45.0703ZM26.9531 56.8203C26.2969 56.8203 25.7578 56.2812 25.7578 55.6133C25.7578 54.957 26.2969 54.418 26.9531 54.418C27.6211 54.418 28.1602 54.957 28.1602 55.6133C28.1602 56.2812 27.6211 56.8203 26.9531 56.8203ZM45.0352 49.5312V59.9492H44.1094V49.5312H45.0352ZM36.5508 57.2422C39.3691 55.9062 40.8105 53.9082 41.0156 51.418H37.0312V50.668H41.9531C41.9414 53.6621 40.5469 56.3164 37.0547 57.9922L36.5508 57.2422ZM52.1367 50.832C52.1309 52.1152 53.877 53.1582 55.7227 53.4102L55.3594 54.1367C53.6777 53.8906 52.1016 53.0527 51.5391 51.834C50.9707 53.0527 49.4062 53.8906 47.7188 54.1367L47.3789 53.4102C49.2129 53.1582 50.9473 52.1152 50.9414 50.832V50.8086H47.6602V50.0586H55.4414V50.8086H52.1367V50.832ZM46.7812 55.6602V54.8984H56.3203V55.6602H52.0781V57.793H51.1641V55.6602H46.7812ZM48 59.7266V56.75H48.9258V58.9531H55.2539V59.7266H48ZM58.2656 59.0703C57.8555 59.0645 57.5039 58.7246 57.5156 58.3086C57.5039 57.8984 57.8555 57.5586 58.2656 57.5586C58.6816 57.5586 59.0215 57.8984 59.0156 58.3086C59.0215 58.7246 58.6816 59.0645 58.2656 59.0703ZM57.5273 53.5977C57.5156 53.1875 57.8672 52.8477 58.2773 52.8477C58.6934 52.8477 59.0332 53.1875 59.0273 53.5977C59.0332 54.0137 58.6934 54.3535 58.2773 54.3594C57.8672 54.3535 57.5156 54.0137 57.5273 53.5977ZM71.8125 49.5312V54.9453H70.9102V49.5312H71.8125ZM63.375 54.2305C64.9277 53.7148 66.041 52.4375 66.0469 51.0078V50.8906H63.6094V50.1289H69.375V50.8906H66.9727V51.0078C66.9785 52.3613 68.0859 53.5566 69.6562 54.0195L69.1992 54.7344C67.9688 54.3477 66.9902 53.5215 66.5273 52.4551C66.0762 53.6211 65.0801 54.5293 63.8086 54.957L63.375 54.2305ZM65.0508 56.1758V55.4492H71.8242V57.9336H65.9766V59.0938H72.1992V59.832H65.0742V57.2422H70.9102V56.1758H65.0508ZM75.0352 50.1758V51.8516H77.9414V50.1758H78.8438V51.2422H81.3047V49.5312H82.2305V55.8477H81.3047V54.1484H78.8438V55.0742H74.1211V50.1758H75.0352ZM75.0352 54.3242H77.9414V52.5898H75.0352V54.3242ZM75.2812 58.0039C75.2754 56.7617 76.6055 56.0586 78.7734 56.0469C80.9355 56.0586 82.2656 56.7617 82.2656 58.0039C82.2656 59.2227 80.9355 59.9258 78.7734 59.9258C76.6055 59.9258 75.2754 59.2227 75.2812 58.0039ZM76.1953 58.0039C76.1895 58.7539 77.1738 59.1992 78.7734 59.1992C80.3672 59.1992 81.3516 58.7539 81.3516 58.0039C81.3516 57.2246 80.3672 56.7793 78.7734 56.7734C77.1738 56.7793 76.1895 57.2246 76.1953 58.0039ZM78.8438 53.3867H81.3047V51.9922H78.8438V53.3867ZM89.7422 50.3398V50.8906C89.7363 51.5762 89.7363 52.6133 89.4727 53.9727L88.5469 53.9023C88.7988 52.6602 88.8223 51.7754 88.834 51.1133H84.5508V50.3398H89.7422ZM83.9062 54.9453C84.5801 54.9453 85.3418 54.9395 86.1445 54.916V52.6484H87.0586V54.8867C88.2129 54.8398 89.4082 54.7578 90.4922 54.6055L90.5508 55.2852C88.3652 55.6602 85.8574 55.7012 84 55.707L83.9062 54.9453ZM85.5117 59.7266V56.668H86.4375V58.9531H92.4727V59.7266H85.5117ZM91.1953 57.3711V49.5312H92.1328V52.9297H93.6562V53.7148H92.1328V57.3711H91.1953ZM102.938 49.5312V59.9727H102.023V49.5312H102.938ZM94.9219 51.2656V50.5039H99.7734V54.207H95.8828V56.668C97.6113 56.6738 99.1523 56.5918 101.016 56.293L101.109 57.0664C99.1934 57.3652 97.6113 57.4414 95.8125 57.4414H94.9453V53.457H98.8477V51.2656H94.9219ZM108.258 51.7695C108.264 53.0645 109.383 54.2363 110.918 54.6875L110.473 55.4023C109.266 55.0391 108.305 54.2539 107.83 53.2285C107.385 54.3652 106.43 55.2617 105.188 55.6719L104.742 54.9688C106.271 54.4531 107.35 53.1816 107.355 51.7695V51.5469H105V50.8086H107.355V49.4844H108.281V50.8086H110.613V51.5469H108.258V51.7695ZM106.395 58.0273C106.389 56.8145 107.719 56.123 109.887 56.1289C112.049 56.123 113.379 56.8145 113.379 58.0273C113.379 59.2344 112.049 59.9258 109.887 59.9258C107.719 59.9258 106.389 59.2344 106.395 58.0273ZM107.309 58.0273C107.303 58.7539 108.287 59.1992 109.887 59.1992C111.486 59.1992 112.465 58.7539 112.465 58.0273C112.465 57.2832 111.486 56.8555 109.887 56.8438C108.287 56.8555 107.303 57.2832 107.309 58.0273ZM110.285 53.2812V52.5195H112.418V49.5312H113.344V55.8477H112.418V53.2812H110.285ZM124.008 49.5312V59.9492H123.117V49.5312H124.008ZM115.207 54.0312C115.213 51.8164 116.092 50.416 117.445 50.4102C118.711 50.416 119.566 51.6348 119.684 53.5977H121.031V49.7539H121.91V59.4219H121.031V54.3594H119.689C119.602 56.3867 118.729 57.6582 117.445 57.6523C116.092 57.6582 115.213 56.2461 115.207 54.0312ZM116.074 54.0312C116.062 55.7188 116.602 56.7852 117.445 56.7734C118.295 56.7852 118.834 55.7188 118.828 54.0312C118.834 52.3379 118.295 51.2773 117.445 51.2773C116.602 51.2773 116.062 52.3379 116.074 54.0312ZM129.117 52.332C129.111 54.2188 130.324 56.1172 131.836 56.8086L131.285 57.5586C130.102 56.9492 129.123 55.707 128.66 54.2246C128.197 55.7832 127.219 57.1191 126.035 57.7461L125.438 57.0078C126.967 56.2578 128.174 54.2539 128.18 52.332V50.4336H129.117V52.332ZM130.699 53.8438V53.0938H133.172V49.5312H134.086V59.9727H133.172V53.8438H130.699ZM143.543 56.1172C145.775 56.1172 147.193 56.8203 147.199 58.0273C147.193 59.2227 145.775 59.9258 143.543 59.9258C141.311 59.9258 139.893 59.2227 139.898 58.0273C139.893 56.8203 141.311 56.1172 143.543 56.1172ZM138.844 55.1445V54.3945H142.77V52.3789H143.672V54.3945H148.324V55.1445H138.844ZM139.969 50.8203V50.0703H147.117V50.9492C147.111 51.793 147.111 52.6367 146.824 53.7148L145.922 53.6094C146.203 52.5371 146.203 51.7637 146.203 50.9492V50.8203H139.969ZM140.812 58.0273C140.807 58.7539 141.885 59.1992 143.543 59.1992C145.207 59.1992 146.273 58.7539 146.285 58.0273C146.273 57.2832 145.207 56.8262 143.543 56.8203C141.885 56.8262 140.807 57.2832 140.812 58.0273ZM158.098 49.5312V59.9492H157.195V54.5H155.754V59.4336H154.875V49.8125H155.754V53.7383H157.195V49.5312H158.098ZM149.215 57.0664C151.635 55.7129 152.631 53.8086 152.789 51.6523H149.613V50.8906H153.691C153.68 53.5391 152.748 56.041 149.754 57.7109L149.215 57.0664ZM167.719 49.543V52.9766H169.289V53.75H167.719V57.3477H166.805V49.543H167.719ZM159.598 51.5703V50.8203H162.246V49.543H163.16V50.8203H165.809V51.5703H159.598ZM160.195 54.0898C160.189 52.9062 161.197 52.1445 162.703 52.1445C164.191 52.1445 165.199 52.9062 165.211 54.0898C165.199 55.2617 164.191 56.0176 162.703 56.0117C161.197 56.0176 160.189 55.2617 160.195 54.0898ZM161.074 54.0898C161.068 54.8223 161.719 55.2969 162.703 55.2852C163.676 55.2969 164.332 54.8223 164.344 54.0898C164.332 53.3457 163.676 52.8652 162.703 52.8711C161.719 52.8652 161.068 53.3457 161.074 54.0898ZM161.203 59.7266V56.7266H162.105V58.9531H168.199V59.7266H161.203ZM181.863 49.5312V59.9492H180.984V54.4883H179.449V59.4102H178.605V49.7656H179.449V53.7266H180.984V49.5312H181.863ZM173.344 57.3711V50.8086H177.246V51.5703H174.258V56.5859C175.693 56.5801 176.684 56.5273 177.844 56.293L177.926 57.0664C176.672 57.3242 175.611 57.3652 174.012 57.3711H173.344ZM191.473 49.543V52.9766H193.043V53.75H191.473V57.3477H190.559V49.543H191.473ZM183.352 51.5703V50.8203H186V49.543H186.914V50.8203H189.562V51.5703H183.352ZM183.949 54.0898C183.943 52.9062 184.951 52.1445 186.457 52.1445C187.945 52.1445 188.953 52.9062 188.965 54.0898C188.953 55.2617 187.945 56.0176 186.457 56.0117C184.951 56.0176 183.943 55.2617 183.949 54.0898ZM184.828 54.0898C184.822 54.8223 185.473 55.2969 186.457 55.2852C187.43 55.2969 188.086 54.8223 188.098 54.0898C188.086 53.3457 187.43 52.8652 186.457 52.8711C185.473 52.8652 184.822 53.3457 184.828 54.0898ZM184.957 59.7266V56.7266H185.859V58.9531H191.953V59.7266H184.957ZM199.137 50.4453V55.2734H194.25V50.4453H199.137ZM195.152 54.5352H198.234V51.207H195.152V54.5352ZM195.574 59.5977V56.3047H196.488V58.8359H202.629V59.5977H195.574ZM201.387 57.0312V49.543H202.301V57.0312H201.387ZM212.355 50.0469V50.7969C212.355 51.5703 212.355 52.5078 212.098 53.7617H213.609V54.5117H209.273V56.4336H212.426V59.9492H211.5V57.1953H205.055V56.4336H208.359V54.5117H204.07V53.7617H211.172C211.447 52.4902 211.447 51.5703 211.441 50.7969H205.277V50.0469H212.355ZM220.242 50.3398C221.777 50.3457 222.867 51.7578 222.879 53.9727C222.867 56.1934 221.777 57.5996 220.242 57.5938C218.695 57.5996 217.611 56.1934 217.617 53.9727C217.611 51.7578 218.695 50.3457 220.242 50.3398ZM218.484 53.9727C218.49 55.666 219.211 56.7793 220.242 56.7734C221.285 56.7793 221.988 55.666 221.988 53.9727C221.988 52.2793 221.285 51.166 220.242 51.1602C219.211 51.166 218.49 52.2793 218.484 53.9727ZM224.602 59.9492V49.5312H225.516V53.6914H227.262V54.4883H225.516V59.9492H224.602ZM237.328 54.6875V55.4258H227.824V54.6875H232.125V53.4688H229.031V50.0234H236.145V50.7617H229.934V52.7188H236.215V53.4688H233.016V54.6875H237.328ZM228.973 58.0625C228.967 56.873 230.32 56.1934 232.57 56.1875C234.803 56.1934 236.145 56.873 236.156 58.0625C236.145 59.2637 234.803 59.9375 232.57 59.9492C230.32 59.9375 228.967 59.2637 228.973 58.0625ZM229.91 58.0625C229.898 58.7949 230.9 59.2168 232.57 59.2109C234.223 59.2168 235.225 58.7949 235.23 58.0625C235.225 57.3418 234.223 56.9141 232.57 56.9141C230.9 56.9141 229.898 57.3418 229.91 58.0625ZM247.125 49.5312V59.9492H246.234V49.5312H247.125ZM238.324 54.0312C238.33 51.8164 239.209 50.416 240.562 50.4102C241.828 50.416 242.684 51.6348 242.801 53.5977H244.148V49.7539H245.027V59.4219H244.148V54.3594H242.807C242.719 56.3867 241.846 57.6582 240.562 57.6523C239.209 57.6582 238.33 56.2461 238.324 54.0312ZM239.191 54.0312C239.18 55.7188 239.719 56.7852 240.562 56.7734C241.412 56.7852 241.951 55.7188 241.945 54.0312C241.951 52.3379 241.412 51.2773 240.562 51.2773C239.719 51.2773 239.18 52.3379 239.191 54.0312ZM260.484 49.5312V59.9492H259.605V54.4883H258.07V59.4102H257.227V49.7656H258.07V53.7266H259.605V49.5312H260.484ZM251.965 57.3711V50.8086H255.867V51.5703H252.879V56.5859C254.314 56.5801 255.305 56.5273 256.465 56.293L256.547 57.0664C255.293 57.3242 254.232 57.3652 252.633 57.3711H251.965ZM270.094 49.543V52.9766H271.664V53.75H270.094V57.3477H269.18V49.543H270.094ZM261.973 51.5703V50.8203H264.621V49.543H265.535V50.8203H268.184V51.5703H261.973ZM262.57 54.0898C262.564 52.9062 263.572 52.1445 265.078 52.1445C266.566 52.1445 267.574 52.9062 267.586 54.0898C267.574 55.2617 266.566 56.0176 265.078 56.0117C263.572 56.0176 262.564 55.2617 262.57 54.0898ZM263.449 54.0898C263.443 54.8223 264.094 55.2969 265.078 55.2852C266.051 55.2969 266.707 54.8223 266.719 54.0898C266.707 53.3457 266.051 52.8652 265.078 52.8711C264.094 52.8652 263.443 53.3457 263.449 54.0898ZM263.578 59.7266V56.7266H264.48V58.9531H270.574V59.7266H263.578ZM275.848 59V50.5156H276.902V58.0625H280.84V59H275.848ZM282.246 50.5156H283.512L286.371 57.5H286.477L289.336 50.5156H290.602V59H289.605V52.5898H289.523L286.887 59H285.949L283.312 52.5898H283.242V59H282.246V50.5156ZM297.105 52.6484C297.018 51.8164 296.244 51.3359 295.23 51.3359C294.105 51.3359 293.373 51.9219 293.367 52.7305C293.373 53.6211 294.363 53.9551 295.008 54.1133L295.852 54.3477C296.76 54.582 298.254 55.1035 298.254 56.6914C298.254 58.0742 297.141 59.1465 295.172 59.1523C293.344 59.1465 292.213 58.2031 292.113 56.7969H293.191C293.279 57.7461 294.164 58.1973 295.172 58.1914C296.344 58.1973 297.223 57.5938 297.223 56.668C297.223 55.8418 296.438 55.5254 295.547 55.2734L294.504 54.9922C293.174 54.6055 292.342 53.9258 292.348 52.7773C292.342 51.3418 293.619 50.3984 295.266 50.3984C296.912 50.3984 298.096 51.3594 298.137 52.6484H297.105ZM305.848 51.1719C305.836 52.6602 306.896 53.9668 308.426 54.4883L307.91 55.2031C306.762 54.7754 305.859 53.9258 305.408 52.8301C304.963 54.0781 304.014 55.0449 302.754 55.5195L302.25 54.7695C303.855 54.207 304.922 52.8242 304.934 51.207V50.1289H305.848V51.1719ZM303.949 57.9805C303.943 56.7266 305.273 56.0059 307.441 56.0117C309.604 56.0059 310.934 56.7266 310.934 57.9805C310.934 59.2227 309.604 59.9258 307.441 59.9258C305.273 59.9258 303.943 59.2227 303.949 57.9805ZM304.863 57.9805C304.857 58.7363 305.842 59.1934 307.441 59.1875C309.035 59.1934 310.02 58.7363 310.02 57.9805C310.02 57.2012 309.035 56.7383 307.441 56.7383C305.842 56.7383 304.857 57.2012 304.863 57.9805ZM307.652 52.5312V51.7695H309.973V49.5312H310.898V55.707H309.973V52.5312H307.652ZM316.16 51.5117C316.166 52.877 317.186 54.0957 318.715 54.5938L318.281 55.3203C317.08 54.9219 316.172 54.0957 315.721 53.0469C315.275 54.2422 314.314 55.1738 313.066 55.625L312.598 54.8867C314.156 54.3594 315.246 53.0176 315.258 51.5117V51.0664H312.879V50.3047H318.504V51.0664H316.16V51.5117ZM313.98 58.0039C313.986 56.8027 315.293 56.1055 317.438 56.1055C319.576 56.1055 320.871 56.8027 320.871 58.0039C320.871 59.2227 319.576 59.9258 317.438 59.9258C315.293 59.9258 313.986 59.2227 313.98 58.0039ZM314.906 58.0039C314.895 58.7539 315.867 59.1934 317.438 59.1875C319.014 59.1934 319.975 58.7539 319.98 58.0039C319.975 57.2773 319.014 56.8438 317.438 56.8438C315.867 56.8438 314.895 57.2773 314.906 58.0039ZM319.863 55.8242V49.5312H320.777V52.1914H322.348V52.9648H320.777V55.8242H319.863ZM332.496 54.4883V55.25H323.016V54.4883H326.941V52.3789H327.844V54.4883H332.496ZM324.023 57.207V56.4453H331.289V59.9492H330.352V57.207H324.023ZM324.141 50.8555V50.1055H331.289V50.8906C331.283 51.6934 331.283 52.584 331.031 53.7734L330.105 53.6797C330.375 52.5137 330.375 51.6758 330.375 50.8906V50.8555H324.141ZM336.938 51.5C336.938 52.9531 337.992 54.3242 339.516 54.875L339 55.5898C337.857 55.1387 336.943 54.2363 336.498 53.0996C336.059 54.3594 335.109 55.3555 333.879 55.8477L333.387 55.0977C334.951 54.5234 336.029 53.0645 336.035 51.4648V50.1758H336.938V51.5ZM335.273 59.7266V56.457H336.199V58.9531H342.246V59.7266H335.273ZM338.766 52.7656V51.9922H341.086V49.543H342.012V57.3477H341.086V52.7656H338.766ZM347.156 50.293C348.791 50.2988 349.951 51.2949 349.957 52.7422C349.951 54.1953 348.791 55.1855 347.156 55.1914C345.51 55.1855 344.338 54.1953 344.344 52.7422C344.338 51.2949 345.51 50.2988 347.156 50.293ZM343.805 56.8906C345.727 56.8965 348.381 56.8789 350.684 56.5391L350.754 57.2188C348.369 57.6641 345.809 57.6758 343.934 57.6758L343.805 56.8906ZM345.246 52.7422C345.24 53.7148 346.043 54.3828 347.156 54.3828C348.258 54.3828 349.061 53.7148 349.055 52.7422C349.061 51.7754 348.258 51.1016 347.156 51.1016C346.043 51.1016 345.24 51.7754 345.246 52.7422ZM351.375 59.9727V49.5312H352.289V59.9727H351.375ZM366.047 49.5312V59.9492H365.156V49.5312H366.047ZM357.539 57.4414V50.8203H361.465V51.582H358.43V56.668C359.936 56.6562 360.885 56.6035 362.004 56.3516L362.098 57.1367C360.891 57.3828 359.871 57.4355 358.195 57.4414H357.539ZM360.762 54.2891V53.5156H363.035V49.7891H363.914V59.4102H363.035V54.2891H360.762ZM376.09 49.5312V59.9727H375.164V49.5312H376.09ZM367.887 53.9727C367.893 51.7578 368.994 50.3457 370.547 50.3398C372.094 50.3457 373.213 51.7578 373.207 53.9727C373.213 56.1934 372.094 57.5996 370.547 57.5938C368.994 57.5996 367.893 56.1934 367.887 53.9727ZM368.777 53.9727C368.777 55.666 369.504 56.7793 370.547 56.7734C371.596 56.7793 372.316 55.666 372.316 53.9727C372.316 52.2793 371.596 51.166 370.547 51.1602C369.504 51.166 368.777 52.2793 368.777 53.9727ZM386.508 49.5312V59.9727H385.594V54.2305H383.391V53.4688H385.594V49.5312H386.508ZM378.352 57.4531V50.4922H383.215V51.2539H379.277V53.4219H382.758V54.1719H379.277V56.6914C381.188 56.6855 382.418 56.6328 383.848 56.375L383.953 57.1367C382.436 57.3828 381.164 57.4531 379.148 57.4531H378.352ZM397.77 54.3711V55.0977H388.23V54.3711H397.77ZM389.379 56.6211V55.9297H396.574V58.1445H390.316V59.1406H396.914V59.8086H389.391V57.5117H395.66V56.6211H389.379ZM389.438 50.5156V49.8477H396.539V52.0039H390.387V52.918H396.727V53.5859H389.473V51.3711H395.613V50.5156H389.438ZM410.238 49.5312V59.9492H409.312V49.5312H410.238ZM401.754 57.2422C404.572 55.9062 406.014 53.9082 406.219 51.418H402.234V50.668H407.156C407.145 53.6621 405.75 56.3164 402.258 57.9922L401.754 57.2422ZM420.141 49.543V52.6953H421.711V53.4688H420.141V57.1953H419.227V49.543H420.141ZM412.441 55.4375V50.293H413.344V52.0508H416.379V50.293H417.293V55.4375H412.441ZM413.344 54.6875H416.379V52.7773H413.344V54.6875ZM413.625 59.7266V56.4453H414.527V58.9531H420.621V59.7266H413.625ZM427.113 50.2109C429.287 50.2168 430.922 51.3535 430.922 53.0703C430.922 54.8047 429.287 55.9414 427.113 55.9297C424.939 55.9414 423.305 54.8047 423.305 53.0703C423.305 51.3535 424.939 50.2168 427.113 50.2109ZM422.367 58.5664V57.793H431.906V58.5664H422.367ZM424.184 53.0703C424.172 54.3359 425.432 55.1797 427.113 55.1797C428.783 55.1797 430.031 54.3359 430.031 53.0703C430.031 51.8223 428.783 50.9551 427.113 50.9609C425.432 50.9551 424.172 51.8223 424.184 53.0703ZM442.277 57.8867V58.6602H432.738V57.8867H437.027V55.918H433.934V52.707H440.168V51.0664H433.91V50.3047H441.07V53.457H434.848V55.1562H441.316V55.918H437.93V57.8867H442.277ZM449.625 51.5C449.619 52.9355 450.703 54.2598 452.238 54.793L451.77 55.5312C450.586 55.0977 449.666 54.2188 449.203 53.1172C448.764 54.3594 447.82 55.3145 446.59 55.7891L446.086 55.0508C447.674 54.4941 448.717 53.082 448.723 51.4648V50.1758H449.625V51.5ZM447.762 59.7266V56.4922H448.699V58.9531H454.746V59.7266H447.762ZM453.352 57.2305V49.5312H454.266V52.7305H455.836V53.5156H454.266V57.2305H453.352ZM465.984 54.1719V54.8867H461.684V55.8594H464.766V58.1094H458.578V59.1289H465.082V59.832H457.664V57.4531H463.863V56.5508H457.641V55.8594H460.781V54.8867H456.504V54.1719H465.984ZM457.008 52.9883C458.918 52.8652 460.547 52.2148 460.717 51.1719H457.477V50.4453H460.781V49.4727H461.684V50.4453H465.023V51.1719H461.754C461.918 52.2148 463.547 52.8652 465.469 52.9883L465.188 53.6914C463.447 53.5449 461.877 53.0059 461.238 52.0156C460.594 53.0059 459.023 53.5449 457.277 53.6914L457.008 52.9883ZM475.465 49.543V55.5312H474.539V49.543H475.465ZM466.898 54.5117C467.783 54.5117 468.814 54.5117 469.887 54.4766V53.3516H467.848V50.0586H472.793V50.8203H468.773V52.6133H472.887V53.3516H470.812V54.4355C471.779 54.3887 472.758 54.3125 473.672 54.1836L473.73 54.8516C471.445 55.2383 468.92 55.2734 467.039 55.2734L466.898 54.5117ZM468.598 59.8086V56H469.512V57.1133H474.562V56H475.465V59.8086H468.598ZM469.512 59.0586H474.562V57.8281H469.512V59.0586ZM485.824 49.5312V59.9492H484.91V49.5312H485.824ZM477.914 57.2656V50.5625H478.816V56.4688C480.41 56.457 482.051 56.334 483.797 55.9648L483.926 56.75C482.074 57.1367 480.428 57.2656 478.758 57.2656H477.914ZM495.668 49.5312V53.6562H497.414V54.4297H495.668V59.9727H494.754V49.5312H495.668ZM488.062 57.3594V50.5508H492.926V51.3125H488.977V56.5859C490.863 56.5801 492.193 56.498 493.746 56.2109L493.863 57.0078C492.229 57.3008 490.863 57.3594 488.883 57.3594H488.062ZM499.078 59.0703C498.668 59.0645 498.316 58.7246 498.328 58.3086C498.316 57.8984 498.668 57.5586 499.078 57.5586C499.494 57.5586 499.834 57.8984 499.828 58.3086C499.834 58.7246 499.494 59.0645 499.078 59.0703Z" fill="white" fill-opacity="0.7"/>
</g>
<defs>
<filter id="filter0_dd_3411_69685" x="0" y="0" width="523" height="88" filterUnits="userSpaceOnUse" color-interpolation-filters="sRGB">
<feFlood flood-opacity="0" result="BackgroundImageFix"/>
<feColorMatrix in="SourceAlpha" type="matrix" values="0 0 0 0 0 0 0 0 0 0 0 0 0 0 0 0 0 0 127 0" result="hardAlpha"/>
<feOffset dx="2" dy="6"/>
<feGaussianBlur stdDeviation="6"/>
<feColorMatrix type="matrix" values="0 0 0 0 0 0 0 0 0 0 0 0 0 0 0 0 0 0 0.12 0"/>
<feBlend mode="normal" in2="BackgroundImageFix" result="effect1_dropShadow_3411_69685"/>
<feColorMatrix in="SourceAlpha" type="matrix" values="0 0 0 0 0 0 0 0 0 0 0 0 0 0 0 0 0 0 127 0" result="hardAlpha"/>
<feOffset/>
<feGaussianBlur stdDeviation="2"/>
<feColorMatrix type="matrix" values="0 0 0 0 0 0 0 0 0 0 0 0 0 0 0 0 0 0 0.12 0"/>
<feBlend mode="normal" in2="effect1_dropShadow_3411_69685" result="effect2_dropShadow_3411_69685"/>
<feBlend mode="normal" in="SourceGraphic" in2="effect2_dropShadow_3411_69685" result="shape"/>
</filter>
</defs>
</svg>
