<svg width="256" height="60" viewBox="0 0 256 60" fill="none" xmlns="http://www.w3.org/2000/svg">
<g filter="url(#filter0_dd_3411_68992)">
<path d="M126 6L121 12L131 12L126 6Z" fill="#4E545C"/>
<rect x="10" y="12" width="232" height="30" rx="4" fill="#4E545C"/>
<path d="M27.0234 21.5312V31.9727H26.1094V21.5312H27.0234ZM23.8594 22.5039V26.207H19.9688V28.668C21.6973 28.668 23.2383 28.5918 25.1016 28.293L25.1953 29.0664C23.2734 29.3711 21.6914 29.4414 19.8984 29.4414H19.0312V25.457H22.9336V23.2656H19.0078V22.5039H23.8594ZM38.332 29.875V30.6602H28.793V29.875H33.0703V27.4727H29.6602V26.7344H31.2891V23.3125H29.6367V22.5508H37.418V23.3125H35.7656V26.7344H37.3945V27.4727H33.9727V29.875H38.332ZM32.2031 26.7344H34.8633V23.3125H32.2031V26.7344ZM47.6016 27.168V27.918H40.3945V22.4336H47.4844V23.207H41.332V24.7539H47.2617V25.4922H41.332V27.168H47.6016ZM48.7031 29.8281V30.5898H39.1641V29.8281H48.7031ZM58.4648 21.5312V31.9492H57.5742V21.5312H58.4648ZM56.3672 21.7539V31.4219H55.4883V26.3594H54.1523C54.0527 28.3867 53.1914 29.6523 51.9023 29.6523C50.543 29.6523 49.6641 28.2461 49.6641 26.0312C49.6641 23.8164 50.543 22.4102 51.9023 22.4102C53.168 22.4102 54.0234 23.6348 54.1406 25.5977H55.4883V21.7539H56.3672ZM51.9023 23.2773C51.0586 23.2773 50.5195 24.332 50.5312 26.0312C50.5195 27.7188 51.0586 28.7852 51.9023 28.7734C52.7461 28.7852 53.2852 27.7188 53.2852 26.0312C53.2852 24.332 52.7461 23.2773 51.9023 23.2773ZM72.4102 26.1719V26.8867H68.1094V27.8594H71.1914V30.1094H65.0039V31.1289H71.5078V31.832H64.0898V29.4531H70.2891V28.5508H64.0664V27.8594H67.207V26.8867H62.9297V26.1719H72.4102ZM68.1094 21.4727V22.4453H71.4492V23.1719H68.1797C68.3496 24.209 69.9785 24.8652 71.8945 24.9883L71.6133 25.6914C69.873 25.5449 68.3027 25.0059 67.6641 24.0156C67.0254 25.0059 65.4551 25.5449 63.7031 25.6914L63.4336 24.9883C65.3379 24.8652 66.9668 24.209 67.1484 23.1719H63.9023V22.4453H67.207V21.4727H68.1094ZM78.2344 22.1758V25.0938H74.6484V26.7109C76.6055 26.7109 77.6133 26.6816 78.8438 26.4531L78.9375 27.2148C77.6367 27.4258 76.582 27.4609 74.4727 27.4609H73.7344V24.3906H77.3203V22.9141H73.7109V22.1758H78.2344ZM81.9258 21.543V27.9414H81V26.0078H78.9258V25.2461H81V23.8398H78.9258V23.0898H81V21.543H81.9258ZM81.9258 28.5039V31.9727H81V29.2539H74.9062V28.5039H81.9258ZM89.7188 24.2852V25.0117H87.6211V26.0664C88.6055 26.0254 89.5957 25.9551 90.5156 25.8438L90.5625 26.4883C88.3359 26.8281 85.8281 26.8984 83.8477 26.8984L83.7188 26.1602C84.6387 26.1543 85.6523 26.1426 86.6953 26.1016V25.0117H84.6797V21.9883H89.6016V22.7031H85.6289V24.2852H89.7188ZM92.2617 21.543V27.1562H91.3477V21.543H92.2617ZM92.2617 27.625V30.0391H86.2852V31.082H92.6367V31.832H85.3711V29.3359H91.3594V28.3633H85.3477V27.625H92.2617ZM105.176 21.5312V25.1875H106.734V25.9609H105.176V29.6875H104.25V21.5312H105.176ZM105.551 30.9531V31.7266H98.5547V29.1367H99.4805V30.9531H105.551ZM96.9961 27.7305C97.8223 27.7305 98.8008 27.7246 99.8203 27.6836V26.8867C98.6074 26.7754 97.8281 26.1953 97.8281 25.3164C97.8281 24.3086 98.8008 23.7109 100.266 23.7109C101.742 23.7109 102.703 24.3086 102.715 25.3164C102.703 26.1895 101.941 26.7695 100.734 26.8867V27.6367C101.713 27.5898 102.697 27.4961 103.605 27.3555L103.688 28.0117C101.449 28.4336 98.9297 28.4688 97.1016 28.4805L96.9961 27.7305ZM103.289 22.5625V23.2539H97.2539V22.5625H99.8203V21.5078H100.734V22.5625H103.289ZM100.266 24.3672C99.3047 24.3672 98.707 24.7305 98.707 25.3164C98.707 25.8906 99.3047 26.2539 100.266 26.2539C101.227 26.2539 101.836 25.8906 101.836 25.3164C101.836 24.7305 101.227 24.3672 100.266 24.3672ZM110.941 24.7305C110.93 26.4062 112.137 28.2461 113.648 28.9609L113.121 29.6875C111.949 29.1191 110.959 27.877 110.496 26.4648C110.016 28 108.967 29.3477 107.801 29.9453L107.238 29.2188C108.738 28.4922 110.027 26.5117 110.039 24.7305V23.3711H107.613V22.6094H113.285V23.3711H110.941V24.7305ZM115.477 21.5312V25.75H117.223V26.5352H115.477V31.9492H114.562V21.5312H115.477ZM121.195 22.293C122.836 22.293 123.996 23.2891 123.996 24.7422C123.996 26.1953 122.836 27.1914 121.195 27.1914C119.555 27.1914 118.371 26.1953 118.383 24.7422C118.371 23.2891 119.555 22.293 121.195 22.293ZM121.195 23.1016C120.082 23.1016 119.273 23.7695 119.285 24.7422C119.273 25.7148 120.082 26.3828 121.195 26.3828C122.297 26.3828 123.094 25.7148 123.094 24.7422C123.094 23.7695 122.297 23.1016 121.195 23.1016ZM126.328 21.5312V31.9727H125.414V21.5312H126.328ZM117.844 28.8906C119.766 28.8906 122.414 28.8789 124.723 28.5391L124.793 29.2188C122.414 29.6641 119.848 29.6758 117.973 29.6758L117.844 28.8906ZM139.758 21.5312V31.9727H138.832V21.5312H139.758ZM134.215 22.3398C135.762 22.3516 136.875 23.7578 136.875 25.9727C136.875 28.1875 135.762 29.5938 134.215 29.5938C132.656 29.5938 131.555 28.1875 131.555 25.9727C131.555 23.7578 132.656 22.3516 134.215 22.3398ZM134.215 23.1602C133.172 23.1719 132.445 24.2734 132.445 25.9727C132.445 27.6719 133.172 28.7734 134.215 28.7734C135.258 28.7734 135.984 27.6719 135.984 25.9727C135.984 24.2734 135.258 23.1719 134.215 23.1602ZM151.066 26.9102V27.6719H141.527V26.9102H151.066ZM149.836 21.7891V24.25H143.684V25.293H150.059V26.0078H142.77V23.5586H148.91V22.5273H142.734V21.7891H149.836ZM149.836 28.6211V31.8086H142.828V28.6211H149.836ZM143.73 29.3711V31.0586H148.934V29.3711H143.73ZM156.656 21.7188C158.977 21.7188 160.336 22.3516 160.336 23.5117C160.336 24.6953 158.977 25.3281 156.656 25.3398C154.336 25.3281 152.965 24.6953 152.965 23.5117C152.965 22.3516 154.336 21.7188 156.656 21.7188ZM156.656 22.4102C154.922 22.4102 153.914 22.832 153.926 23.5117C153.914 24.2383 154.922 24.6367 156.656 24.6367C158.379 24.6367 159.398 24.2383 159.398 23.5117C159.398 22.832 158.379 22.4102 156.656 22.4102ZM161.402 26.043V26.793H151.91V26.043H161.402ZM160.184 27.6953V30.0273H153.996V31.1055H160.5V31.832H153.082V29.3477H159.281V28.3984H153.059V27.6953H160.184ZM173.895 21.5312V27.1211H172.98V21.5312H173.895ZM168.059 27.6484V28.9141H172.98V27.6484H173.895V31.8086H167.145V27.6484H168.059ZM168.059 31.0586H172.98V29.6523H168.059V31.0586ZM168.27 22.0469C169.852 22.0352 171 23.0078 171 24.4375C171 25.8555 169.852 26.8281 168.27 26.8281C166.688 26.8281 165.539 25.8555 165.539 24.4375C165.539 23.0078 166.688 22.0352 168.27 22.0469ZM168.27 22.8203C167.203 22.8086 166.43 23.4883 166.441 24.4375C166.43 25.3867 167.203 26.0664 168.27 26.0664C169.324 26.0664 170.098 25.3867 170.098 24.4375C170.098 23.4883 169.324 22.8086 168.27 22.8203ZM180.609 22.1758V25.0938H177.023V26.7109C178.98 26.7109 179.988 26.6816 181.219 26.4531L181.312 27.2148C180.012 27.4258 178.957 27.4609 176.848 27.4609H176.109V24.3906H179.695V22.9141H176.086V22.1758H180.609ZM184.301 21.543V27.9414H183.375V26.0078H181.301V25.2461H183.375V23.8398H181.301V23.0898H183.375V21.543H184.301ZM184.301 28.5039V31.9727H183.375V29.2539H177.281V28.5039H184.301ZM191.238 23.3359V24.0859H186.012V23.3359H188.18V21.8477H189.094V23.3359H191.238ZM188.625 24.7891C189.938 24.7891 190.875 25.7734 190.887 27.1562C190.875 28.5508 189.938 29.5469 188.625 29.5469C187.324 29.5469 186.387 28.5508 186.387 27.1562C186.387 25.7734 187.324 24.7891 188.625 24.7891ZM188.625 25.5625C187.805 25.5742 187.207 26.2422 187.207 27.1562C187.207 28.082 187.805 28.75 188.625 28.7383C189.457 28.75 190.066 28.082 190.066 27.1562C190.066 26.2422 189.457 25.5742 188.625 25.5625ZM194.906 21.5312V31.9492H194.027V26.6875H192.645V31.4336H191.777V21.7891H192.645V25.9258H194.027V21.5312H194.906ZM204.68 23.0078C204.668 24.4023 206.531 25.5859 208.348 25.8555L208.008 26.582C206.379 26.3066 204.797 25.4395 204.164 24.1797C203.531 25.4395 201.943 26.3066 200.344 26.582L199.98 25.8555C201.785 25.5859 203.648 24.4023 203.648 23.0078V22.9375H200.309V22.1875H208.008V22.9375H204.68V23.0078ZM208.91 27.4727V28.2344H204.598V31.9492H203.695V28.2344H199.418V27.4727H208.91ZM212.883 24.4961C212.883 26.1484 213.691 27.9414 215.074 28.7617L214.547 29.4766C213.545 28.8672 212.824 27.7539 212.461 26.4883C212.074 27.8711 211.301 29.0605 210.258 29.6992L209.672 29.0078C211.113 28.1641 211.992 26.3125 211.992 24.5312V22.5156H212.883V24.4961ZM218.719 21.5312V31.9492H217.828V21.5312H218.719ZM216.562 21.7539V31.4219H215.695V26.0547H213.926V25.2695H215.695V21.7539H216.562ZM229.699 29.8398V30.6133H220.16V29.8398H222.527V27.0273C221.637 26.5645 221.098 25.8145 221.098 24.8711C221.098 23.2539 222.68 22.1992 224.906 22.1875C227.133 22.1992 228.715 23.2539 228.715 24.8711C228.715 25.7969 228.193 26.541 227.332 27.0039V29.8398H229.699ZM224.906 22.9492C223.195 22.9375 221.988 23.7109 221.988 24.8711C221.988 26.0312 223.195 26.8164 224.906 26.8164C226.605 26.8164 227.824 26.0312 227.824 24.8711C227.824 23.7109 226.605 22.9375 224.906 22.9492ZM223.43 29.8398H226.406V27.3555C225.955 27.4785 225.451 27.543 224.906 27.543C224.373 27.543 223.875 27.4844 223.43 27.3672V29.8398ZM231.633 31.0703C231.223 31.0703 230.871 30.7305 230.883 30.3086C230.871 29.8984 231.223 29.5586 231.633 29.5586C232.043 29.5586 232.383 29.8984 232.383 30.3086C232.383 30.7305 232.043 31.0703 231.633 31.0703Z" fill="white" fill-opacity="0.7"/>
</g>
<defs>
<filter id="filter0_dd_3411_68992" x="0" y="0" width="256" height="60" filterUnits="userSpaceOnUse" color-interpolation-filters="sRGB">
<feFlood flood-opacity="0" result="BackgroundImageFix"/>
<feColorMatrix in="SourceAlpha" type="matrix" values="0 0 0 0 0 0 0 0 0 0 0 0 0 0 0 0 0 0 127 0" result="hardAlpha"/>
<feOffset dx="2" dy="6"/>
<feGaussianBlur stdDeviation="6"/>
<feColorMatrix type="matrix" values="0 0 0 0 0 0 0 0 0 0 0 0 0 0 0 0 0 0 0.12 0"/>
<feBlend mode="normal" in2="BackgroundImageFix" result="effect1_dropShadow_3411_68992"/>
<feColorMatrix in="SourceAlpha" type="matrix" values="0 0 0 0 0 0 0 0 0 0 0 0 0 0 0 0 0 0 127 0" result="hardAlpha"/>
<feOffset/>
<feGaussianBlur stdDeviation="2"/>
<feColorMatrix type="matrix" values="0 0 0 0 0 0 0 0 0 0 0 0 0 0 0 0 0 0 0.12 0"/>
<feBlend mode="normal" in2="effect1_dropShadow_3411_68992" result="effect2_dropShadow_3411_68992"/>
<feBlend mode="normal" in="SourceGraphic" in2="effect2_dropShadow_3411_68992" result="shape"/>
</filter>
</defs>
</svg>
