<svg width="514" height="60" viewBox="0 0 514 60" fill="none" xmlns="http://www.w3.org/2000/svg">
<g filter="url(#filter0_dd_3411_68288)">
<path d="M255 6L250 12L260 12L255 6Z" fill="#4E545C"/>
<rect x="10" y="12" width="490" height="30" rx="4" fill="#4E545C"/>
<path d="M19.8633 22.1758V23.8516H22.7695V22.1758H23.6719V23.2422H26.1328V21.5312H27.0586V27.8477H26.1328V26.1484H23.6719V27.0742H18.9492V22.1758H19.8633ZM19.8633 26.3242H22.7695V24.5898H19.8633V26.3242ZM23.6016 28.0469C25.7695 28.0586 27.0938 28.7617 27.0938 30.0039C27.0938 31.2227 25.7695 31.9258 23.6016 31.9258C21.4336 31.9258 20.1094 31.2227 20.1094 30.0039C20.1094 28.7617 21.4336 28.0586 23.6016 28.0469ZM23.6016 28.7734C22.0078 28.7734 21.0117 29.2305 21.0234 30.0039C21.0117 30.7539 22.0078 31.1992 23.6016 31.1992C25.1953 31.1992 26.1797 30.7539 26.1797 30.0039C26.1797 29.2305 25.1953 28.7734 23.6016 28.7734ZM23.6719 25.3867H26.1328V23.9922H23.6719V25.3867ZM37.3828 21.543V29.4531H36.457V28.375H34.3008V27.707H36.457V21.543H37.3828ZM37.6406 30.9531V31.7266H30.2344V28.6797H31.1602V30.9531H37.6406ZM28.7344 26.3711C30.6797 26.3594 33.2812 26.3477 35.5195 26.0664L35.5781 26.7344C34.6465 26.8809 33.6738 26.9746 32.7188 27.0273V29.0898H31.793V27.0742C30.7383 27.1211 29.7363 27.127 28.8633 27.1211L28.7344 26.3711ZM32.1562 21.9648C33.6797 21.9648 34.7227 22.6914 34.7344 23.7812C34.7227 24.8945 33.6797 25.5859 32.1562 25.5859C30.6211 25.5859 29.5781 24.8945 29.5781 23.7812C29.5781 22.6914 30.6211 21.9648 32.1562 21.9648ZM32.1562 22.668C31.1367 22.6562 30.4453 23.1133 30.457 23.7812C30.4453 24.4609 31.1367 24.9062 32.1562 24.9062C33.1406 24.9062 33.8438 24.4609 33.8555 23.7812C33.8438 23.1133 33.1406 22.6562 32.1562 22.668ZM48.0938 21.5312V31.9492H47.2031V21.5312H48.0938ZM45.9961 21.7539V31.4219H45.1172V26.3594H43.7812C43.6816 28.3867 42.8203 29.6523 41.5312 29.6523C40.1719 29.6523 39.293 28.2461 39.293 26.0312C39.293 23.8164 40.1719 22.4102 41.5312 22.4102C42.7969 22.4102 43.6523 23.6348 43.7695 25.5977H45.1172V21.7539H45.9961ZM41.5312 23.2773C40.6875 23.2773 40.1484 24.332 40.1602 26.0312C40.1484 27.7188 40.6875 28.7852 41.5312 28.7734C42.375 28.7852 42.9141 27.7188 42.9141 26.0312C42.9141 24.332 42.375 23.2773 41.5312 23.2773ZM53.2031 24.332C53.2031 26.2188 54.4102 28.1172 55.9219 28.8086L55.3711 29.5586C54.1875 28.9492 53.209 27.7012 52.7461 26.2188C52.2832 27.7773 51.3047 29.1133 50.1211 29.7461L49.5234 29.0078C51.0469 28.2578 52.2656 26.2539 52.2656 24.332V22.4336H53.2031V24.332ZM58.1719 21.5312V31.9727H57.2578V25.8438H54.7852V25.0938H57.2578V21.5312H58.1719ZM66.4102 24.332C66.4102 26.1719 67.6289 28.0586 69.1055 28.7852L68.543 29.5234C67.3945 28.9199 66.4336 27.6895 65.9766 26.2422C65.5078 27.7832 64.5234 29.0957 63.3516 29.7227L62.7656 28.9844C64.2891 28.2344 65.4961 26.2305 65.5078 24.332V22.4336H66.4102V24.332ZM70.9805 21.5312V25.7617H72.7266V26.5586H70.9805V31.9492H70.0664V21.5312H70.9805ZM82.7812 26.6875V27.4492H73.2891V26.6875H75.6445V25.2227C74.8125 24.9004 74.3438 24.3672 74.3438 23.6641C74.3438 22.4336 75.75 21.7305 78.0352 21.7305C80.2969 21.7305 81.7148 22.4336 81.7148 23.6641C81.7148 24.3613 81.252 24.8945 80.4258 25.2109V26.6875H82.7812ZM78.0352 28.2461C80.2734 28.2461 81.6094 28.8906 81.6211 30.0859C81.6094 31.2695 80.2734 31.9258 78.0352 31.9258C75.7734 31.9258 74.4375 31.2695 74.4375 30.0859C74.4375 28.8906 75.7734 28.2461 78.0352 28.2461ZM78.0352 28.9492C76.3594 28.9609 75.3633 29.3711 75.375 30.0859C75.3633 30.7891 76.3594 31.2109 78.0352 31.2109C79.6875 31.2109 80.6953 30.7891 80.6953 30.0859C80.6953 29.3711 79.6875 28.9609 78.0352 28.9492ZM78.0352 22.457C76.3359 22.457 75.2812 22.9141 75.293 23.6641C75.2812 24.4258 76.3359 24.8711 78.0352 24.8711C79.7227 24.8711 80.7773 24.4258 80.7773 23.6641C80.7773 22.9141 79.7227 22.457 78.0352 22.457ZM76.5586 26.6875H79.5117V25.4688C79.0723 25.5449 78.5801 25.5859 78.0352 25.5859C77.4902 25.5859 76.998 25.5449 76.5586 25.4688V26.6875ZM91.7227 21.5312V25.832H93.4688V26.5938H91.7227V31.9492H90.8086V21.5312H91.7227ZM89.8008 23.207V23.9688H83.6016V23.207H86.2852V21.6602H87.1992V23.207H89.8008ZM86.7539 24.8359C88.2305 24.8359 89.2969 25.8203 89.3086 27.2266C89.2969 28.6328 88.2305 29.6172 86.7539 29.6172C85.2656 29.6172 84.1875 28.6328 84.1992 27.2266C84.1875 25.8203 85.2656 24.8359 86.7539 24.8359ZM86.7539 25.6094C85.7812 25.6094 85.0664 26.2891 85.0781 27.2266C85.0664 28.1758 85.7812 28.8438 86.7539 28.832C87.7148 28.8438 88.418 28.1758 88.4297 27.2266C88.418 26.2891 87.7148 25.6094 86.7539 25.6094ZM102.457 24.6953V25.4336H95.3203V21.918H96.2344V24.6953H102.457ZM103.559 26.8516V27.6016H94.0195V26.8516H103.559ZM102.516 30.9297V31.6914H95.2617V28.668H96.1758V30.9297H102.516ZM115.77 22.5859V23.6289C115.758 24.9062 115.758 26.3359 115.383 28.4336L114.445 28.3281C114.844 26.3359 114.844 24.8711 114.844 23.6289V23.3477H108.422V22.5859H115.77ZM116.906 29.7109V30.4727H107.414V29.7109H111.141V25.9844H112.043V29.7109H116.906ZM127.312 27.4727V28.2344H124.793V31.9492H123.867V28.2344H121.195V31.9492H120.246V28.2344H117.773V27.4727H127.312ZM122.52 21.9531C124.711 21.9531 126.188 22.832 126.188 24.2266C126.188 25.6094 124.711 26.4883 122.52 26.4766C120.328 26.4883 118.852 25.6094 118.852 24.2266C118.852 22.832 120.328 21.9531 122.52 21.9531ZM122.52 22.7031C120.891 22.7031 119.789 23.3008 119.801 24.2266C119.789 25.1523 120.891 25.7383 122.52 25.7383C124.137 25.7383 125.25 25.1523 125.25 24.2266C125.25 23.3008 124.137 22.7031 122.52 22.7031ZM134.637 24.9297C134.637 26.5938 135.727 28.3047 137.238 29.0312L136.699 29.7461C135.551 29.1836 134.643 28.0469 134.215 26.6992C133.758 28.1465 132.791 29.3594 131.602 29.9336L131.074 29.2188C132.598 28.5039 133.734 26.7227 133.746 24.9297V24.0977H131.355V23.3477H133.734V21.7305H134.66V23.3477H137.004V24.0977H134.637V24.9297ZM139.23 21.5312V25.8086H140.977V26.5938H139.23V31.9492H138.316V21.5312H139.23ZM149.977 27.168V27.918H142.77V22.4336H149.859V23.207H143.707V24.7539H149.637V25.4922H143.707V27.168H149.977ZM151.078 29.8281V30.5898H141.539V29.8281H151.078ZM163.559 21.543V29.2539H162.633V25.2461H160.172V27.4727H155.449V22.2344H156.363V24.0859H159.27V22.2344H160.172V24.4727H162.633V21.543H163.559ZM163.793 30.9531V31.7266H156.82V28.4922H157.746V30.9531H163.793ZM156.363 26.7109H159.27V24.8125H156.363V26.7109ZM174.293 23.0781V23.8398H165.762V23.0781H169.582V21.707H170.484V23.0781H174.293ZM174.832 29.9688V30.7305H165.293V29.9688H169.582V28.5039C167.73 28.4043 166.605 27.6836 166.617 26.5117C166.605 25.2695 167.918 24.543 170.039 24.5547C172.137 24.543 173.461 25.2695 173.461 26.5117C173.461 27.6836 172.324 28.4043 170.484 28.5039V29.9688H174.832ZM170.039 25.2812C168.48 25.2812 167.531 25.7383 167.543 26.5117C167.531 27.3086 168.48 27.7539 170.039 27.7656C171.574 27.7539 172.523 27.3086 172.523 26.5117C172.523 25.7383 171.574 25.2812 170.039 25.2812ZM185.191 26.3711V27.0977H175.652V26.3711H185.191ZM183.996 27.9297V30.1445H177.738V31.1406H184.336V31.8086H176.812V29.5117H183.082V28.6211H176.801V27.9297H183.996ZM183.961 21.8477V24.0039H177.809V24.918H184.148V25.5859H176.895V23.3711H183.035V22.5156H176.859V21.8477H183.961ZM197.648 21.5312V27.1211H196.734V21.5312H197.648ZM191.812 27.6484V28.9141H196.734V27.6484H197.648V31.8086H190.898V27.6484H191.812ZM191.812 31.0586H196.734V29.6523H191.812V31.0586ZM192.023 22.0469C193.605 22.0352 194.754 23.0078 194.754 24.4375C194.754 25.8555 193.605 26.8281 192.023 26.8281C190.441 26.8281 189.293 25.8555 189.293 24.4375C189.293 23.0078 190.441 22.0352 192.023 22.0469ZM192.023 22.8203C190.957 22.8086 190.184 23.4883 190.195 24.4375C190.184 25.3867 190.957 26.0664 192.023 26.0664C193.078 26.0664 193.852 25.3867 193.852 24.4375C193.852 23.4883 193.078 22.8086 192.023 22.8203ZM204.363 22.1758V25.0938H200.777V26.7109C202.734 26.7109 203.742 26.6816 204.973 26.4531L205.066 27.2148C203.766 27.4258 202.711 27.4609 200.602 27.4609H199.863V24.3906H203.449V22.9141H199.84V22.1758H204.363ZM208.055 21.543V27.9414H207.129V26.0078H205.055V25.2461H207.129V23.8398H205.055V23.0898H207.129V21.543H208.055ZM208.055 28.5039V31.9727H207.129V29.2539H201.035V28.5039H208.055ZM214.992 23.3359V24.0859H209.766V23.3359H211.934V21.8477H212.848V23.3359H214.992ZM212.379 24.7891C213.691 24.7891 214.629 25.7734 214.641 27.1562C214.629 28.5508 213.691 29.5469 212.379 29.5469C211.078 29.5469 210.141 28.5508 210.141 27.1562C210.141 25.7734 211.078 24.7891 212.379 24.7891ZM212.379 25.5625C211.559 25.5742 210.961 26.2422 210.961 27.1562C210.961 28.082 211.559 28.75 212.379 28.7383C213.211 28.75 213.82 28.082 213.82 27.1562C213.82 26.2422 213.211 25.5742 212.379 25.5625ZM218.66 21.5312V31.9492H217.781V26.6875H216.398V31.4336H215.531V21.7891H216.398V25.9258H217.781V21.5312H218.66ZM228.434 23.0078C228.422 24.4023 230.285 25.5859 232.102 25.8555L231.762 26.582C230.133 26.3066 228.551 25.4395 227.918 24.1797C227.285 25.4395 225.697 26.3066 224.098 26.582L223.734 25.8555C225.539 25.5859 227.402 24.4023 227.402 23.0078V22.9375H224.062V22.1875H231.762V22.9375H228.434V23.0078ZM232.664 27.4727V28.2344H228.352V31.9492H227.449V28.2344H223.172V27.4727H232.664ZM236.637 24.4961C236.637 26.1484 237.445 27.9414 238.828 28.7617L238.301 29.4766C237.299 28.8672 236.578 27.7539 236.215 26.4883C235.828 27.8711 235.055 29.0605 234.012 29.6992L233.426 29.0078C234.867 28.1641 235.746 26.3125 235.746 24.5312V22.5156H236.637V24.4961ZM242.473 21.5312V31.9492H241.582V21.5312H242.473ZM240.316 21.7539V31.4219H239.449V26.0547H237.68V25.2695H239.449V21.7539H240.316ZM253.453 29.8398V30.6133H243.914V29.8398H246.281V27.0273C245.391 26.5645 244.852 25.8145 244.852 24.8711C244.852 23.2539 246.434 22.1992 248.66 22.1875C250.887 22.1992 252.469 23.2539 252.469 24.8711C252.469 25.7969 251.947 26.541 251.086 27.0039V29.8398H253.453ZM248.66 22.9492C246.949 22.9375 245.742 23.7109 245.742 24.8711C245.742 26.0312 246.949 26.8164 248.66 26.8164C250.359 26.8164 251.578 26.0312 251.578 24.8711C251.578 23.7109 250.359 22.9375 248.66 22.9492ZM247.184 29.8398H250.16V27.3555C249.709 27.4785 249.205 27.543 248.66 27.543C248.127 27.543 247.629 27.4844 247.184 27.3672V29.8398ZM255.387 31.0703C254.977 31.0703 254.625 30.7305 254.637 30.3086C254.625 29.8984 254.977 29.5586 255.387 29.5586C255.797 29.5586 256.137 29.8984 256.137 30.3086C256.137 30.7305 255.797 31.0703 255.387 31.0703ZM268.453 21.5312V25.1875H270.012V25.9609H268.453V29.6875H267.527V21.5312H268.453ZM268.828 30.9531V31.7266H261.832V29.1367H262.758V30.9531H268.828ZM260.273 27.7305C261.1 27.7305 262.078 27.7246 263.098 27.6836V26.8867C261.885 26.7754 261.105 26.1953 261.105 25.3164C261.105 24.3086 262.078 23.7109 263.543 23.7109C265.02 23.7109 265.98 24.3086 265.992 25.3164C265.98 26.1895 265.219 26.7695 264.012 26.8867V27.6367C264.99 27.5898 265.975 27.4961 266.883 27.3555L266.965 28.0117C264.727 28.4336 262.207 28.4688 260.379 28.4805L260.273 27.7305ZM266.566 22.5625V23.2539H260.531V22.5625H263.098V21.5078H264.012V22.5625H266.566ZM263.543 24.3672C262.582 24.3672 261.984 24.7305 261.984 25.3164C261.984 25.8906 262.582 26.2539 263.543 26.2539C264.504 26.2539 265.113 25.8906 265.113 25.3164C265.113 24.7305 264.504 24.3672 263.543 24.3672ZM274.219 24.7305C274.207 26.4062 275.414 28.2461 276.926 28.9609L276.398 29.6875C275.227 29.1191 274.236 27.877 273.773 26.4648C273.293 28 272.244 29.3477 271.078 29.9453L270.516 29.2188C272.016 28.4922 273.305 26.5117 273.316 24.7305V23.3711H270.891V22.6094H276.562V23.3711H274.219V24.7305ZM278.754 21.5312V25.75H280.5V26.5352H278.754V31.9492H277.84V21.5312H278.754ZM287.766 23.043C287.754 24.5664 288.855 25.9141 290.402 26.4531L289.934 27.1797C288.727 26.7402 287.771 25.8379 287.309 24.6836C286.846 25.9199 285.879 26.8926 284.66 27.3672L284.18 26.6406C285.738 26.0664 286.828 24.6133 286.828 23.043V22.0469H287.766V23.043ZM292.676 28.3281V31.9492H291.762V29.0898H285.668V28.3281H292.676ZM292.676 21.5312V27.8125H291.762V21.5312H292.676ZM303.07 21.5312V26.9805H302.156V25.6445H299.695V26.5586H294.973V22.0234H295.887V23.5234H298.793V22.0234H299.695V23.0312H302.156V21.5312H303.07ZM303.07 27.4844V29.9336H297.258V31.0703H303.469V31.8086H296.344V29.2305H302.156V28.2227H296.32V27.4844H303.07ZM295.887 25.8086H298.793V24.25H295.887V25.8086ZM299.695 24.918H302.156V23.7461H299.695V24.918ZM313.266 22.2109V26.4531H308.379V22.2109H313.266ZM309.281 22.9609V25.7266H312.363V22.9609H309.281ZM316.418 21.5312V27.5195H315.516V21.5312H316.418ZM313.594 28.9492C313.594 29.9688 315.258 30.9766 317.051 31.1992L316.734 31.9141C315.164 31.7031 313.734 30.9648 313.125 29.9922C312.492 30.9824 311.027 31.7031 309.457 31.9141L309.129 31.1992C310.922 31 312.645 29.9922 312.645 28.9492H309.562V28.2344H312.656V27.2148H313.57V28.2344H316.688V28.9492H313.594ZM330.129 21.5312V31.9492H329.238V21.5312H330.129ZM327.996 21.7891V31.4102H327.117V26.2891H324.844V25.5156H327.117V21.7891H327.996ZM325.547 22.8203V23.582H322.512V28.668C324.012 28.6621 324.961 28.5977 326.086 28.3516L326.18 29.1367C324.973 29.3828 323.953 29.4297 322.277 29.4414H321.621V22.8203H325.547ZM340.172 21.5312V31.9727H339.246V21.5312H340.172ZM334.629 22.3398C336.176 22.3516 337.289 23.7578 337.289 25.9727C337.289 28.1875 336.176 29.5938 334.629 29.5938C333.07 29.5938 331.969 28.1875 331.969 25.9727C331.969 23.7578 333.07 22.3516 334.629 22.3398ZM334.629 23.1602C333.586 23.1719 332.859 24.2734 332.859 25.9727C332.859 27.6719 333.586 28.7734 334.629 28.7734C335.672 28.7734 336.398 27.6719 336.398 25.9727C336.398 24.2734 335.672 23.1719 334.629 23.1602ZM350.59 21.5312V31.9727H349.676V26.2305H347.473V25.4688H349.676V21.5312H350.59ZM347.297 22.4922V23.2539H343.359V25.4219H346.84V26.1719H343.359V28.6914C345.275 28.6914 346.494 28.627 347.93 28.375L348.035 29.1367C346.523 29.3828 345.246 29.4531 343.23 29.4531H342.434V22.4922H347.297ZM361.113 22.3398V22.8906C361.102 23.5703 361.102 24.6133 360.844 25.9727L359.918 25.9023C360.17 24.6543 360.193 23.7695 360.211 23.1133H355.922V22.3398H361.113ZM358.43 24.6484V26.8867C359.584 26.8398 360.779 26.7578 361.863 26.6055L361.922 27.2852C359.742 27.6602 357.223 27.707 355.371 27.707L355.277 26.9453C355.951 26.9395 356.713 26.9336 357.516 26.9102V24.6484H358.43ZM363.504 21.5312V24.9297H365.027V25.7148H363.504V29.3711H362.566V21.5312H363.504ZM363.844 30.9531V31.7266H356.883V28.668H357.809V30.9531H363.844ZM374.309 21.5312V31.9727H373.395V21.5312H374.309ZM371.145 22.5039V26.207H367.254V28.668C368.982 28.668 370.523 28.5918 372.387 28.293L372.48 29.0664C370.559 29.3711 368.977 29.4414 367.184 29.4414H366.316V25.457H370.219V23.2656H366.293V22.5039H371.145ZM385.605 26.3711V27.0977H376.066V26.3711H385.605ZM384.41 27.9297V30.1445H378.152V31.1406H384.75V31.8086H377.227V29.5117H383.496V28.6211H377.215V27.9297H384.41ZM384.375 21.8477V24.0039H378.223V24.918H384.562V25.5859H377.309V23.3711H383.449V22.5156H377.273V21.8477H384.375ZM392.895 22.0469C394.453 22.0352 395.566 22.8906 395.566 24.168C395.566 25.4336 394.453 26.3125 392.895 26.3008C391.336 26.3125 390.223 25.4336 390.223 24.168C390.223 22.8906 391.336 22.0352 392.895 22.0469ZM392.895 22.7969C391.852 22.7852 391.113 23.3594 391.125 24.168C391.113 24.9883 391.852 25.5508 392.895 25.5391C393.949 25.5508 394.688 24.9883 394.688 24.168C394.688 23.3594 393.949 22.7852 392.895 22.7969ZM398.051 21.543V31.9609H397.148V21.543H398.051ZM389.438 27.1914C391.395 27.1914 394.066 27.1562 396.387 26.8164L396.445 27.5078C395.449 27.6895 394.412 27.8008 393.41 27.8594V31.6328H392.496V27.918C391.436 27.9648 390.434 27.9707 389.566 27.9766L389.438 27.1914ZM407.977 21.543V24.9766H409.547V25.75H407.977V29.3477H407.062V21.543H407.977ZM406.066 22.8203V23.5703H399.855V22.8203H402.504V21.543H403.418V22.8203H406.066ZM402.961 24.1445C404.449 24.1445 405.457 24.9062 405.469 26.0898C405.457 27.2617 404.449 28.0117 402.961 28.0117C401.461 28.0117 400.441 27.2617 400.453 26.0898C400.441 24.9062 401.461 24.1445 402.961 24.1445ZM402.961 24.8711C401.977 24.8711 401.32 25.3516 401.332 26.0898C401.32 26.8281 401.977 27.2969 402.961 27.2852C403.934 27.2969 404.59 26.8281 404.602 26.0898C404.59 25.3516 403.934 24.8711 402.961 24.8711ZM408.457 30.9531V31.7266H401.461V28.7266H402.363V30.9531H408.457ZM421.828 21.5312V26.9453H420.902V21.5312H421.828ZM421.828 27.4492V29.9336H415.945V31.082H422.227V31.832H415.043V29.2422H420.914V28.1875H415.008V27.4492H421.828ZM419.32 22.2461V22.9844H418.266V25.6445C418.805 25.6152 419.338 25.5625 419.836 25.5039L419.883 26.1836C417.797 26.4883 415.348 26.5703 413.508 26.5703L413.391 25.8086C413.807 25.8086 414.258 25.8086 414.727 25.7969V22.9844H413.684V22.2461H419.32ZM415.617 25.7734C416.191 25.7617 416.783 25.7441 417.375 25.7031V22.9844H415.617V25.7734ZM428.812 22.5039C428.812 23.9688 430.734 25.2461 432.609 25.5039L432.234 26.2539C430.617 25.9844 429.018 25.0879 428.344 23.8047C427.676 25.0938 426.07 25.9844 424.453 26.2539L424.078 25.5039C425.953 25.2461 427.863 23.9922 427.863 22.5039V21.9062H428.812V22.5039ZM433.078 27.4023V28.1758H428.766V31.9492H427.863V28.1758H423.586V27.4023H433.078ZM445.605 21.5312V27.7422H444.68V25.0117H442.582V24.25H444.68V21.5312H445.605ZM442.148 28.0703C444.316 28.0703 445.641 28.7734 445.641 30.0039C445.641 31.2344 444.316 31.9375 442.148 31.9492C439.98 31.9375 438.656 31.2344 438.656 30.0039C438.656 28.7734 439.98 28.0703 442.148 28.0703ZM442.148 28.7852C440.555 28.7852 439.559 29.2422 439.57 30.0039C439.559 30.7539 440.555 31.2109 442.148 31.2109C443.742 31.2109 444.727 30.7539 444.727 30.0039C444.727 29.2422 443.742 28.7852 442.148 28.7852ZM440.59 23.4414C440.59 24.8008 441.633 26.0898 443.156 26.6172L442.676 27.3555C441.504 26.9336 440.596 26.0605 440.156 24.9766C439.699 26.2012 438.732 27.1797 437.496 27.6484L437.016 26.9102C438.562 26.3477 439.664 24.9414 439.664 23.4531V23.0664H437.309V22.293H442.922V23.0664H440.59V23.4414ZM456.879 29.8516V30.6133H447.34V29.8516H451.629V27.6016H448.465V22.2695H449.391V24.1562H454.805V22.2695H455.707V27.6016H452.531V29.8516H456.879ZM449.391 26.8516H454.805V24.9062H449.391V26.8516ZM466.312 21.5312V27.1211H465.398V21.5312H466.312ZM460.477 27.6484V28.9141H465.398V27.6484H466.312V31.8086H459.562V27.6484H460.477ZM460.477 31.0586H465.398V29.6523H460.477V31.0586ZM460.688 22.0469C462.27 22.0352 463.418 23.0078 463.418 24.4375C463.418 25.8555 462.27 26.8281 460.688 26.8281C459.105 26.8281 457.957 25.8555 457.957 24.4375C457.957 23.0078 459.105 22.0352 460.688 22.0469ZM460.688 22.8203C459.621 22.8086 458.848 23.4883 458.859 24.4375C458.848 25.3867 459.621 26.0664 460.688 26.0664C461.742 26.0664 462.516 25.3867 462.516 24.4375C462.516 23.4883 461.742 22.8086 460.688 22.8203ZM476.672 21.5312V31.9492H475.758V21.5312H476.672ZM469.664 22.5625V28.4688C471.252 28.4629 472.898 28.334 474.645 27.9648L474.773 28.75C472.922 29.1367 471.27 29.2656 469.605 29.2656H468.762V22.5625H469.664ZM486.516 21.5312V25.6562H488.262V26.4297H486.516V31.9727H485.602V21.5312H486.516ZM483.773 22.5508V23.3125H479.824V28.5859C481.711 28.5859 483.047 28.498 484.594 28.2109L484.711 29.0078C483.082 29.3008 481.711 29.3594 479.73 29.3594H478.91V22.5508H483.773ZM489.926 31.0703C489.516 31.0703 489.164 30.7305 489.176 30.3086C489.164 29.8984 489.516 29.5586 489.926 29.5586C490.336 29.5586 490.676 29.8984 490.676 30.3086C490.676 30.7305 490.336 31.0703 489.926 31.0703Z" fill="white" fill-opacity="0.7"/>
</g>
<defs>
<filter id="filter0_dd_3411_68288" x="0" y="0" width="514" height="60" filterUnits="userSpaceOnUse" color-interpolation-filters="sRGB">
<feFlood flood-opacity="0" result="BackgroundImageFix"/>
<feColorMatrix in="SourceAlpha" type="matrix" values="0 0 0 0 0 0 0 0 0 0 0 0 0 0 0 0 0 0 127 0" result="hardAlpha"/>
<feOffset dx="2" dy="6"/>
<feGaussianBlur stdDeviation="6"/>
<feColorMatrix type="matrix" values="0 0 0 0 0 0 0 0 0 0 0 0 0 0 0 0 0 0 0.12 0"/>
<feBlend mode="normal" in2="BackgroundImageFix" result="effect1_dropShadow_3411_68288"/>
<feColorMatrix in="SourceAlpha" type="matrix" values="0 0 0 0 0 0 0 0 0 0 0 0 0 0 0 0 0 0 127 0" result="hardAlpha"/>
<feOffset/>
<feGaussianBlur stdDeviation="2"/>
<feColorMatrix type="matrix" values="0 0 0 0 0 0 0 0 0 0 0 0 0 0 0 0 0 0 0.12 0"/>
<feBlend mode="normal" in2="effect1_dropShadow_3411_68288" result="effect2_dropShadow_3411_68288"/>
<feBlend mode="normal" in="SourceGraphic" in2="effect2_dropShadow_3411_68288" result="shape"/>
</filter>
</defs>
</svg>
