<svg width="489" height="102" viewBox="0 0 489 102" fill="none" xmlns="http://www.w3.org/2000/svg">
<g filter="url(#filter0_dd_3411_70723)">
<path d="M462 6L457 12L467 12L462 6Z" fill="#4E545C"/>
<rect x="10" y="12" width="465" height="72" rx="4" fill="#4E545C"/>
<path d="M27.0117 21.5312V26.9336H26.1094V21.5312H27.0117ZM27.0234 27.4609V29.957H21.1758V31.082H27.3984V31.832H20.2734V29.2422H26.1094V28.1992H20.25V27.4609H27.0234ZM22.1133 22.6328C22.1016 24.1094 23.2266 25.4102 24.7734 25.9141L24.3164 26.6289C23.0977 26.2129 22.125 25.3398 21.6562 24.2148C21.1875 25.4277 20.209 26.3828 18.9727 26.8281L18.4922 26.1016C20.0625 25.5508 21.1758 24.168 21.1758 22.6328V21.8359H22.1133V22.6328ZM37.6992 21.5312V31.9492H36.8203V21.5312H37.6992ZM35.5898 21.7891V31.4102H34.7227V26.043H32.9648V25.293H34.7227V21.7891H35.5898ZM31.8516 24.5078C31.8516 26.3125 32.6602 28.1055 34.1016 28.9375L33.5391 29.6172C32.5137 29.002 31.7871 27.877 31.4297 26.5469C31.0488 27.9824 30.293 29.207 29.25 29.8633L28.6641 29.1719C30.1172 28.3047 30.9609 26.4062 30.9609 24.5078V23.5234H28.957V22.7617H33.7617V23.5234H31.8516V24.5078ZM51.9258 25.6914V26.4648H50.2383V31.9492H49.3242V21.5312H50.2383V25.6914H51.9258ZM43.5234 22.5625V28.5273C45.0469 28.5215 46.5996 28.4043 48.3164 28.0469L48.4336 28.832C46.6406 29.1953 45.0234 29.3008 43.4414 29.3008H42.6094V22.5625H43.5234ZM61.1367 21.5312V31.9727H60.2109V21.5312H61.1367ZM55.5938 22.3398C57.1406 22.3516 58.2539 23.7578 58.2539 25.9727C58.2539 28.1875 57.1406 29.5938 55.5938 29.5938C54.0352 29.5938 52.9336 28.1875 52.9336 25.9727C52.9336 23.7578 54.0352 22.3516 55.5938 22.3398ZM55.5938 23.1602C54.5508 23.1719 53.8242 24.2734 53.8242 25.9727C53.8242 27.6719 54.5508 28.7734 55.5938 28.7734C56.6367 28.7734 57.3633 27.6719 57.3633 25.9727C57.3633 24.2734 56.6367 23.1719 55.5938 23.1602ZM74.8359 21.5312V31.9492H73.957V26.4883H72.4219V31.4102H71.5781V21.7656H72.4219V25.7266H73.957V21.5312H74.8359ZM70.2188 22.8086V23.5703H67.2305V28.5859C68.666 28.5801 69.6621 28.5273 70.8164 28.293L70.8984 29.0664C69.6445 29.3242 68.5781 29.3711 66.9844 29.3711H66.3164V22.8086H70.2188ZM84.8906 21.5312V31.9727H83.9648V21.5312H84.8906ZM77.8242 22.4219V25.1758H80.9297V22.4219H81.832V29.4531H76.9102V22.4219H77.8242ZM77.8242 28.6797H80.9297V25.9141H77.8242V28.6797ZM97.9688 21.9648V22.6328C97.9688 23.3125 97.9688 24.1094 97.7695 25.1172L96.8555 25.0234C97.0488 24.0684 97.0547 23.3594 97.0547 22.7148H90.8203V21.9648H97.9688ZM99.1758 25.6914V26.4414H89.6953V25.6914H93.6211V23.8867H94.5234V25.6914H99.1758ZM98.0039 27.4141V29.8867H91.7578V31.082H98.2734V31.832H90.832V29.2305H97.0898V28.1641H90.8203V27.4141H98.0039ZM108.691 21.543V29.2422H107.766V26.4297H105.07C104.59 27.0449 103.816 27.4141 102.926 27.4141C101.367 27.4141 100.219 26.3359 100.219 24.8125C100.219 23.2891 101.367 22.2109 102.926 22.1992C103.811 22.2051 104.566 22.5684 105.059 23.1719H107.766V21.543H108.691ZM108.984 30.9531V31.7266H102V28.4336H102.926V30.9531H108.984ZM102.926 23.0195C101.859 23.0312 101.098 23.7695 101.098 24.8125C101.098 25.8555 101.859 26.5938 102.926 26.5938C103.945 26.5938 104.73 25.8555 104.73 24.8125C104.73 23.7695 103.945 23.0312 102.926 23.0195ZM105.48 23.9336C105.568 24.2031 105.621 24.4961 105.621 24.8125C105.621 25.1172 105.568 25.4043 105.48 25.668H107.766V23.9336H105.48ZM115.371 22.1289V25.0469H111.785V26.6406C113.742 26.6406 114.75 26.5996 115.98 26.3711L116.074 27.1328C114.773 27.3672 113.719 27.4023 111.609 27.3906H110.871V24.3086H114.457V22.8906H110.848V22.1289H115.371ZM119.062 21.543V27.9883H118.137V26.0664H116.074V25.293H118.137V23.9336H116.074V23.1836H118.137V21.543H119.062ZM115.617 28.1641C117.785 28.1641 119.098 28.8789 119.098 30.0977C119.098 31.3164 117.785 32.0078 115.617 32.0078C113.438 32.0078 112.113 31.3164 112.113 30.0977C112.113 28.8789 113.438 28.1641 115.617 28.1641ZM115.617 28.8906C114.012 28.8906 113.039 29.3359 113.051 30.0977C113.039 30.8477 114.012 31.2812 115.617 31.2812C117.211 31.2812 118.195 30.8477 118.195 30.0977C118.195 29.3359 117.211 28.8906 115.617 28.8906ZM124.207 22.293C125.848 22.293 127.008 23.2891 127.008 24.7422C127.008 26.1953 125.848 27.1914 124.207 27.1914C122.566 27.1914 121.383 26.1953 121.395 24.7422C121.383 23.2891 122.566 22.293 124.207 22.293ZM124.207 23.1016C123.094 23.1016 122.285 23.7695 122.297 24.7422C122.285 25.7148 123.094 26.3828 124.207 26.3828C125.309 26.3828 126.105 25.7148 126.105 24.7422C126.105 23.7695 125.309 23.1016 124.207 23.1016ZM129.34 21.5312V31.9727H128.426V21.5312H129.34ZM120.855 28.8906C122.777 28.8906 125.426 28.8789 127.734 28.5391L127.805 29.2188C125.426 29.6641 122.859 29.6758 120.984 29.6758L120.855 28.8906ZM137.766 23.1719C137.754 24.6602 138.809 25.9727 140.344 26.4883L139.828 27.2031C138.68 26.7695 137.777 25.9258 137.332 24.8242C136.881 26.0723 135.926 27.0449 134.672 27.5195L134.168 26.7695C135.773 26.207 136.84 24.8242 136.852 23.207V22.1289H137.766V23.1719ZM142.816 21.5312V27.707H141.891V24.5312H139.57V23.7695H141.891V21.5312H142.816ZM139.359 28.0117C141.527 28.0117 142.852 28.7266 142.852 29.9805C142.852 31.2227 141.527 31.9258 139.359 31.9258C137.191 31.9258 135.867 31.2227 135.867 29.9805C135.867 28.7266 137.191 28.0117 139.359 28.0117ZM139.359 28.7383C137.766 28.7383 136.77 29.207 136.781 29.9805C136.77 30.7305 137.766 31.1875 139.359 31.1875C140.953 31.1875 141.938 30.7305 141.938 29.9805C141.938 29.207 140.953 28.7383 139.359 28.7383ZM149.777 22.1641C149.777 23.4883 151.676 24.6484 153.504 24.918L153.141 25.6328C151.541 25.375 149.965 24.543 149.309 23.3594C148.641 24.5547 147.053 25.375 145.453 25.6328L145.102 24.918C146.941 24.6484 148.828 23.5117 148.828 22.1641V21.6719H149.777V22.1641ZM154.043 26.4648V27.2266H149.742V28.5625H152.871V31.9492H151.945V29.3125H145.605V28.5625H148.84V27.2266H144.551V26.4648H154.043ZM163.336 26.418V27.168H160.113V29.8633H164.461V30.6367H154.922V29.8633H159.211V27.168H156.141V22.3867H163.23V23.1367H157.066V26.418H163.336ZM174.82 26.3711V27.0977H165.281V26.3711H174.82ZM173.625 27.9297V30.1445H167.367V31.1406H173.965V31.8086H166.441V29.5117H172.711V28.6211H166.43V27.9297H173.625ZM173.59 21.8477V24.0039H167.438V24.918H173.777V25.5859H166.523V23.3711H172.664V22.5156H166.488V21.8477H173.59ZM186.738 21.5312V25.6328H188.484V26.4297H186.738V31.9492H185.824V21.5312H186.738ZM180.023 22.4219V25.1758H183.07V22.4219H183.984V29.4531H179.109V22.4219H180.023ZM180.023 28.6797H183.07V25.9141H180.023V28.6797ZM197.191 21.5312V24.25H198.762V25.0117H197.191V27.9414H196.277V21.5312H197.191ZM193.875 28.2109C196.008 28.2109 197.309 28.8906 197.309 30.0742C197.309 31.2578 196.008 31.9258 193.875 31.9258C191.719 31.9258 190.406 31.2578 190.418 30.0742C190.406 28.8906 191.719 28.2109 193.875 28.2109ZM193.875 28.9375C192.281 28.9375 191.332 29.3594 191.332 30.0742C191.332 30.7891 192.281 31.2109 193.875 31.2109C195.434 31.2109 196.395 30.7891 196.395 30.0742C196.395 29.3594 195.434 28.9375 193.875 28.9375ZM194.332 22.2695V23.0195H190.453V24.3555H194.133V25.0938H190.453V26.4766C192.48 26.4883 193.646 26.4238 195.012 26.1953L195.117 26.9336C193.676 27.1914 192.48 27.2383 190.324 27.2266H189.539V22.2695H194.332ZM204.164 22.2109C206.344 22.2109 207.973 23.3477 207.973 25.0703C207.973 26.8047 206.344 27.9414 204.164 27.9297C201.984 27.9414 200.355 26.8047 200.355 25.0703C200.355 23.3477 201.984 22.2109 204.164 22.2109ZM204.164 22.9609C202.488 22.9492 201.223 23.8281 201.234 25.0703C201.223 26.3359 202.488 27.1797 204.164 27.1797C205.828 27.1797 207.082 26.3359 207.082 25.0703C207.082 23.8281 205.828 22.9492 204.164 22.9609ZM208.957 29.793V30.5664H199.418V29.793H208.957ZM219.328 29.8867V30.6602H209.789V29.8867H214.078V27.918H210.984V24.707H217.219V23.0664H210.961V22.3047H218.121V25.457H211.898V27.1562H218.367V27.918H214.98V29.8867H219.328ZM226.676 23.5C226.664 24.9297 227.754 26.2539 229.289 26.793L228.82 27.5312C227.637 27.1035 226.717 26.2188 226.254 25.1055C225.814 26.3535 224.871 27.3145 223.641 27.7891L223.137 27.0508C224.719 26.4883 225.762 25.082 225.773 23.4648V22.1758H226.676V23.5ZM231.316 21.5312V24.7305H232.887V25.5156H231.316V29.2305H230.402V21.5312H231.316ZM231.797 30.9531V31.7266H224.812V28.4922H225.75V30.9531H231.797ZM243.035 26.1719V26.8867H238.734V27.8594H241.816V30.1094H235.629V31.1289H242.133V31.832H234.715V29.4531H240.914V28.5508H234.691V27.8594H237.832V26.8867H233.555V26.1719H243.035ZM238.734 21.4727V22.4453H242.074V23.1719H238.805C238.975 24.209 240.604 24.8652 242.52 24.9883L242.238 25.6914C240.498 25.5449 238.928 25.0059 238.289 24.0156C237.65 25.0059 236.08 25.5449 234.328 25.6914L234.059 24.9883C235.963 24.8652 237.592 24.209 237.773 23.1719H234.527V22.4453H237.832V21.4727H238.734ZM249.973 24.9531V25.7031H247.863V27.1562C248.836 27.1152 249.809 27.0449 250.711 26.9453L250.781 27.625C248.543 27.9297 246.059 28 244.102 28L243.961 27.25C244.875 27.2441 245.9 27.2324 246.949 27.1914V25.7031H244.91V22.2109H249.891V22.9727H245.836V24.9531H249.973ZM252.504 21.543V29.3359H251.578V21.543H252.504ZM252.844 30.9531V31.7266H245.742V28.7969H246.656V30.9531H252.844ZM266.988 23.3594V24.1211H265.441V25.5625H266.988V26.3359H265.441V28.2578H264.527V21.5312H265.441V23.3594H266.988ZM262.148 28.3281C264.27 28.3281 265.559 28.9961 265.559 30.1328C265.559 31.2695 264.27 31.9258 262.148 31.9258C260.027 31.9258 258.727 31.2695 258.738 30.1328C258.727 28.9961 260.027 28.3281 262.148 28.3281ZM262.148 29.0547C260.59 29.0547 259.641 29.4414 259.652 30.1328C259.641 30.8125 260.59 31.2109 262.148 31.2109C263.707 31.2109 264.645 30.8125 264.645 30.1328C264.645 29.4414 263.707 29.0547 262.148 29.0547ZM263.531 22.7266V23.4531H257.32V22.7266H259.969V21.4492H260.883V22.7266H263.531ZM260.426 23.9922C261.926 23.9922 262.922 24.7188 262.934 25.832C262.922 26.957 261.926 27.6719 260.426 27.6719C258.914 27.6719 257.906 26.957 257.918 25.832C257.906 24.7188 258.914 23.9922 260.426 23.9922ZM260.426 24.6836C259.441 24.6953 258.785 25.1523 258.797 25.832C258.785 26.5117 259.441 26.957 260.426 26.957C261.398 26.957 262.055 26.5117 262.066 25.832C262.055 25.1523 261.398 24.6953 260.426 24.6836ZM276.609 22.7266V23.4883H268.16V22.7266H271.957V21.4727H272.859V22.7266H276.609ZM277.207 28.2812V29.043H272.859V31.9727H271.957V29.043H267.668V28.2812H277.207ZM272.414 24.0859C274.535 24.0859 275.812 24.707 275.812 25.832C275.812 26.9336 274.535 27.5547 272.414 27.5664C270.281 27.5547 269.004 26.9336 269.016 25.832C269.004 24.707 270.281 24.0859 272.414 24.0859ZM272.414 24.7891C270.855 24.7891 269.953 25.1758 269.965 25.832C269.953 26.4766 270.855 26.8516 272.414 26.8516C273.949 26.8516 274.852 26.4766 274.863 25.832C274.852 25.1758 273.949 24.7891 272.414 24.7891ZM284.637 23.1719C284.625 24.6602 285.68 25.9727 287.215 26.4883L286.699 27.2031C285.551 26.7695 284.648 25.9258 284.203 24.8242C283.752 26.0723 282.797 27.0449 281.543 27.5195L281.039 26.7695C282.645 26.207 283.711 24.8242 283.723 23.207V22.1289H284.637V23.1719ZM289.688 21.5312V27.707H288.762V24.5312H286.441V23.7695H288.762V21.5312H289.688ZM286.23 28.0117C288.398 28.0117 289.723 28.7266 289.723 29.9805C289.723 31.2227 288.398 31.9258 286.23 31.9258C284.062 31.9258 282.738 31.2227 282.738 29.9805C282.738 28.7266 284.062 28.0117 286.23 28.0117ZM286.23 28.7383C284.637 28.7383 283.641 29.207 283.652 29.9805C283.641 30.7305 284.637 31.1875 286.23 31.1875C287.824 31.1875 288.809 30.7305 288.809 29.9805C288.809 29.207 287.824 28.7383 286.23 28.7383ZM294.949 23.5117C294.949 24.8711 295.969 26.0898 297.504 26.5938L297.07 27.3203C295.869 26.9277 294.961 26.0957 294.516 25.0469C294.064 26.2422 293.104 27.1738 291.855 27.625L291.387 26.8867C292.945 26.3594 294.035 25.0117 294.047 23.5117V23.0664H291.668V22.3047H297.293V23.0664H294.949V23.5117ZM299.566 21.5312V24.1914H301.137V24.9648H299.566V27.8242H298.652V21.5312H299.566ZM296.227 28.1055C298.371 28.1055 299.66 28.8086 299.66 30.0039C299.66 31.2227 298.371 31.9258 296.227 31.9258C294.082 31.9258 292.77 31.2227 292.77 30.0039C292.77 28.8086 294.082 28.1055 296.227 28.1055ZM296.227 28.8438C294.656 28.8438 293.684 29.2773 293.695 30.0039C293.684 30.7539 294.656 31.1875 296.227 31.1875C297.809 31.1875 298.77 30.7539 298.77 30.0039C298.77 29.2773 297.809 28.8438 296.227 28.8438ZM307.605 22.3398C308.561 22.3457 309.334 22.9023 309.785 23.8633H312.527V21.5312H313.441V31.9727H312.527V27.9297H309.855C309.416 28.9844 308.613 29.5938 307.605 29.5938C306.07 29.5938 304.992 28.1875 304.992 25.9727C304.992 23.7578 306.07 22.3516 307.605 22.3398ZM307.605 23.1602C306.574 23.1719 305.871 24.2734 305.871 25.9727C305.871 27.6719 306.574 28.7734 307.605 28.7734C308.625 28.7734 309.34 27.6719 309.34 25.9727C309.34 24.2734 308.625 23.1719 307.605 23.1602ZM310.055 24.6367C310.148 25.041 310.207 25.4863 310.207 25.9727C310.207 26.4004 310.16 26.8047 310.09 27.168H312.527V24.6367H310.055ZM320.121 22.1758V25.0938H316.535V26.7109C318.492 26.7109 319.5 26.6816 320.73 26.4531L320.824 27.2148C319.523 27.4258 318.469 27.4609 316.359 27.4609H315.621V24.3906H319.207V22.9141H315.598V22.1758H320.121ZM323.812 21.543V27.9414H322.887V26.0078H320.812V25.2461H322.887V23.8398H320.812V23.0898H322.887V21.543H323.812ZM323.812 28.5039V31.9727H322.887V29.2539H316.793V28.5039H323.812ZM337.195 21.5312V27.6367H336.27V24.918H334.16V24.1445H336.27V21.5312H337.195ZM337.195 28.1523V31.8086H330.387V28.1523H337.195ZM331.301 28.8906V31.0586H336.293V28.8906H331.301ZM332.18 23.3828C332.18 24.7305 333.223 26.0312 334.746 26.5703L334.266 27.2969C333.088 26.875 332.18 25.9961 331.734 24.918C331.283 26.1191 330.322 27.0801 329.086 27.5312L328.605 26.8047C330.141 26.2539 331.254 24.8711 331.254 23.3828V22.9727H328.898V22.2109H334.512V22.9727H332.18V23.3828ZM344.156 22.5039C344.156 23.9688 346.078 25.2461 347.953 25.5039L347.578 26.2539C345.961 25.9844 344.361 25.0879 343.688 23.8047C343.02 25.0938 341.414 25.9844 339.797 26.2539L339.422 25.5039C341.297 25.2461 343.207 23.9922 343.207 22.5039V21.9062H344.156V22.5039ZM348.422 27.4023V28.1758H344.109V31.9492H343.207V28.1758H338.93V27.4023H348.422ZM357.902 21.5312V27.1211H356.988V21.5312H357.902ZM352.066 27.6484V28.9141H356.988V27.6484H357.902V31.8086H351.152V27.6484H352.066ZM352.066 31.0586H356.988V29.6523H352.066V31.0586ZM352.277 22.0469C353.859 22.0352 355.008 23.0078 355.008 24.4375C355.008 25.8555 353.859 26.8281 352.277 26.8281C350.695 26.8281 349.547 25.8555 349.547 24.4375C349.547 23.0078 350.695 22.0352 352.277 22.0469ZM352.277 22.8203C351.211 22.8086 350.438 23.4883 350.449 24.4375C350.438 25.3867 351.211 26.0664 352.277 26.0664C353.332 26.0664 354.105 25.3867 354.105 24.4375C354.105 23.4883 353.332 22.8086 352.277 22.8203ZM368.262 21.5312V31.9492H367.348V21.5312H368.262ZM361.254 22.5625V28.4688C362.842 28.4629 364.488 28.334 366.234 27.9648L366.363 28.75C364.512 29.1367 362.859 29.2656 361.195 29.2656H360.352V22.5625H361.254ZM378.105 21.5312V25.6562H379.852V26.4297H378.105V31.9727H377.191V21.5312H378.105ZM375.363 22.5508V23.3125H371.414V28.5859C373.301 28.5859 374.637 28.498 376.184 28.2109L376.301 29.0078C374.672 29.3008 373.301 29.3594 371.32 29.3594H370.5V22.5508H375.363ZM381.516 31.0703C381.105 31.0703 380.754 30.7305 380.766 30.3086C380.754 29.8984 381.105 29.5586 381.516 29.5586C381.926 29.5586 382.266 29.8984 382.266 30.3086C382.266 30.7305 381.926 31.0703 381.516 31.0703ZM26.9531 42.8203C26.2969 42.8203 25.7578 42.2812 25.7578 41.6133C25.7578 40.957 26.2969 40.418 26.9531 40.418C27.6211 40.418 28.1602 40.957 28.1602 41.6133C28.1602 42.2812 27.6211 42.8203 26.9531 42.8203ZM39.832 36.293C41.4727 36.293 42.6328 37.2891 42.6328 38.7422C42.6328 40.1953 41.4727 41.1914 39.832 41.1914C38.1914 41.1914 37.0078 40.1953 37.0195 38.7422C37.0078 37.2891 38.1914 36.293 39.832 36.293ZM39.832 37.1016C38.7188 37.1016 37.9102 37.7695 37.9219 38.7422C37.9102 39.7148 38.7188 40.3828 39.832 40.3828C40.9336 40.3828 41.7305 39.7148 41.7305 38.7422C41.7305 37.7695 40.9336 37.1016 39.832 37.1016ZM44.9648 35.5312V45.9727H44.0508V35.5312H44.9648ZM36.4805 42.8906C38.4023 42.8906 41.0508 42.8789 43.3594 42.5391L43.4297 43.2188C41.0508 43.6641 38.4844 43.6758 36.6094 43.6758L36.4805 42.8906ZM52.2188 36.5625V43.3359H47.4023V36.5625H52.2188ZM48.3047 37.3008V42.5859H51.3164V37.3008H48.3047ZM55.3828 35.5312V45.9727H54.457V35.5312H55.3828ZM58.2656 45.0703C57.8555 45.0703 57.5039 44.7305 57.5156 44.3086C57.5039 43.8984 57.8555 43.5586 58.2656 43.5586C58.6758 43.5586 59.0156 43.8984 59.0156 44.3086C59.0156 44.7305 58.6758 45.0703 58.2656 45.0703ZM58.2656 40.3594C57.8555 40.3594 57.5039 40.0195 57.5156 39.5977C57.5039 39.1875 57.8555 38.8477 58.2656 38.8477C58.6758 38.8477 59.0156 39.1875 59.0156 39.5977C59.0156 40.0195 58.6758 40.3594 58.2656 40.3594ZM71.5078 35.9648V36.6328C71.5078 37.3125 71.5078 38.1094 71.3086 39.1172L70.3945 39.0234C70.5879 38.0684 70.5938 37.3594 70.5938 36.7148H64.3594V35.9648H71.5078ZM72.7148 39.6914V40.4414H63.2344V39.6914H67.1602V37.8867H68.0625V39.6914H72.7148ZM71.543 41.4141V43.8867H65.2969V45.082H71.8125V45.832H64.3711V43.2305H70.6289V42.1641H64.3594V41.4141H71.543ZM82.2305 35.543V43.2422H81.3047V40.4297H78.6094C78.1289 41.0449 77.3555 41.4141 76.4648 41.4141C74.9062 41.4141 73.7578 40.3359 73.7578 38.8125C73.7578 37.2891 74.9062 36.2109 76.4648 36.1992C77.3496 36.2051 78.1055 36.5684 78.5977 37.1719H81.3047V35.543H82.2305ZM82.5234 44.9531V45.7266H75.5391V42.4336H76.4648V44.9531H82.5234ZM76.4648 37.0195C75.3984 37.0312 74.6367 37.7695 74.6367 38.8125C74.6367 39.8555 75.3984 40.5938 76.4648 40.5938C77.4844 40.5938 78.2695 39.8555 78.2695 38.8125C78.2695 37.7695 77.4844 37.0312 76.4648 37.0195ZM79.0195 37.9336C79.1074 38.2031 79.1602 38.4961 79.1602 38.8125C79.1602 39.1172 79.1074 39.4043 79.0195 39.668H81.3047V37.9336H79.0195ZM88.9102 36.1289V39.0469H85.3242V40.6406C87.2812 40.6406 88.2891 40.5996 89.5195 40.3711L89.6133 41.1328C88.3125 41.3672 87.2578 41.4023 85.1484 41.3906H84.4102V38.3086H87.9961V36.8906H84.3867V36.1289H88.9102ZM92.6016 35.543V41.9883H91.6758V40.0664H89.6133V39.293H91.6758V37.9336H89.6133V37.1836H91.6758V35.543H92.6016ZM89.1562 42.1641C91.3242 42.1641 92.6367 42.8789 92.6367 44.0977C92.6367 45.3164 91.3242 46.0078 89.1562 46.0078C86.9766 46.0078 85.6523 45.3164 85.6523 44.0977C85.6523 42.8789 86.9766 42.1641 89.1562 42.1641ZM89.1562 42.8906C87.5508 42.8906 86.5781 43.3359 86.5898 44.0977C86.5781 44.8477 87.5508 45.2812 89.1562 45.2812C90.75 45.2812 91.7344 44.8477 91.7344 44.0977C91.7344 43.3359 90.75 42.8906 89.1562 42.8906ZM102.926 35.5312V45.9727H102V35.5312H102.926ZM97.3828 36.3398C98.9297 36.3516 100.043 37.7578 100.043 39.9727C100.043 42.1875 98.9297 43.5938 97.3828 43.5938C95.8242 43.5938 94.7227 42.1875 94.7227 39.9727C94.7227 37.7578 95.8242 36.3516 97.3828 36.3398ZM97.3828 37.1602C96.3398 37.1719 95.6133 38.2734 95.6133 39.9727C95.6133 41.6719 96.3398 42.7734 97.3828 42.7734C98.4258 42.7734 99.1523 41.6719 99.1523 39.9727C99.1523 38.2734 98.4258 37.1719 97.3828 37.1602ZM116.309 35.5312V40.9336H115.406V35.5312H116.309ZM116.32 41.4609V43.957H110.473V45.082H116.695V45.832H109.57V43.2422H115.406V42.1992H109.547V41.4609H116.32ZM111.41 36.6328C111.398 38.1094 112.523 39.4102 114.07 39.9141L113.613 40.6289C112.395 40.2129 111.422 39.3398 110.953 38.2148C110.484 39.4277 109.506 40.3828 108.27 40.8281L107.789 40.1016C109.359 39.5508 110.473 38.168 110.473 36.6328V35.8359H111.41V36.6328ZM126.996 35.5312V45.9492H126.117V35.5312H126.996ZM124.887 35.7891V45.4102H124.02V40.043H122.262V39.293H124.02V35.7891H124.887ZM121.148 38.5078C121.148 40.3125 121.957 42.1055 123.398 42.9375L122.836 43.6172C121.811 43.002 121.084 41.877 120.727 40.5469C120.346 41.9824 119.59 43.207 118.547 43.8633L117.961 43.1719C119.414 42.3047 120.258 40.4062 120.258 38.5078V37.5234H118.254V36.7617H123.059V37.5234H121.148V38.5078ZM141.223 39.6914V40.4648H139.535V45.9492H138.621V35.5312H139.535V39.6914H141.223ZM132.82 36.5625V42.5273C134.344 42.5215 135.896 42.4043 137.613 42.0469L137.73 42.832C135.938 43.1953 134.32 43.3008 132.738 43.3008H131.906V36.5625H132.82ZM150.434 35.5312V45.9727H149.508V35.5312H150.434ZM144.891 36.3398C146.438 36.3516 147.551 37.7578 147.551 39.9727C147.551 42.1875 146.438 43.5938 144.891 43.5938C143.332 43.5938 142.23 42.1875 142.23 39.9727C142.23 37.7578 143.332 36.3516 144.891 36.3398ZM144.891 37.1602C143.848 37.1719 143.121 38.2734 143.121 39.9727C143.121 41.6719 143.848 42.7734 144.891 42.7734C145.934 42.7734 146.66 41.6719 146.66 39.9727C146.66 38.2734 145.934 37.1719 144.891 37.1602ZM161.754 43.8516V44.6133H152.215V43.8516H156.504V41.6016H153.34V36.2695H154.266V38.1562H159.68V36.2695H160.582V41.6016H157.406V43.8516H161.754ZM154.266 40.8516H159.68V38.9062H154.266V40.8516ZM170.648 35.5312V39.6562H172.395V40.4297H170.648V45.9727H169.734V35.5312H170.648ZM167.906 36.5508V37.3125H163.957V42.5859C165.844 42.5859 167.18 42.498 168.727 42.2109L168.844 43.0078C167.215 43.3008 165.844 43.3594 163.863 43.3594H163.043V36.5508H167.906ZM184.113 35.5195V38.0859H185.684V38.8711H184.113V41.4375H183.199V35.5195H184.113ZM177.398 36.1055V39.832C178.881 39.8262 180.41 39.7207 182.098 39.375L182.215 40.1484C180.445 40.5 178.875 40.6172 177.305 40.6172H176.473V36.1055H177.398ZM184.301 41.9648V42.7266H181.348C181.389 43.8691 182.965 44.9121 184.699 45.1992L184.336 45.9141C182.818 45.6387 181.453 44.8594 180.867 43.793C180.293 44.8711 178.916 45.627 177.398 45.8906L177.035 45.1875C178.781 44.9121 180.334 43.8926 180.387 42.7266H177.434V41.9648H184.301ZM189.129 36.3398C190.664 36.3516 191.754 37.7578 191.766 39.9727C191.754 42.1875 190.664 43.5938 189.129 43.5938C187.582 43.5938 186.504 42.1875 186.504 39.9727C186.504 37.7578 187.582 36.3516 189.129 36.3398ZM189.129 37.1602C188.098 37.1719 187.371 38.2734 187.371 39.9727C187.371 41.6719 188.098 42.7734 189.129 42.7734C190.172 42.7734 190.875 41.6719 190.875 39.9727C190.875 38.2734 190.172 37.1719 189.129 37.1602ZM194.402 35.5312V39.6914H196.148V40.4883H194.402V45.9492H193.488V35.5312H194.402ZM203.309 37.1719C203.297 38.6602 204.352 39.9727 205.887 40.4883L205.371 41.2031C204.223 40.7695 203.32 39.9258 202.875 38.8242C202.424 40.0723 201.469 41.0449 200.215 41.5195L199.711 40.7695C201.316 40.207 202.383 38.8242 202.395 37.207V36.1289H203.309V37.1719ZM208.359 35.5312V41.707H207.434V38.5312H205.113V37.7695H207.434V35.5312H208.359ZM204.902 42.0117C207.07 42.0117 208.395 42.7266 208.395 43.9805C208.395 45.2227 207.07 45.9258 204.902 45.9258C202.734 45.9258 201.41 45.2227 201.41 43.9805C201.41 42.7266 202.734 42.0117 204.902 42.0117ZM204.902 42.7383C203.309 42.7383 202.312 43.207 202.324 43.9805C202.312 44.7305 203.309 45.1875 204.902 45.1875C206.496 45.1875 207.48 44.7305 207.48 43.9805C207.48 43.207 206.496 42.7383 204.902 42.7383ZM215.32 36.1641C215.32 37.4883 217.219 38.6484 219.047 38.918L218.684 39.6328C217.084 39.375 215.508 38.543 214.852 37.3594C214.184 38.5547 212.596 39.375 210.996 39.6328L210.645 38.918C212.484 38.6484 214.371 37.5117 214.371 36.1641V35.6719H215.32V36.1641ZM219.586 40.4648V41.2266H215.285V42.5625H218.414V45.9492H217.488V43.3125H211.148V42.5625H214.383V41.2266H210.094V40.4648H219.586ZM229.055 35.5312V45.9727H228.129V35.5312H229.055ZM223.512 36.3398C225.059 36.3516 226.172 37.7578 226.172 39.9727C226.172 42.1875 225.059 43.5938 223.512 43.5938C221.953 43.5938 220.852 42.1875 220.852 39.9727C220.852 37.7578 221.953 36.3516 223.512 36.3398ZM223.512 37.1602C222.469 37.1719 221.742 38.2734 221.742 39.9727C221.742 41.6719 222.469 42.7734 223.512 42.7734C224.555 42.7734 225.281 41.6719 225.281 39.9727C225.281 38.2734 224.555 37.1719 223.512 37.1602ZM242.285 40.2539V41.0156H235.02V36.4453H235.945V40.2539H242.285ZM243.387 43.7344V44.5078H233.848V43.7344H243.387ZM249.527 36.0469V38.5898H245.66V39.8789C247.635 39.8789 248.971 39.8262 250.605 39.5742L250.688 40.2891C249.012 40.5586 247.641 40.6172 245.59 40.6172H244.746V37.9102H248.625V36.7617H244.711V36.0469H249.527ZM252.82 41.4844V43.9336H246.984V45.0938H253.195V45.832H246.07V43.2422H251.883V42.2109H246.047V41.4844H252.82ZM252.82 35.5312V41.0273H251.906V35.5312H252.82ZM259.816 36.5039C259.816 37.9688 261.738 39.2461 263.613 39.5039L263.238 40.2539C261.621 39.9844 260.021 39.0879 259.348 37.8047C258.68 39.0938 257.074 39.9844 255.457 40.2539L255.082 39.5039C256.957 39.2461 258.867 37.9922 258.867 36.5039V35.9062H259.816V36.5039ZM264.082 41.4023V42.1758H259.77V45.9492H258.867V42.1758H254.59V41.4023H264.082ZM274.488 41.2734V42.0352H264.949V41.2734H269.262V40.1719H266.191V37.6289H272.332V36.5508H266.156V35.8008H273.258V38.3203H267.105V39.4336H273.48V40.1719H270.164V41.2734H274.488ZM273.316 42.832V45.8555H272.391V43.582H266.016V42.832H273.316ZM275.977 41.7656C275.988 39.5508 276.586 37.7109 277.664 36.1523H278.555C277.758 37.3125 277.02 39.6797 277.02 41.7656C277.02 43.8516 277.758 46.2305 278.555 47.3906H277.664C276.586 45.8203 275.988 43.9805 275.977 41.7656ZM279.938 45V36.5156H280.992V44.0625H284.93V45H279.938ZM285.902 43.1953C285.902 41.7305 287.191 41.4023 288.293 41.3203C288.697 41.291 289.729 41.2383 290.016 41.2266V40.7109C290.016 39.9023 289.535 39.4336 288.574 39.4336C287.766 39.4336 287.285 39.8086 287.145 40.2891H286.09C286.219 39.2695 287.215 38.5547 288.621 38.5547C289.453 38.5547 291.012 38.8008 291.012 40.8047V45H290.016V44.1328H289.969C289.758 44.5664 289.172 45.1523 288.07 45.1523C286.863 45.1523 285.902 44.4375 285.902 43.1953ZM286.91 43.2422C286.91 43.9102 287.473 44.25 288.246 44.25C289.383 44.25 290.016 43.4883 290.016 42.6914V42.0469C289.717 42.0703 288.715 42.1465 288.41 42.1641C287.496 42.2227 286.91 42.5508 286.91 43.2422ZM295.406 38.6367V39.4805H294.07V43.1719C294.07 43.9922 294.469 44.1211 294.902 44.1211C295.09 44.1211 295.348 44.1094 295.5 44.0977V45.0352C295.348 45.0586 295.09 45.082 294.797 45.082C293.953 45.082 293.051 44.5547 293.051 43.4297V39.4805H292.09V38.6367H293.051V37.1133H294.07V38.6367H295.406ZM299.309 45.1289C297.469 45.1289 296.332 43.8281 296.332 41.8711C296.332 39.9141 297.48 38.5547 299.215 38.5547C300.551 38.5547 301.957 39.375 301.957 41.7305V42.1523H297.34C297.387 43.5 298.172 44.2383 299.309 44.2383C300.07 44.2383 300.551 43.9102 300.785 43.5117H301.863C301.559 44.4727 300.621 45.1289 299.309 45.1289ZM297.352 41.2969H300.938C300.938 40.2305 300.258 39.4453 299.215 39.4453C298.113 39.4453 297.41 40.3125 297.352 41.2969ZM306.41 36.5156H307.676L310.535 43.5H310.641L313.5 36.5156H314.766V45H313.77V38.5898H313.688L311.051 45H310.113L307.477 38.5898H307.406V45H306.41V36.5156ZM316.207 43.1953C316.207 41.7305 317.496 41.4023 318.598 41.3203C319.002 41.291 320.033 41.2383 320.32 41.2266V40.7109C320.32 39.9023 319.84 39.4336 318.879 39.4336C318.07 39.4336 317.59 39.8086 317.449 40.2891H316.395C316.523 39.2695 317.52 38.5547 318.926 38.5547C319.758 38.5547 321.316 38.8008 321.316 40.8047V45H320.32V44.1328H320.273C320.062 44.5664 319.477 45.1523 318.375 45.1523C317.168 45.1523 316.207 44.4375 316.207 43.1953ZM317.215 43.2422C317.215 43.9102 317.777 44.25 318.551 44.25C319.688 44.25 320.32 43.4883 320.32 42.6914V42.0469C320.021 42.0703 319.02 42.1465 318.715 42.1641C317.801 42.2227 317.215 42.5508 317.215 43.2422ZM325.711 38.6367V39.4805H324.375V43.1719C324.375 43.9922 324.773 44.1211 325.207 44.1211C325.395 44.1211 325.652 44.1094 325.805 44.0977V45.0352C325.652 45.0586 325.395 45.082 325.102 45.082C324.258 45.082 323.355 44.5547 323.355 43.4297V39.4805H322.395V38.6367H323.355V37.1133H324.375V38.6367H325.711ZM331.031 42.3867V38.6367H332.027V45H331.031V43.9219H330.961C330.656 44.5664 330.035 45.082 329.074 45.082C327.867 45.082 327.012 44.2969 327.012 42.6797V38.6367H328.02V42.6094C328.02 43.5234 328.594 44.1094 329.402 44.1094C330.117 44.1094 331.031 43.5703 331.031 42.3867ZM333.645 45V38.6367H334.617V39.6094H334.688C334.922 38.9648 335.578 38.5312 336.328 38.5312C336.48 38.5312 336.738 38.543 336.855 38.5547V39.5742C336.785 39.5508 336.504 39.5039 336.246 39.5039C335.332 39.5039 334.652 40.1367 334.652 40.9922V45H333.645ZM337.84 45V38.6367H338.848V45H337.84ZM338.344 37.582C337.957 37.582 337.641 37.2891 337.641 36.9141C337.641 36.5391 337.957 36.2461 338.344 36.2461C338.73 36.2461 339.059 36.5391 339.059 36.9141C339.059 37.2891 338.73 37.582 338.344 37.582ZM343.23 38.6367V39.4805H341.895V43.1719C341.895 43.9922 342.293 44.1211 342.727 44.1211C342.914 44.1211 343.172 44.1094 343.324 44.0977V45.0352C343.172 45.0586 342.914 45.082 342.621 45.082C341.777 45.082 340.875 44.5547 340.875 43.4297V39.4805H339.914V38.6367H340.875V37.1133H341.895V38.6367H343.23ZM345.176 47.3906C344.953 47.3906 344.742 47.3789 344.613 47.3672V46.4648C344.719 46.4766 344.953 46.4883 345.105 46.4883C345.516 46.4883 345.855 46.4531 346.195 45.5273L346.383 45.0469L344.027 38.6367H345.129L346.863 43.6875H346.934L348.668 38.6367H349.77L347.074 45.9141C346.699 46.9102 346.078 47.3906 345.176 47.3906ZM353.098 41.7656C353.086 43.9805 352.488 45.8203 351.41 47.3906H350.52C351.316 46.2305 352.055 43.8516 352.055 41.7656C352.055 39.6797 351.316 37.3125 350.52 36.1523H351.41C352.488 37.7109 353.086 39.5508 353.098 41.7656ZM366.234 35.5312V41.6367H365.309V38.918H363.199V38.1445H365.309V35.5312H366.234ZM366.234 42.1523V45.8086H359.426V42.1523H366.234ZM360.34 42.8906V45.0586H365.332V42.8906H360.34ZM361.219 37.3828C361.219 38.7305 362.262 40.0312 363.785 40.5703L363.305 41.2969C362.127 40.875 361.219 39.9961 360.773 38.918C360.322 40.1191 359.361 41.0801 358.125 41.5312L357.645 40.8047C359.18 40.2539 360.293 38.8711 360.293 37.3828V36.9727H357.938V36.2109H363.551V36.9727H361.219V37.3828ZM373.195 36.5039C373.195 37.9688 375.117 39.2461 376.992 39.5039L376.617 40.2539C375 39.9844 373.4 39.0879 372.727 37.8047C372.059 39.0938 370.453 39.9844 368.836 40.2539L368.461 39.5039C370.336 39.2461 372.246 37.9922 372.246 36.5039V35.9062H373.195V36.5039ZM377.461 41.4023V42.1758H373.148V45.9492H372.246V42.1758H367.969V41.4023H377.461ZM386.402 35.5312V39.7734H388.09V40.5469H386.402V45.9492H385.488V35.5312H386.402ZM383.707 36.6562C383.707 39.6094 382.324 42.293 378.926 43.9688L378.41 43.2422C381.105 41.9004 382.57 39.8965 382.781 37.4297H378.891V36.6562H383.707ZM400.16 38.2266V38.9648H396.926V40.2891H401.215V41.0508H391.723V40.2891H396.012V38.9648H393.023V35.7656H393.938V38.2266H400.16ZM400.172 42.0938V42.832H398.555V45.0586H400.254V45.8086H392.695V45.0586H394.395V42.832H392.789V42.0938H400.172ZM395.309 45.0586H397.652V42.832H395.309V45.0586ZM406.84 36.2109C409.02 36.2109 410.648 37.3477 410.648 39.0703C410.648 40.8047 409.02 41.9414 406.84 41.9297C404.66 41.9414 403.031 40.8047 403.031 39.0703C403.031 37.3477 404.66 36.2109 406.84 36.2109ZM406.84 36.9609C405.164 36.9492 403.898 37.8281 403.91 39.0703C403.898 40.3359 405.164 41.1797 406.84 41.1797C408.504 41.1797 409.758 40.3359 409.758 39.0703C409.758 37.8281 408.504 36.9492 406.84 36.9609ZM411.633 43.793V44.5664H402.094V43.793H411.633ZM417.633 36.5742V38.0391H420.188V35.5312H421.102V45.9727H420.188V41.6719H417.633V43.3125H412.887V36.5742H417.633ZM413.801 37.3008V42.5742H416.742V37.3008H413.801ZM417.633 40.9102H420.188V38.8008H417.633V40.9102ZM424.547 44.2148L423.633 47.4023H422.766L423.41 44.2148H424.547ZM45.0117 49.5312V59.9727H44.0859V49.5312H45.0117ZM39.4688 50.3398C41.0156 50.3516 42.1289 51.7578 42.1289 53.9727C42.1289 56.1875 41.0156 57.5938 39.4688 57.5938C37.9102 57.5938 36.8086 56.1875 36.8086 53.9727C36.8086 51.7578 37.9102 50.3516 39.4688 50.3398ZM39.4688 51.1602C38.4258 51.1719 37.6992 52.2734 37.6992 53.9727C37.6992 55.6719 38.4258 56.7734 39.4688 56.7734C40.5117 56.7734 41.2383 55.6719 41.2383 53.9727C41.2383 52.2734 40.5117 51.1719 39.4688 51.1602ZM55.2188 52.6953V53.4336H48.082V49.918H48.9961V52.6953H55.2188ZM56.3203 54.8516V55.6016H46.7812V54.8516H56.3203ZM55.2773 58.9297V59.6914H48.0234V56.668H48.9375V58.9297H55.2773ZM68.3203 49.543V52.0977H69.8906V52.8477H68.3203V55.4492H67.4062V49.543H68.3203ZM68.6016 56V56.75H67.1367V59.0352H68.7305V59.7852H61.5469V59.0352H63.1172V56.75H61.6406V56H68.6016ZM63.1055 50.1406C64.6875 50.1406 65.8359 51.1367 65.8477 52.5898C65.8359 54.0312 64.6875 55.0156 63.1055 55.0156C61.5234 55.0156 60.3633 54.0312 60.375 52.5898C60.3633 51.1367 61.5234 50.1406 63.1055 50.1406ZM63.1055 50.9141C62.0508 50.9141 61.2656 51.5938 61.2773 52.5898C61.2656 53.5625 62.0508 54.2422 63.1055 54.2539C64.1719 54.2422 64.9453 53.5625 64.9453 52.5898C64.9453 51.5938 64.1719 50.9141 63.1055 50.9141ZM64.0078 59.0352H66.2461V56.75H64.0078V59.0352ZM75.293 50.2109C77.4727 50.2109 79.1016 51.3477 79.1016 53.0703C79.1016 54.8047 77.4727 55.9414 75.293 55.9297C73.1133 55.9414 71.4844 54.8047 71.4844 53.0703C71.4844 51.3477 73.1133 50.2109 75.293 50.2109ZM75.293 50.9609C73.6172 50.9492 72.3516 51.8281 72.3633 53.0703C72.3516 54.3359 73.6172 55.1797 75.293 55.1797C76.957 55.1797 78.2109 54.3359 78.2109 53.0703C78.2109 51.8281 76.957 50.9492 75.293 50.9609ZM80.0859 57.793V58.5664H70.5469V57.793H80.0859ZM90.457 57.8867V58.6602H80.918V57.8867H85.207V55.918H82.1133V52.707H88.3477V51.0664H82.0898V50.3047H89.25V53.457H83.0273V55.1562H89.4961V55.918H86.1094V57.8867H90.457ZM97.8867 51.1719C97.875 52.6602 98.9297 53.9727 100.465 54.4883L99.9492 55.2031C98.8008 54.7695 97.8984 53.9258 97.4531 52.8242C97.002 54.0723 96.0469 55.0449 94.793 55.5195L94.2891 54.7695C95.8945 54.207 96.9609 52.8242 96.9727 51.207V50.1289H97.8867V51.1719ZM102.938 49.5312V55.707H102.012V52.5312H99.6914V51.7695H102.012V49.5312H102.938ZM99.4805 56.0117C101.648 56.0117 102.973 56.7266 102.973 57.9805C102.973 59.2227 101.648 59.9258 99.4805 59.9258C97.3125 59.9258 95.9883 59.2227 95.9883 57.9805C95.9883 56.7266 97.3125 56.0117 99.4805 56.0117ZM99.4805 56.7383C97.8867 56.7383 96.8906 57.207 96.9023 57.9805C96.8906 58.7305 97.8867 59.1875 99.4805 59.1875C101.074 59.1875 102.059 58.7305 102.059 57.9805C102.059 57.207 101.074 56.7383 99.4805 56.7383ZM108.199 51.5117C108.199 52.8711 109.219 54.0898 110.754 54.5938L110.32 55.3203C109.119 54.9277 108.211 54.0957 107.766 53.0469C107.314 54.2422 106.354 55.1738 105.105 55.625L104.637 54.8867C106.195 54.3594 107.285 53.0117 107.297 51.5117V51.0664H104.918V50.3047H110.543V51.0664H108.199V51.5117ZM112.816 49.5312V52.1914H114.387V52.9648H112.816V55.8242H111.902V49.5312H112.816ZM109.477 56.1055C111.621 56.1055 112.91 56.8086 112.91 58.0039C112.91 59.2227 111.621 59.9258 109.477 59.9258C107.332 59.9258 106.02 59.2227 106.02 58.0039C106.02 56.8086 107.332 56.1055 109.477 56.1055ZM109.477 56.8438C107.906 56.8438 106.934 57.2773 106.945 58.0039C106.934 58.7539 107.906 59.1875 109.477 59.1875C111.059 59.1875 112.02 58.7539 112.02 58.0039C112.02 57.2773 111.059 56.8438 109.477 56.8438ZM123.188 49.4961V52.0273H124.77V52.7891H123.188V55.2617H122.273V49.4961H123.188ZM123.188 55.8008V58.1094H117.469V59.1289H123.574V59.832H116.566V57.4297H122.273V56.4922H116.543V55.8008H123.188ZM121.277 50.4805V51.2188H115.066V50.4805H117.715V49.4258H118.629V50.4805H121.277ZM118.172 51.6875C119.684 51.6875 120.668 52.3438 120.68 53.3984C120.668 54.4531 119.684 55.1094 118.172 55.1094C116.648 55.1094 115.652 54.4531 115.664 53.3984C115.652 52.3438 116.648 51.6875 118.172 51.6875ZM118.172 52.3672C117.188 52.3672 116.531 52.7773 116.543 53.3984C116.531 54.0312 117.188 54.418 118.172 54.418C119.156 54.418 119.801 54.0312 119.812 53.3984C119.801 52.7773 119.156 52.3672 118.172 52.3672ZM133.652 50.5039C133.652 51.9688 135.574 53.2461 137.449 53.5039L137.074 54.2539C135.457 53.9844 133.857 53.0879 133.184 51.8047C132.516 53.0938 130.91 53.9844 129.293 54.2539L128.918 53.5039C130.793 53.2461 132.703 51.9922 132.703 50.5039V49.9062H133.652V50.5039ZM137.918 55.4023V56.1758H133.605V59.9492H132.703V56.1758H128.426V55.4023H137.918ZM145.336 56.5273C145.336 57.4473 145.828 58.4258 146.824 58.9883C147.809 58.373 148.336 57.3359 148.336 56.5273V55.9531H149.238V56.5273C149.238 57.5938 150.023 58.6719 151.359 59.1289L150.902 59.8086C149.859 59.4395 149.127 58.7129 148.77 57.8398C148.447 58.6836 147.809 59.4805 146.848 59.8906C145.834 59.5039 145.189 58.7363 144.879 57.8633C144.51 58.707 143.789 59.4336 142.793 59.8086L142.324 59.1289C143.637 58.6367 144.434 57.5234 144.445 56.5273V55.9531H145.336V56.5273ZM150.41 49.543V55.4961H149.496V49.543H150.41ZM144.785 50.1523C146.367 50.1523 147.516 51.1367 147.516 52.5898C147.516 54.0195 146.367 55.0039 144.785 55.0039C143.203 55.0039 142.055 54.0195 142.055 52.5898C142.055 51.1367 143.203 50.1523 144.785 50.1523ZM144.785 50.9375C143.719 50.9258 142.945 51.6172 142.957 52.5898C142.945 53.5508 143.719 54.2305 144.785 54.2422C145.84 54.2305 146.613 53.5508 146.613 52.5898C146.613 51.6172 145.84 50.9258 144.785 50.9375ZM160.605 52.6953V53.4336H153.469V49.918H154.383V52.6953H160.605ZM161.707 54.8516V55.6016H152.168V54.8516H161.707ZM160.664 58.9297V59.6914H153.41V56.668H154.324V58.9297H160.664ZM169.09 51.418C169.078 52.8008 170.109 54.043 171.656 54.5586L171.188 55.2969C169.992 54.8867 169.084 54.043 168.633 52.9766C168.188 54.1602 167.232 55.0918 165.996 55.543L165.516 54.793C167.086 54.2539 168.152 52.9297 168.164 51.4297V51.0195H165.797V50.2695H171.41V51.0195H169.09V51.418ZM173.707 49.5312V52.1328H175.277V52.9062H173.707V55.6719H172.793V49.5312H173.707ZM173.707 56.1523V59.8086H167.133V56.1523H173.707ZM168.035 56.8906V59.0586H172.793V56.8906H168.035ZM184.887 49.5312V59.9492H183.996V54.5352H182.578V59.4219H181.699V49.7539H182.578V53.75H183.996V49.5312H184.887ZM179.016 52.3789C179.016 54.2891 179.801 55.9648 181.289 56.7266L180.738 57.4414C179.684 56.8672 178.963 55.8359 178.594 54.5586C178.236 56.0117 177.504 57.1484 176.402 57.793L175.828 57.0898C177.328 56.2695 178.125 54.4883 178.125 52.3789V51.5469H176.074V50.7734H180.949V51.5469H179.016V52.3789ZM189.926 51.4531C189.926 52.8125 190.969 54.1016 192.492 54.6289L192.012 55.3555C190.834 54.9336 189.926 54.0605 189.48 52.9883C189.029 54.1895 188.068 55.1504 186.832 55.6016L186.352 54.875C187.887 54.3242 189 52.9297 189 51.4648V51.0078H186.645V50.2578H192.258V51.0078H189.926V51.4531ZM194.941 56.3281V59.9492H194.016V57.0898H187.934V56.3281H194.941ZM194.941 49.5312V55.7773H194.016V53.0352H191.93V52.2617H194.016V49.5312H194.941ZM203.391 52.332C203.379 54.2305 204.68 56.1523 206.215 56.8438L205.652 57.5703C204.469 56.9902 203.443 55.7656 202.945 54.2773C202.459 55.8535 201.434 57.166 200.215 57.7812L199.629 57.0078C201.176 56.293 202.465 54.3125 202.477 52.332V50.4336H203.391V52.332ZM208.277 49.5312V59.9727H207.352V49.5312H208.277ZM218.203 49.5312V52.707H219.773V53.4805H218.203V57.1602H217.277V49.5312H218.203ZM215.391 50.3398C215.391 53.0234 213.469 55.0156 210.469 55.9531L210.07 55.2148C212.566 54.4355 214.195 52.9473 214.395 51.1133H210.504V50.3398H215.391ZM218.684 58.9531V59.7266H211.676V56.3867H212.59V58.9531H218.684ZM229.02 49.5312V59.9727H228.094V49.5312H229.02ZM223.477 50.3398C225.023 50.3516 226.137 51.7578 226.137 53.9727C226.137 56.1875 225.023 57.5938 223.477 57.5938C221.918 57.5938 220.816 56.1875 220.816 53.9727C220.816 51.7578 221.918 50.3516 223.477 50.3398ZM223.477 51.1602C222.434 51.1719 221.707 52.2734 221.707 53.9727C221.707 55.6719 222.434 56.7734 223.477 56.7734C224.52 56.7734 225.246 55.6719 225.246 53.9727C225.246 52.2734 224.52 51.1719 223.477 51.1602ZM239.121 50.5273V51.3008H235.266V56.6094C237.141 56.6094 238.383 56.5449 239.824 56.2695L239.941 57.0312C238.406 57.3242 237.141 57.3945 235.137 57.3945H234.34V50.5273H239.121ZM242.461 49.5312V59.9727H241.535V54.0898H238.5V53.3281H241.535V49.5312H242.461ZM255.34 49.5312V51.8867H256.91V52.6602H255.34V54.875H254.426V49.5312H255.34ZM252.457 50.2227V54.4648H247.641V50.2227H252.457ZM248.543 50.9727V53.7266H251.566V50.9727H248.543ZM249.199 55.8125V58.9062C249.803 58.8887 250.605 58.8008 251.344 58.5547L251.484 59.293C250.465 59.6328 249.48 59.668 248.801 59.668H248.309V55.8125H249.199ZM256.383 55.918V56.6211H251.121V55.918H253.312V54.9922H254.215V55.918H256.383ZM253.746 56.9961C254.883 57.0078 255.691 57.5586 255.703 58.4609C255.691 59.3633 254.883 59.9258 253.746 59.9258C252.598 59.9258 251.801 59.3633 251.812 58.4609C251.801 57.5586 252.598 57.0078 253.746 56.9961ZM253.746 57.6523C253.102 57.6523 252.633 57.9688 252.633 58.4609C252.633 58.9531 253.102 59.2812 253.746 59.2695C254.402 59.2812 254.859 58.9531 254.859 58.4609C254.859 57.9688 254.402 57.6523 253.746 57.6523ZM266.156 49.5312V59.9727H265.23V49.5312H266.156ZM260.613 50.3398C262.16 50.3516 263.273 51.7578 263.273 53.9727C263.273 56.1875 262.16 57.5938 260.613 57.5938C259.055 57.5938 257.953 56.1875 257.953 53.9727C257.953 51.7578 259.055 50.3516 260.613 50.3398ZM260.613 51.1602C259.57 51.1719 258.844 52.2734 258.844 53.9727C258.844 55.6719 259.57 56.7734 260.613 56.7734C261.656 56.7734 262.383 55.6719 262.383 53.9727C262.383 52.2734 261.656 51.1719 260.613 51.1602ZM279.094 49.543V51.9336H280.676V52.707H279.094V55.4258H278.18V49.543H279.094ZM279.094 56V59.8086H272.496V56H279.094ZM273.398 56.7266V59.0586H278.203V56.7266H273.398ZM272.379 50.0703V53.8555C273.861 53.8496 275.391 53.7324 277.078 53.3867L277.195 54.1602C275.426 54.5117 273.855 54.6289 272.285 54.6289H271.453V50.0703H272.379ZM284.25 50.1523C285.832 50.1523 286.98 51.1484 286.992 52.6016C286.98 54.0547 285.832 55.0508 284.25 55.0508C282.668 55.0508 281.508 54.0547 281.52 52.6016C281.508 51.1484 282.668 50.1523 284.25 50.1523ZM284.25 50.9375C283.195 50.9258 282.41 51.6289 282.422 52.6016C282.41 53.5859 283.195 54.2656 284.25 54.2773C285.316 54.2656 286.09 53.5859 286.09 52.6016C286.09 51.6289 285.316 50.9258 284.25 50.9375ZM289.465 49.5312V52.0508H291.035V52.8125H289.465V55.4727H288.551V49.5312H289.465ZM284.742 56.5156C284.73 57.4473 285.229 58.4258 286.23 59C287.227 58.373 287.73 57.3184 287.742 56.5156V55.9297H288.645V56.5156C288.645 57.5938 289.418 58.6719 290.766 59.1289L290.297 59.832C289.26 59.4512 288.539 58.7188 288.188 57.8398C287.854 58.6895 287.221 59.5098 286.242 59.9141C285.234 59.5215 284.602 58.7539 284.297 57.875C283.91 58.7246 283.195 59.4512 282.211 59.832L281.742 59.1289C283.055 58.6484 283.863 57.5234 283.863 56.5156V55.9297H284.742V56.5156ZM296.438 49.7656C298.699 49.7656 300.117 50.4922 300.117 51.7461C300.117 52.9766 298.699 53.6914 296.438 53.6914C294.176 53.6914 292.746 52.9766 292.746 51.7461C292.746 50.4922 294.176 49.7656 296.438 49.7656ZM296.438 50.5039C294.75 50.5039 293.684 50.9727 293.695 51.7461C293.684 52.5078 294.75 52.9531 296.438 52.9648C298.102 52.9531 299.18 52.5078 299.18 51.7461C299.18 50.9727 298.102 50.5039 296.438 50.5039ZM300.023 56.3867V59.8086H292.852V56.3867H300.023ZM293.766 57.125V59.0586H299.121V57.125H293.766ZM301.184 54.5938V55.3555H291.691V54.5938H301.184ZM306.809 49.7188C309.129 49.7188 310.488 50.3516 310.488 51.5117C310.488 52.6953 309.129 53.3281 306.809 53.3398C304.488 53.3281 303.117 52.6953 303.117 51.5117C303.117 50.3516 304.488 49.7188 306.809 49.7188ZM306.809 50.4102C305.074 50.4102 304.066 50.832 304.078 51.5117C304.066 52.2383 305.074 52.6367 306.809 52.6367C308.531 52.6367 309.551 52.2383 309.551 51.5117C309.551 50.832 308.531 50.4102 306.809 50.4102ZM311.555 54.043V54.793H302.062V54.043H311.555ZM310.336 55.6953V58.0273H304.148V59.1055H310.652V59.832H303.234V57.3477H309.434V56.3984H303.211V55.6953H310.336ZM319.148 52.332C319.137 54.2305 320.438 56.1523 321.973 56.8438L321.41 57.5703C320.227 56.9902 319.201 55.7656 318.703 54.2773C318.217 55.8535 317.191 57.166 315.973 57.7812L315.387 57.0078C316.934 56.293 318.223 54.3125 318.234 52.332V50.4336H319.148V52.332ZM324.035 49.5312V59.9727H323.109V49.5312H324.035ZM329.309 52.332C329.309 54.1719 330.527 56.0586 332.004 56.7852L331.441 57.5234C330.293 56.9199 329.332 55.6895 328.875 54.2422C328.406 55.7832 327.422 57.0957 326.25 57.7227L325.664 56.9844C327.188 56.2344 328.395 54.2305 328.406 52.332V50.4336H329.309V52.332ZM333.879 49.5312V53.7617H335.625V54.5586H333.879V59.9492H332.965V49.5312H333.879ZM344.332 49.5312V52.2031H345.902V52.9883H344.332V55.5898H343.418V49.5312H344.332ZM338.66 56.0469V57.1602H343.418V56.0469H344.332V59.8086H337.746V56.0469H338.66ZM338.66 59.0703H343.418V57.8867H338.66V59.0703ZM342.422 50.6094V51.3711H336.211V50.6094H338.859V49.4375H339.773V50.6094H342.422ZM339.316 51.8516C340.816 51.8516 341.812 52.5664 341.824 53.6797C341.812 54.793 340.816 55.5078 339.316 55.5078C337.805 55.5078 336.797 54.793 336.809 53.6797C336.797 52.5664 337.805 51.8516 339.316 51.8516ZM339.316 52.5664C338.332 52.5547 337.676 53.0117 337.688 53.6797C337.676 54.3594 338.332 54.8047 339.316 54.8047C340.289 54.8047 340.945 54.3594 340.957 53.6797C340.945 53.0117 340.289 52.5547 339.316 52.5664ZM355.148 49.5312V59.9492H354.234V49.5312H355.148ZM348.141 50.5625V56.4688C349.729 56.4629 351.375 56.334 353.121 55.9648L353.25 56.75C351.398 57.1367 349.746 57.2656 348.082 57.2656H347.238V50.5625H348.141ZM364.992 49.5312V53.6562H366.738V54.4297H364.992V59.9727H364.078V49.5312H364.992ZM362.25 50.5508V51.3125H358.301V56.5859C360.188 56.5859 361.523 56.498 363.07 56.2109L363.188 57.0078C361.559 57.3008 360.188 57.3594 358.207 57.3594H357.387V50.5508H362.25ZM368.402 59.0703C367.992 59.0703 367.641 58.7305 367.652 58.3086C367.641 57.8984 367.992 57.5586 368.402 57.5586C368.812 57.5586 369.152 57.8984 369.152 58.3086C369.152 58.7305 368.812 59.0703 368.402 59.0703ZM26.9531 70.8203C26.2969 70.8203 25.7578 70.2812 25.7578 69.6133C25.7578 68.957 26.2969 68.418 26.9531 68.418C27.6211 68.418 28.1602 68.957 28.1602 69.6133C28.1602 70.2812 27.6211 70.8203 26.9531 70.8203ZM37.8633 64.1289V65.793H40.7695V64.1289H41.6719V66.1797H44.1328V63.5312H45.0586V69.5781H44.1328V66.9531H41.6719V68.9922H36.9492V64.1289H37.8633ZM37.8633 68.2422H40.7695V66.5312H37.8633V68.2422ZM45.0586 70.0938V73.8086H38.25V70.0938H45.0586ZM39.1641 70.832V73.0586H44.1562V70.832H39.1641ZM50.2266 64.0469C51.7852 64.0352 52.8984 64.8906 52.8984 66.168C52.8984 67.4336 51.7852 68.3125 50.2266 68.3008C48.668 68.3125 47.5547 67.4336 47.5547 66.168C47.5547 64.8906 48.668 64.0352 50.2266 64.0469ZM50.2266 64.7969C49.1836 64.7852 48.4453 65.3594 48.457 66.168C48.4453 66.9883 49.1836 67.5508 50.2266 67.5391C51.2812 67.5508 52.0195 66.9883 52.0195 66.168C52.0195 65.3594 51.2812 64.7852 50.2266 64.7969ZM55.3828 63.543V73.9609H54.4805V63.543H55.3828ZM46.7695 69.1914C48.7266 69.1914 51.3984 69.1562 53.7188 68.8164L53.7773 69.5078C52.7812 69.6895 51.7441 69.8008 50.7422 69.8594V73.6328H49.8281V69.918C48.7676 69.9648 47.7656 69.9707 46.8984 69.9766L46.7695 69.1914ZM58.2656 73.0703C57.8555 73.0703 57.5039 72.7305 57.5156 72.3086C57.5039 71.8984 57.8555 71.5586 58.2656 71.5586C58.6758 71.5586 59.0156 71.8984 59.0156 72.3086C59.0156 72.7305 58.6758 73.0703 58.2656 73.0703ZM58.2656 68.3594C57.8555 68.3594 57.5039 68.0195 57.5156 67.5977C57.5039 67.1875 57.8555 66.8477 58.2656 66.8477C58.6758 66.8477 59.0156 67.1875 59.0156 67.5977C59.0156 68.0195 58.6758 68.3594 58.2656 68.3594ZM64.2539 64.5039V67.1992H65.5195V64.5039H66.3047V71.418H63.4805V64.5039H64.2539ZM64.2539 70.6562H65.5195V67.9258H64.2539V70.6562ZM67.8164 64.5039V67.1992H69.0703V64.5039H69.8555V66.1797H71.168V63.5312H72.0469V73.9492H71.168V69.6719H69.8555V71.418H67.0312V64.5039H67.8164ZM67.8164 70.6562H69.0703V67.9258H67.8164V70.6562ZM69.8555 68.9102H71.168V66.9414H69.8555V68.9102ZM77.0039 64.293C78.6445 64.293 79.8047 65.2891 79.8047 66.7422C79.8047 68.1953 78.6445 69.1914 77.0039 69.1914C75.3633 69.1914 74.1797 68.1953 74.1914 66.7422C74.1797 65.2891 75.3633 64.293 77.0039 64.293ZM77.0039 65.1016C75.8906 65.1016 75.082 65.7695 75.0938 66.7422C75.082 67.7148 75.8906 68.3828 77.0039 68.3828C78.1055 68.3828 78.9023 67.7148 78.9023 66.7422C78.9023 65.7695 78.1055 65.1016 77.0039 65.1016ZM82.1367 63.5312V73.9727H81.2227V63.5312H82.1367ZM73.6523 70.8906C75.5742 70.8906 78.2227 70.8789 80.5312 70.5391L80.6016 71.2188C78.2227 71.6641 75.6562 71.6758 73.7812 71.6758L73.6523 70.8906ZM90.5625 65.1719C90.5508 66.6602 91.6055 67.9727 93.1406 68.4883L92.625 69.2031C91.4766 68.7695 90.5742 67.9258 90.1289 66.8242C89.6777 68.0723 88.7227 69.0449 87.4688 69.5195L86.9648 68.7695C88.5703 68.207 89.6367 66.8242 89.6484 65.207V64.1289H90.5625V65.1719ZM95.6133 63.5312V69.707H94.6875V66.5312H92.3672V65.7695H94.6875V63.5312H95.6133ZM92.1562 70.0117C94.3242 70.0117 95.6484 70.7266 95.6484 71.9805C95.6484 73.2227 94.3242 73.9258 92.1562 73.9258C89.9883 73.9258 88.6641 73.2227 88.6641 71.9805C88.6641 70.7266 89.9883 70.0117 92.1562 70.0117ZM92.1562 70.7383C90.5625 70.7383 89.5664 71.207 89.5781 71.9805C89.5664 72.7305 90.5625 73.1875 92.1562 73.1875C93.75 73.1875 94.7344 72.7305 94.7344 71.9805C94.7344 71.207 93.75 70.7383 92.1562 70.7383ZM102.574 64.1641C102.574 65.4883 104.473 66.6484 106.301 66.918L105.938 67.6328C104.338 67.375 102.762 66.543 102.105 65.3594C101.438 66.5547 99.8496 67.375 98.25 67.6328L97.8984 66.918C99.7383 66.6484 101.625 65.5117 101.625 64.1641V63.6719H102.574V64.1641ZM106.84 68.4648V69.2266H102.539V70.5625H105.668V73.9492H104.742V71.3125H98.4023V70.5625H101.637V69.2266H97.3477V68.4648H106.84ZM116.133 68.418V69.168H112.91V71.8633H117.258V72.6367H107.719V71.8633H112.008V69.168H108.938V64.3867H116.027V65.1367H109.863V68.418H116.133ZM124.57 66.9297C124.57 68.5938 125.66 70.3047 127.172 71.0312L126.633 71.7461C125.484 71.1836 124.576 70.0469 124.148 68.6992C123.691 70.1465 122.725 71.3594 121.535 71.9336L121.008 71.2188C122.531 70.5039 123.668 68.7227 123.68 66.9297V66.0977H121.289V65.3477H123.668V63.7305H124.594V65.3477H126.938V66.0977H124.57V66.9297ZM129.164 63.5312V67.8086H130.91V68.5938H129.164V73.9492H128.25V63.5312H129.164ZM140.062 63.5312V73.9727H139.137V63.5312H140.062ZM134.52 64.3398C136.066 64.3516 137.18 65.7578 137.18 67.9727C137.18 70.1875 136.066 71.5938 134.52 71.5938C132.961 71.5938 131.859 70.1875 131.859 67.9727C131.859 65.7578 132.961 64.3516 134.52 64.3398ZM134.52 65.1602C133.477 65.1719 132.75 66.2734 132.75 67.9727C132.75 69.6719 133.477 70.7734 134.52 70.7734C135.562 70.7734 136.289 69.6719 136.289 67.9727C136.289 66.2734 135.562 65.1719 134.52 65.1602ZM151.371 68.3711V69.0977H141.832V68.3711H151.371ZM150.176 69.9297V72.1445H143.918V73.1406H150.516V73.8086H142.992V71.5117H149.262V70.6211H142.98V69.9297H150.176ZM150.141 63.8477V66.0039H143.988V66.918H150.328V67.5859H143.074V65.3711H149.215V64.5156H143.039V63.8477H150.141ZM158.379 73.1172C156.492 73.1172 155.414 71.5352 155.414 68.7578C155.414 66.0039 156.516 64.3984 158.379 64.3984C160.242 64.3984 161.344 66.0039 161.344 68.7578C161.344 71.5352 160.254 73.1172 158.379 73.1172ZM158.379 72.1797C159.598 72.1797 160.312 70.9492 160.312 68.7578C160.312 66.5664 159.598 65.3125 158.379 65.3125C157.16 65.3125 156.434 66.5664 156.434 68.7578C156.434 70.9492 157.148 72.1797 158.379 72.1797ZM163.09 69.5195C163.465 69.0859 163.934 68.8516 164.449 68.8516C165.34 68.8516 166.148 69.5312 167.004 69.5312C167.531 69.5312 167.988 69.2734 168.34 68.793V69.7656C167.953 70.2109 167.496 70.4336 166.98 70.4336C166.09 70.4336 165.281 69.7539 164.414 69.7539C163.898 69.7539 163.441 70.0117 163.09 70.4922V69.5195ZM173.273 64.5156V73H172.207V65.6172H172.16L170.098 66.9883V65.9219L172.207 64.5156H173.273ZM178.312 73.1172C176.426 73.1172 175.348 71.5352 175.348 68.7578C175.348 66.0039 176.449 64.3984 178.312 64.3984C180.176 64.3984 181.277 66.0039 181.277 68.7578C181.277 71.5352 180.188 73.1172 178.312 73.1172ZM178.312 72.1797C179.531 72.1797 180.246 70.9492 180.246 68.7578C180.246 66.5664 179.531 65.3125 178.312 65.3125C177.094 65.3125 176.367 66.5664 176.367 68.7578C176.367 70.9492 177.082 72.1797 178.312 72.1797ZM185.461 73.1172C183.574 73.1172 182.496 71.5352 182.496 68.7578C182.496 66.0039 183.598 64.3984 185.461 64.3984C187.324 64.3984 188.426 66.0039 188.426 68.7578C188.426 71.5352 187.336 73.1172 185.461 73.1172ZM185.461 72.1797C186.68 72.1797 187.395 70.9492 187.395 68.7578C187.395 66.5664 186.68 65.3125 185.461 65.3125C184.242 65.3125 183.516 66.5664 183.516 68.7578C183.516 70.9492 184.23 72.1797 185.461 72.1797ZM198.094 63.5312V69.6367H197.168V66.918H195.059V66.1445H197.168V63.5312H198.094ZM198.094 70.1523V73.8086H191.285V70.1523H198.094ZM192.199 70.8906V73.0586H197.191V70.8906H192.199ZM193.078 65.3828C193.078 66.7305 194.121 68.0312 195.645 68.5703L195.164 69.2969C193.986 68.875 193.078 67.9961 192.633 66.918C192.182 68.1191 191.221 69.0801 189.984 69.5312L189.504 68.8047C191.039 68.2539 192.152 66.8711 192.152 65.3828V64.9727H189.797V64.2109H195.41V64.9727H193.078V65.3828ZM204.574 64.2109C206.754 64.2109 208.383 65.3477 208.383 67.0703C208.383 68.8047 206.754 69.9414 204.574 69.9297C202.395 69.9414 200.766 68.8047 200.766 67.0703C200.766 65.3477 202.395 64.2109 204.574 64.2109ZM204.574 64.9609C202.898 64.9492 201.633 65.8281 201.645 67.0703C201.633 68.3359 202.898 69.1797 204.574 69.1797C206.238 69.1797 207.492 68.3359 207.492 67.0703C207.492 65.8281 206.238 64.9492 204.574 64.9609ZM209.367 71.793V72.5664H199.828V71.793H209.367ZM219.738 71.8867V72.6602H210.199V71.8867H214.488V69.918H211.395V66.707H217.629V65.0664H211.371V64.3047H218.531V67.457H212.309V69.1562H218.777V69.918H215.391V71.8867H219.738ZM231.715 63.5312V67.1875H233.273V67.9609H231.715V71.6875H230.789V63.5312H231.715ZM232.09 72.9531V73.7266H225.094V71.1367H226.02V72.9531H232.09ZM223.535 69.7305C224.361 69.7305 225.34 69.7246 226.359 69.6836V68.8867C225.146 68.7754 224.367 68.1953 224.367 67.3164C224.367 66.3086 225.34 65.7109 226.805 65.7109C228.281 65.7109 229.242 66.3086 229.254 67.3164C229.242 68.1895 228.48 68.7695 227.273 68.8867V69.6367C228.252 69.5898 229.236 69.4961 230.145 69.3555L230.227 70.0117C227.988 70.4336 225.469 70.4688 223.641 70.4805L223.535 69.7305ZM229.828 64.5625V65.2539H223.793V64.5625H226.359V63.5078H227.273V64.5625H229.828ZM226.805 66.3672C225.844 66.3672 225.246 66.7305 225.246 67.3164C225.246 67.8906 225.844 68.2539 226.805 68.2539C227.766 68.2539 228.375 67.8906 228.375 67.3164C228.375 66.7305 227.766 66.3672 226.805 66.3672ZM237.457 65.5C237.445 66.9297 238.535 68.2539 240.07 68.793L239.602 69.5312C238.418 69.1035 237.498 68.2188 237.035 67.1055C236.596 68.3535 235.652 69.3145 234.422 69.7891L233.918 69.0508C235.5 68.4883 236.543 67.082 236.555 65.4648V64.1758H237.457V65.5ZM242.098 63.5312V66.7305H243.668V67.5156H242.098V71.2305H241.184V63.5312H242.098ZM242.578 72.9531V73.7266H235.594V70.4922H236.531V72.9531H242.578ZM252.387 63.5312V67.832H254.133V68.5938H252.387V73.9492H251.473V63.5312H252.387ZM250.465 65.207V65.9688H244.266V65.207H246.949V63.6602H247.863V65.207H250.465ZM247.418 66.8359C248.895 66.8359 249.961 67.8203 249.973 69.2266C249.961 70.6328 248.895 71.6172 247.418 71.6172C245.93 71.6172 244.852 70.6328 244.863 69.2266C244.852 67.8203 245.93 66.8359 247.418 66.8359ZM247.418 67.6094C246.445 67.6094 245.73 68.2891 245.742 69.2266C245.73 70.1758 246.445 70.8438 247.418 70.832C248.379 70.8438 249.082 70.1758 249.094 69.2266C249.082 68.2891 248.379 67.6094 247.418 67.6094ZM259.863 64.5742V66.0391H262.418V63.5312H263.332V73.9727H262.418V69.6719H259.863V71.3125H255.117V64.5742H259.863ZM256.031 65.3008V70.5742H258.973V65.3008H256.031ZM259.863 68.9102H262.418V66.8008H259.863V68.9102ZM266.777 72.2148L265.863 75.4023H264.996L265.641 72.2148H266.777ZM274.289 73.1172C272.754 73.1172 271.594 72.168 271.535 70.8672H272.555C272.637 71.6289 273.375 72.1914 274.289 72.1914C275.391 72.1914 276.188 71.3828 276.188 70.3164C276.188 69.2148 275.355 68.4062 274.219 68.3945C273.504 68.3828 272.953 68.6055 272.637 69.1562H271.617L272.215 64.5156H276.809V65.4531H273.094L272.777 67.9375H272.859C273.234 67.6445 273.809 67.4453 274.406 67.4453C276.023 67.4453 277.219 68.6406 277.219 70.293C277.219 71.9336 275.977 73.1172 274.289 73.1172ZM281.461 73.1172C279.574 73.1172 278.496 71.5352 278.496 68.7578C278.496 66.0039 279.598 64.3984 281.461 64.3984C283.324 64.3984 284.426 66.0039 284.426 68.7578C284.426 71.5352 283.336 73.1172 281.461 73.1172ZM281.461 72.1797C282.68 72.1797 283.395 70.9492 283.395 68.7578C283.395 66.5664 282.68 65.3125 281.461 65.3125C280.242 65.3125 279.516 66.5664 279.516 68.7578C279.516 70.9492 280.23 72.1797 281.461 72.1797ZM294.094 63.5312V69.6367H293.168V66.918H291.059V66.1445H293.168V63.5312H294.094ZM294.094 70.1523V73.8086H287.285V70.1523H294.094ZM288.199 70.8906V73.0586H293.191V70.8906H288.199ZM289.078 65.3828C289.078 66.7305 290.121 68.0312 291.645 68.5703L291.164 69.2969C289.986 68.875 289.078 67.9961 288.633 66.918C288.182 68.1191 287.221 69.0801 285.984 69.5312L285.504 68.8047C287.039 68.2539 288.152 66.8711 288.152 65.3828V64.9727H285.797V64.2109H291.41V64.9727H289.078V65.3828ZM305.32 69.0273V69.7773H295.828V69.0273H305.32ZM304.266 72.9531V73.7266H297.059V70.6914H297.984V72.9531H304.266ZM300.574 63.9062C302.812 63.8945 304.254 64.668 304.254 65.9688C304.254 67.2695 302.812 68.043 300.574 68.043C298.312 68.043 296.883 67.2695 296.883 65.9688C296.883 64.668 298.312 63.8945 300.574 63.9062ZM300.574 64.6445C298.898 64.6445 297.82 65.1484 297.832 65.9688C297.82 66.7891 298.898 67.293 300.574 67.293C302.238 67.293 303.316 66.7891 303.316 65.9688C303.316 65.1484 302.238 64.6445 300.574 64.6445ZM315.059 64.3281V65.0898H313.992V68.418C314.479 68.3887 314.947 68.3477 315.398 68.2891L315.445 68.9922C313.418 69.3086 311.039 69.332 309.352 69.332L309.234 68.5586C309.65 68.5586 310.102 68.5586 310.582 68.5469V65.0898H309.527V64.3281H315.059ZM317.848 63.5312V69.9648H316.922V68.0312H315.164V67.2695H316.922V66.168H315.164V65.4062H316.922V63.5312H317.848ZM314.391 70.1875C316.57 70.1875 317.883 70.8672 317.883 72.0508C317.883 73.2461 316.57 73.9258 314.391 73.9258C312.211 73.9258 310.898 73.2461 310.898 72.0508C310.898 70.8672 312.211 70.1875 314.391 70.1875ZM314.391 70.9023C312.785 70.9023 311.801 71.3359 311.812 72.0508C311.801 72.7773 312.785 73.1992 314.391 73.1992C315.996 73.1992 316.969 72.7773 316.969 72.0508C316.969 71.3359 315.996 70.9023 314.391 70.9023ZM311.473 68.5352C312.006 68.5234 312.557 68.5059 313.102 68.4766V65.0898H311.473V68.5352ZM327.867 64.1055V64.8906C327.867 65.7227 327.867 66.7012 327.621 68.0078H329.121V68.7695H326.449V71.2891H325.559V68.7695H323.648V71.2891H322.746V68.7695H319.582V68.0078H326.707C326.953 66.6895 326.953 65.7227 326.953 64.8906V64.8555H320.789V64.1055H327.867ZM328.148 72.9531V73.7266H320.754V70.4688H321.668V72.9531H328.148ZM333.574 65.4531C333.574 66.8125 334.617 68.1016 336.141 68.6289L335.66 69.3555C334.482 68.9336 333.574 68.0605 333.129 66.9883C332.678 68.1895 331.717 69.1504 330.48 69.6016L330 68.875C331.535 68.3242 332.648 66.9297 332.648 65.4648V65.0078H330.293V64.2578H335.906V65.0078H333.574V65.4531ZM338.59 70.3281V73.9492H337.664V71.0898H331.582V70.3281H338.59ZM338.59 63.5312V69.7773H337.664V67.0352H335.578V66.2617H337.664V63.5312H338.59ZM348.926 63.543V71.1602H348.012V63.543H348.926ZM349.254 72.9531V73.7266H342.199V70.3867H343.113V72.9531H349.254ZM343.301 64.2695C344.859 64.2695 346.031 65.3242 346.031 66.8242C346.031 68.3477 344.859 69.3906 343.301 69.3906C341.742 69.3906 340.57 68.3477 340.57 66.8242C340.57 65.3242 341.742 64.2695 343.301 64.2695ZM343.301 65.0781C342.246 65.0781 341.461 65.8047 341.473 66.8242C341.461 67.8672 342.246 68.582 343.301 68.582C344.332 68.582 345.129 67.8672 345.129 66.8242C345.129 65.8047 344.332 65.0781 343.301 65.0781ZM357.293 65.1719C357.281 66.6602 358.336 67.9727 359.871 68.4883L359.355 69.2031C358.207 68.7695 357.305 67.9258 356.859 66.8242C356.408 68.0723 355.453 69.0449 354.199 69.5195L353.695 68.7695C355.301 68.207 356.367 66.8242 356.379 65.207V64.1289H357.293V65.1719ZM362.344 63.5312V69.707H361.418V66.5312H359.098V65.7695H361.418V63.5312H362.344ZM358.887 70.0117C361.055 70.0117 362.379 70.7266 362.379 71.9805C362.379 73.2227 361.055 73.9258 358.887 73.9258C356.719 73.9258 355.395 73.2227 355.395 71.9805C355.395 70.7266 356.719 70.0117 358.887 70.0117ZM358.887 70.7383C357.293 70.7383 356.297 71.207 356.309 71.9805C356.297 72.7305 357.293 73.1875 358.887 73.1875C360.48 73.1875 361.465 72.7305 361.465 71.9805C361.465 71.207 360.48 70.7383 358.887 70.7383ZM369.305 64.1641C369.305 65.4883 371.203 66.6484 373.031 66.918L372.668 67.6328C371.068 67.375 369.492 66.543 368.836 65.3594C368.168 66.5547 366.58 67.375 364.98 67.6328L364.629 66.918C366.469 66.6484 368.355 65.5117 368.355 64.1641V63.6719H369.305V64.1641ZM373.57 68.4648V69.2266H369.27V70.5625H372.398V73.9492H371.473V71.3125H365.133V70.5625H368.367V69.2266H364.078V68.4648H373.57ZM386.988 68.7695V69.5312H377.461V68.7695H381.75V67.1641H382.652V68.7695H386.988ZM382.664 64.1875C382.664 65.5703 384.539 66.7305 386.379 66.9883L386.004 67.7266C384.422 67.4512 382.857 66.6133 382.207 65.4062C381.551 66.6191 379.98 67.4512 378.387 67.7266L378.035 66.9883C379.875 66.7305 381.738 65.5703 381.738 64.1875V63.6953H382.664V64.1875ZM385.781 70.5508V73.9492H384.855V71.2891H378.516V70.5508H385.781ZM396.246 68.418V69.168H393.023V71.8633H397.371V72.6367H387.832V71.8633H392.121V69.168H389.051V64.3867H396.141V65.1367H389.977V68.418H396.246ZM407.73 68.3711V69.0977H398.191V68.3711H407.73ZM406.535 69.9297V72.1445H400.277V73.1406H406.875V73.8086H399.352V71.5117H405.621V70.6211H399.34V69.9297H406.535ZM406.5 63.8477V66.0039H400.348V66.918H406.688V67.5859H399.434V65.3711H405.574V64.5156H399.398V63.8477H406.5ZM414.996 64.293C416.637 64.293 417.797 65.2891 417.797 66.7422C417.797 68.1953 416.637 69.1914 414.996 69.1914C413.355 69.1914 412.172 68.1953 412.184 66.7422C412.172 65.2891 413.355 64.293 414.996 64.293ZM414.996 65.1016C413.883 65.1016 413.074 65.7695 413.086 66.7422C413.074 67.7148 413.883 68.3828 414.996 68.3828C416.098 68.3828 416.895 67.7148 416.895 66.7422C416.895 65.7695 416.098 65.1016 414.996 65.1016ZM420.129 63.5312V73.9727H419.215V63.5312H420.129ZM411.645 70.8906C413.566 70.8906 416.215 70.8789 418.523 70.5391L418.594 71.2188C416.215 71.6641 413.648 71.6758 411.773 71.6758L411.645 70.8906ZM427.383 64.5625V71.3359H422.566V64.5625H427.383ZM423.469 65.3008V70.5859H426.48V65.3008H423.469ZM430.547 63.5312V73.9727H429.621V63.5312H430.547ZM440.473 63.5312V66.2031H442.043V66.9883H440.473V69.5898H439.559V63.5312H440.473ZM434.801 70.0469V71.1602H439.559V70.0469H440.473V73.8086H433.887V70.0469H434.801ZM434.801 73.0703H439.559V71.8867H434.801V73.0703ZM438.562 64.6094V65.3711H432.352V64.6094H435V63.4375H435.914V64.6094H438.562ZM435.457 65.8516C436.957 65.8516 437.953 66.5664 437.965 67.6797C437.953 68.793 436.957 69.5078 435.457 69.5078C433.945 69.5078 432.938 68.793 432.949 67.6797C432.938 66.5664 433.945 65.8516 435.457 65.8516ZM435.457 66.5664C434.473 66.5547 433.816 67.0117 433.828 67.6797C433.816 68.3594 434.473 68.8047 435.457 68.8047C436.43 68.8047 437.086 68.3594 437.098 67.6797C437.086 67.0117 436.43 66.5547 435.457 66.5664ZM451.289 63.5312V73.9492H450.375V63.5312H451.289ZM444.281 64.5625V70.4688C445.869 70.4629 447.516 70.334 449.262 69.9648L449.391 70.75C447.539 71.1367 445.887 71.2656 444.223 71.2656H443.379V64.5625H444.281ZM461.133 63.5312V67.6562H462.879V68.4297H461.133V73.9727H460.219V63.5312H461.133ZM458.391 64.5508V65.3125H454.441V70.5859C456.328 70.5859 457.664 70.498 459.211 70.2109L459.328 71.0078C457.699 71.3008 456.328 71.3594 454.348 71.3594H453.527V64.5508H458.391ZM464.543 73.0703C464.133 73.0703 463.781 72.7305 463.793 72.3086C463.781 71.8984 464.133 71.5586 464.543 71.5586C464.953 71.5586 465.293 71.8984 465.293 72.3086C465.293 72.7305 464.953 73.0703 464.543 73.0703Z" fill="white" fill-opacity="0.7"/>
</g>
<defs>
<filter id="filter0_dd_3411_70723" x="0" y="0" width="489" height="102" filterUnits="userSpaceOnUse" color-interpolation-filters="sRGB">
<feFlood flood-opacity="0" result="BackgroundImageFix"/>
<feColorMatrix in="SourceAlpha" type="matrix" values="0 0 0 0 0 0 0 0 0 0 0 0 0 0 0 0 0 0 127 0" result="hardAlpha"/>
<feOffset dx="2" dy="6"/>
<feGaussianBlur stdDeviation="6"/>
<feColorMatrix type="matrix" values="0 0 0 0 0 0 0 0 0 0 0 0 0 0 0 0 0 0 0.12 0"/>
<feBlend mode="normal" in2="BackgroundImageFix" result="effect1_dropShadow_3411_70723"/>
<feColorMatrix in="SourceAlpha" type="matrix" values="0 0 0 0 0 0 0 0 0 0 0 0 0 0 0 0 0 0 127 0" result="hardAlpha"/>
<feOffset/>
<feGaussianBlur stdDeviation="2"/>
<feColorMatrix type="matrix" values="0 0 0 0 0 0 0 0 0 0 0 0 0 0 0 0 0 0 0.12 0"/>
<feBlend mode="normal" in2="effect1_dropShadow_3411_70723" result="effect2_dropShadow_3411_70723"/>
<feBlend mode="normal" in="SourceGraphic" in2="effect2_dropShadow_3411_70723" result="shape"/>
</filter>
</defs>
</svg>
