<svg width="24" height="24" viewBox="0 0 24 24" fill="none" xmlns="http://www.w3.org/2000/svg">
<g clip-path="url(#clip0_5641_20915)">
<path d="M17.6304 5.41992C18.7404 5.55992 19.6004 6.60992 19.6004 7.88992V16.9799C19.6004 18.3499 18.6104 19.4599 17.3804 19.4599H6.62039C5.40039 19.4599 4.40039 18.3499 4.40039 16.9799V7.88992C4.40039 6.62992 5.23039 5.58992 6.32039 5.42992" stroke="#7EAEDF" stroke-linecap="round" stroke-linejoin="round"/>
<path d="M8.48047 12.1788V11.2988" stroke="#7EAEDF" stroke-linecap="round" stroke-linejoin="round"/>
<path d="M7.92969 6.16906V4.53906" stroke="#7EAEDF" stroke-linecap="round" stroke-linejoin="round"/>
<path d="M16.0195 6.16906V4.53906" stroke="#7EAEDF" stroke-linecap="round" stroke-linejoin="round"/>
<path d="M11.8496 12.1788V11.2988" stroke="#7EAEDF" stroke-linecap="round" stroke-linejoin="round"/>
<path d="M14.421 5.41992H9.54102" stroke="#7EAEDF" stroke-linecap="round" stroke-linejoin="round"/>
<path d="M17.9898 8.75H6.00977" stroke="#7EAEDF" stroke-linecap="round" stroke-linejoin="round"/>
<path d="M15.2207 12.1788V11.2988" stroke="#7EAEDF" stroke-linecap="round" stroke-linejoin="round"/>
<path d="M8.48047 15.7081V14.8281" stroke="#7EAEDF" stroke-linecap="round" stroke-linejoin="round"/>
<path d="M11.8496 15.7081V14.8281" stroke="#7EAEDF" stroke-linecap="round" stroke-linejoin="round"/>
<path d="M15.2207 15.7081V14.8281" stroke="#7EAEDF" stroke-linecap="round" stroke-linejoin="round"/>
</g>
<defs>
<clipPath id="clip0_5641_20915">
<rect width="24" height="24" fill="white"/>
</clipPath>
</defs>
</svg>