<svg width="24" height="24" viewBox="0 0 24 24" fill="none" xmlns="http://www.w3.org/2000/svg">
<g clip-path="url(#clip0_4023_26183)">
<path d="M17.6284 5.41992C18.7384 5.55992 19.5984 6.60992 19.5984 7.88992V16.9799C19.5984 18.3499 18.6084 19.4599 17.3784 19.4599H6.61844C5.39844 19.4599 4.39844 18.3499 4.39844 16.9799V7.88992C4.39844 6.62992 5.22844 5.58992 6.31844 5.42992" stroke="#7EAEDF" stroke-linecap="round" stroke-linejoin="round"/>
<path d="M8.47656 12.1798V11.2998" stroke="#7EAEDF" stroke-linecap="round" stroke-linejoin="round"/>
<path d="M7.92969 6.17004V4.54004" stroke="#7EAEDF" stroke-linecap="round" stroke-linejoin="round"/>
<path d="M16.0195 6.17004V4.54004" stroke="#7EAEDF" stroke-linecap="round" stroke-linejoin="round"/>
<path d="M11.8477 12.1798V11.2998" stroke="#7EAEDF" stroke-linecap="round" stroke-linejoin="round"/>
<path d="M14.4191 5.41992H9.53906" stroke="#7EAEDF" stroke-linecap="round" stroke-linejoin="round"/>
<path d="M17.9878 8.75H6.00781" stroke="#7EAEDF" stroke-linecap="round" stroke-linejoin="round"/>
<path d="M15.2188 12.1798V11.2998" stroke="#7EAEDF" stroke-linecap="round" stroke-linejoin="round"/>
<path d="M8.47656 15.7101V14.8301" stroke="#7EAEDF" stroke-linecap="round" stroke-linejoin="round"/>
<path d="M11.8477 15.7101V14.8301" stroke="#7EAEDF" stroke-linecap="round" stroke-linejoin="round"/>
<path d="M15.2188 15.7101V14.8301" stroke="#7EAEDF" stroke-linecap="round" stroke-linejoin="round"/>
</g>
<defs>
<clipPath id="clip0_4023_26183">
<rect width="24" height="24" fill="white"/>
</clipPath>
</defs>
</svg>
