<svg width="24" height="24" viewBox="0 0 24 24" fill="none" xmlns="http://www.w3.org/2000/svg">
<g clip-path="url(#clip0_4433_7402)">
<path d="M4.89062 19.1504H19.1106" stroke="#DEDEDE" stroke-linecap="round" stroke-linejoin="round"/>
<path d="M7.20031 16.8803L5.32031 17.3403L5.78031 15.4603L14.4403 6.80029L15.8603 8.22029L7.20031 16.8803Z" stroke="#DEDEDE" stroke-linejoin="round"/>
<path d="M16.9002 4.97396L17.678 5.75178C17.8548 5.92855 17.8548 6.2114 17.678 6.38817L16.9356 7.13064L15.5214 5.71642L16.2638 4.97396C16.4406 4.79718 16.7235 4.79718 16.9002 4.97396Z" stroke="#DEDEDE" stroke-linejoin="round"/>
<path d="M16.9002 4.97396L17.678 5.75178C17.8548 5.92855 17.8548 6.2114 17.678 6.38817L16.9356 7.13064L15.5214 5.71642L16.2638 4.97396C16.4406 4.79718 16.7235 4.79718 16.9002 4.97396Z" stroke="#DEDEDE" stroke-linejoin="round"/>
</g>
<defs>
<clipPath id="clip0_4433_7402">
<rect width="24" height="24" fill="white"/>
</clipPath>
</defs>
</svg>
