<svg width="20" height="20" viewBox="0 0 20 20" fill="none" xmlns="http://www.w3.org/2000/svg">
<path d="M17.8298 8.29406L10.2456 3.07546C10.0993 2.97485 9.90066 2.97485 9.75447 3.07546L2.17017 8.29406C1.98492 8.42155 1.94467 8.66601 2.08033 8.8401C2.21599 9.01419 2.47614 9.05196 2.66136 8.92453L10 3.87489L17.3386 8.9245C17.4126 8.97546 17.4986 8.99998 17.5839 8.99998C17.7119 8.99998 17.8382 8.94462 17.9196 8.84007C18.0553 8.66601 18.0151 8.42155 17.8298 8.29406Z" fill="white"/>
<path d="M15.6 9C15.3791 9 15.2 9.18933 15.2 9.42289V16.1542H12.0001V12.4798C12.0001 11.3138 11.1028 10.3652 10 10.3652C8.89717 10.3652 7.99989 11.3139 7.99989 12.4798V16.1542H4.79998V9.42292C4.79998 9.18937 4.62087 9.00003 4.39999 9.00003C4.17911 9.00003 4 9.18937 4 9.42292V16.5771C4 16.8107 4.17911 17 4.39999 17H8.39988C8.61024 17 8.78237 16.8282 8.79831 16.61C8.79927 16.6002 8.79987 16.5894 8.79987 16.5771V12.4798C8.79987 11.7802 9.33824 11.211 10 11.211C10.6618 11.211 11.2001 11.7802 11.2001 12.4798V16.5771C11.2001 16.5893 11.2007 16.5999 11.2017 16.6097C11.2174 16.828 11.3896 17 11.6001 17H15.6C15.8209 17 16 16.8107 16 16.5771V9.42292C16 9.18933 15.8209 9 15.6 9Z" fill="white"/>
</svg>
