<svg width="24" height="24" viewBox="0 0 24 24" fill="none" xmlns="http://www.w3.org/2000/svg">
<g clip-path="url(#clip0_4079_9848)">
<path d="M5.8177 16.1873L4.625 20.0255L8.6924 18.1352" stroke="#DEDEDE" stroke-linecap="round" stroke-linejoin="round"/>
<path d="M5.77064 16.1374C4.60294 14.8606 3.89844 13.2062 3.89844 11.3989C3.89844 7.35702 7.42214 4.08032 11.7687 4.08032C16.1153 4.08032 19.639 7.35692 19.639 11.3989C19.639 15.4409 16.1153 18.7175 11.7687 18.7175C10.6944 18.7175 9.67034 18.5173 8.73734 18.1549" stroke="#DEDEDE" stroke-miterlimit="10"/>
<path d="M9.72656 9.43089C9.72656 9.43089 9.71726 7.62109 11.5341 7.62109C13.3509 7.62109 13.7631 8.62029 13.6838 9.60509C13.6232 10.3573 13.0574 10.6887 12.2188 11.5062C11.3244 12.3866 11.548 13.4907 11.548 13.4907" stroke="#DEDEDE" stroke-linecap="round" stroke-linejoin="round"/>
<path d="M11.6035 15.584C11.3271 15.584 11.0664 15.3418 11.0664 15.0654C11.0664 14.789 11.3271 14.5464 11.6035 14.5464C11.8799 14.5464 12.1411 14.7891 12.1411 15.0654C12.1411 15.3417 11.8799 15.584 11.6035 15.584Z" fill="white"/>
</g>
<defs>
<clipPath id="clip0_4079_9848">
<rect width="24" height="24" fill="white"/>
</clipPath>
</defs>
</svg>
