<svg width="24" height="24" viewBox="0 0 24 24" fill="none" xmlns="http://www.w3.org/2000/svg">
<g clip-path="url(#clip0_4079_9770)">
<path d="M16.633 10.4424H7.36549C6.74511 10.4424 6.24219 10.9453 6.24219 11.5657V18.386C6.24219 19.0064 6.74511 19.5093 7.36549 19.5093H16.633C17.2534 19.5093 17.7563 19.0064 17.7563 18.386V11.5657C17.7563 10.9453 17.2534 10.4424 16.633 10.4424Z" stroke="#DEDEDE" stroke-miterlimit="10"/>
<path d="M11.9288 4.04346C14.3257 4.04346 16.2717 5.98946 16.2717 8.38636V10.4224H7.58594V8.38636C7.58594 5.98946 9.53194 4.04346 11.9288 4.04346Z" stroke="#DEDEDE" stroke-miterlimit="10"/>
<path d="M12.019 14.9759C12.5397 14.9759 12.9618 14.5538 12.9618 14.0331C12.9618 13.5124 12.5397 13.0903 12.019 13.0903C11.4983 13.0903 11.0762 13.5124 11.0762 14.0331C11.0762 14.5538 11.4983 14.9759 12.019 14.9759Z" stroke="white" stroke-miterlimit="10"/>
<path d="M12.0195 16.8014V15.1365" stroke="white" stroke-miterlimit="10" stroke-linecap="round"/>
</g>
<defs>
<clipPath id="clip0_4079_9770">
<rect width="24" height="24" fill="white"/>
</clipPath>
</defs>
</svg>
