<svg width="32" height="32" viewBox="0 0 32 32" fill="none" xmlns="http://www.w3.org/2000/svg">
<g clip-path="url(#clip0_256_49160)">
<path d="M19.2883 8.45508H12.9945C12.7128 8.45508 12.4844 8.68346 12.4844 8.96518V12.0773C12.4844 12.359 12.7128 12.5874 12.9945 12.5874H19.2883C19.57 12.5874 19.7984 12.359 19.7984 12.0773V8.96518C19.7984 8.68346 19.57 8.45508 19.2883 8.45508Z" stroke="white" stroke-miterlimit="10"/>
<path d="M11.4361 21.3417H9.7481C9.5075 21.3417 9.3125 21.1467 9.3125 20.9061V13.0098C9.3125 12.7692 9.5075 12.5742 9.7481 12.5742H22.5396C22.7802 12.5742 22.9752 12.7692 22.9752 13.0098V20.9061C22.9752 21.1467 22.7802 21.3417 22.5396 21.3417H20.9112" stroke="white" stroke-miterlimit="10"/>
<path d="M18.4688 14.5488H20.7215" stroke="white" stroke-miterlimit="10" stroke-linecap="round"/>
<path d="M20.3249 17.6455H11.9632C11.6815 17.6455 11.4531 17.8739 11.4531 18.1556V23.9448C11.4531 24.2265 11.6815 24.4549 11.9632 24.4549H20.3249C20.6066 24.4549 20.835 24.2265 20.835 23.9448V18.1556C20.835 17.8739 20.6066 17.6455 20.3249 17.6455Z" stroke="white" stroke-linecap="round" stroke-linejoin="round"/>
<path d="M13.6875 20.1338H18.6051" stroke="white" stroke-linecap="round" stroke-linejoin="round"/>
<path d="M13.6875 22.1455H18.6051" stroke="white" stroke-linecap="round" stroke-linejoin="round"/>
</g>
<defs>
<clipPath id="clip0_256_49160">
<rect width="24" height="24" fill="white" transform="translate(4 4)"/>
</clipPath>
</defs>
</svg>
