<svg width="24" height="24" viewBox="0 0 24 24" fill="none" xmlns="http://www.w3.org/2000/svg">
<g clip-path="url(#clip0_256_49161)">
<path d="M15.2883 4.45508H8.99447C8.71275 4.45508 8.48438 4.68346 8.48438 4.96518V8.07728C8.48438 8.359 8.71275 8.58738 8.99447 8.58738H15.2883C15.57 8.58738 15.7984 8.359 15.7984 8.07728V4.96518C15.7984 4.68346 15.57 4.45508 15.2883 4.45508Z" stroke="white" stroke-miterlimit="10"/>
<path d="M7.4361 17.3417H5.7481C5.5075 17.3417 5.3125 17.1467 5.3125 16.9061V9.00982C5.3125 8.76922 5.5075 8.57422 5.7481 8.57422H18.5396C18.7802 8.57422 18.9752 8.76922 18.9752 9.00982V16.9061C18.9752 17.1467 18.7802 17.3417 18.5396 17.3417H16.9112" stroke="white" stroke-miterlimit="10"/>
<path d="M14.4688 10.5488H16.7215" stroke="white" stroke-miterlimit="10" stroke-linecap="round"/>
<path d="M16.3249 13.6455H7.96322C7.6815 13.6455 7.45312 13.8739 7.45312 14.1556V19.9448C7.45312 20.2265 7.6815 20.4549 7.96322 20.4549H16.3249C16.6066 20.4549 16.835 20.2265 16.835 19.9448V14.1556C16.835 13.8739 16.6066 13.6455 16.3249 13.6455Z" stroke="white" stroke-linecap="round" stroke-linejoin="round"/>
<path d="M9.6875 16.1338H14.6051" stroke="white" stroke-linecap="round" stroke-linejoin="round"/>
<path d="M9.6875 18.1455H14.6051" stroke="white" stroke-linecap="round" stroke-linejoin="round"/>
</g>
<defs>
<clipPath id="clip0_256_49161">
<rect width="24" height="24" fill="white"/>
</clipPath>
</defs>
</svg>
