<svg width="24" height="24" viewBox="0 0 24 24" fill="none" xmlns="http://www.w3.org/2000/svg">
<g clip-path="url(#clip0_4079_9732)">
<path d="M11.9998 11.43C13.7892 11.43 15.2398 9.97935 15.2398 8.18995C15.2398 6.40055 13.7892 4.94995 11.9998 4.94995C10.2104 4.94995 8.75977 6.40055 8.75977 8.18995C8.75977 9.97935 10.2104 11.43 11.9998 11.43Z" stroke="#DEDEDE" stroke-linejoin="round"/>
<path d="M5.35938 19.0401C5.35938 15.8801 8.31937 13.3201 11.9794 13.3201C15.6394 13.3201 18.5994 15.8801 18.5994 19.0401" stroke="#DEDEDE" stroke-linecap="round" stroke-linejoin="round"/>
<path d="M18.1887 12.88C19.3209 12.88 20.2387 11.9622 20.2387 10.83C20.2387 9.69785 19.3209 8.78003 18.1887 8.78003C17.0565 8.78003 16.1387 9.69785 16.1387 10.83C16.1387 11.9622 17.0565 12.88 18.1887 12.88Z" stroke="#DEDEDE" stroke-linejoin="round"/>
<path d="M18.1895 14.3599C20.3295 14.3599 22.0595 15.8599 22.0595 17.7099" stroke="#DEDEDE" stroke-linecap="round" stroke-linejoin="round"/>
<path d="M5.80977 12.88C6.94195 12.88 7.85977 11.9622 7.85977 10.83C7.85977 9.69785 6.94195 8.78003 5.80977 8.78003C4.67758 8.78003 3.75977 9.69785 3.75977 10.83C3.75977 11.9622 4.67758 12.88 5.80977 12.88Z" stroke="#DEDEDE" stroke-linejoin="round"/>
<path d="M1.93945 17.7099C1.93945 15.8599 3.66945 14.3599 5.80945 14.3599" stroke="#DEDEDE" stroke-linecap="round" stroke-linejoin="round"/>
</g>
<defs>
<clipPath id="clip0_4079_9732">
<rect width="24" height="24" fill="white"/>
</clipPath>
</defs>
</svg>
