<svg width="20" height="27" viewBox="0 0 20 27" fill="none" xmlns="http://www.w3.org/2000/svg">
<circle cx="10" cy="13" r="10" fill="#305B86"/>
<path d="M8.58398 16.123C8.60156 13.8203 9.28711 13.1172 10.4473 12.3965C11.1855 11.9395 11.748 11.3066 11.748 10.375C11.748 9.26758 10.9043 8.58203 9.84961 8.58203C8.90039 8.58203 7.98633 9.16211 7.89844 10.4629H6C6.07031 8.23047 7.75781 7 9.84961 7C12.1348 7 13.6641 8.37109 13.6641 10.375C13.6641 11.7812 12.9961 12.7305 11.8711 13.416C10.8164 14.0488 10.4121 14.6992 10.377 16.123V16.2285H8.58398V16.123ZM9.55078 20.0254C8.86523 20.0254 8.28516 19.4629 8.30273 18.7773C8.28516 18.0918 8.86523 17.5293 9.55078 17.5293C10.2188 17.5293 10.7988 18.0918 10.7988 18.7773C10.7988 19.4629 10.2188 20.0254 9.55078 20.0254Z" fill="white"/>
</svg>
