<svg width="24" height="24" viewBox="0 0 24 24" fill="none" xmlns="http://www.w3.org/2000/svg">
<g clip-path="url(#clip0_5511_60592)">
<path d="M17.0752 5.10938V18.451C17.0053 19.7624 16.5114 20.0558 15.6637 20.0558C15.6637 20.0558 14.6156 20.0418 14.7693 17.9735" stroke="#F6F6F6" stroke-linecap="round" stroke-linejoin="round"/>
<path d="M6.4043 17.6241V5.4725C6.4043 4.6248 7.0915 3.9375 7.9393 3.9375H18.0535" stroke="#F6F6F6" stroke-linecap="round" stroke-linejoin="round"/>
<path d="M15.6645 20.0572H6.49594C5.58134 20.0572 4.83984 19.3158 4.83984 18.4011V17.9609H14.6442" stroke="#F6F6F6" stroke-linecap="round" stroke-linejoin="round"/>
<path d="M17.0762 4.9786C17.0762 4.4036 17.5423 3.9375 18.1173 3.9375C18.6923 3.9375 19.1584 4.4036 19.1584 4.9786" stroke="#F6F6F6" stroke-linecap="round" stroke-linejoin="round"/>
<path d="M19.1463 4.82031V6.19021H17.3418" stroke="#F6F6F6" stroke-linecap="round" stroke-linejoin="round"/>
<path d="M9.7168 6.19531H13.7416" stroke="#F6F6F6" stroke-linecap="round" stroke-linejoin="round"/>
<path d="M8.79297 7.95312H14.3518" stroke="#F6F6F6" stroke-linecap="round" stroke-linejoin="round"/>
<path d="M8.79297 9.71094H14.3518" stroke="#F6F6F6" stroke-linecap="round" stroke-linejoin="round"/>
<path d="M8.79297 11.4766H14.3518" stroke="#F6F6F6" stroke-linecap="round" stroke-linejoin="round"/>
<path d="M8.79297 13.2344H14.3518" stroke="#F6F6F6" stroke-linecap="round" stroke-linejoin="round"/>
<path d="M13.0371 15.4184L13.8127 16.1939L15.4129 14.5938" stroke="#F6F6F6" stroke-linecap="round" stroke-linejoin="round"/>
</g>
<defs>
<clipPath id="clip0_5511_60592">
<rect width="24" height="24" fill="white"/>
</clipPath>
</defs>
</svg>
