<svg width="81" height="58" viewBox="0 0 81 58" fill="none" xmlns="http://www.w3.org/2000/svg">
<g clip-path="url(#clip0_5021_88145)">
<path d="M63.2906 58H45.9121V40.7189H51.6553C53.1118 40.7189 53.9724 39.0901 53.1118 37.9174L41.9399 22.7049C41.2282 21.7276 39.7552 21.7276 39.0435 22.7049L27.8717 37.9174C27.011 39.0901 27.8551 40.7189 29.3282 40.7189H35.0713V58H15.6075C6.91827 57.5277 0 49.5305 0 40.8655C0 34.888 3.29363 29.6759 8.17613 26.8582C7.72926 25.6692 7.49755 24.3988 7.49755 23.0632C7.49755 16.9554 12.5125 12.0202 18.719 12.0202C20.0597 12.0202 21.3506 12.2482 22.5588 12.688C26.1504 5.19573 33.8962 0 42.8999 0C54.5517 0.0162876 64.1512 8.79528 65.2436 19.9848C74.1976 21.4996 81 29.6596 81 38.8947C81 48.765 73.188 57.3159 63.2906 58Z" fill="#7EAEDF"/>
</g>
<defs>
<clipPath id="clip0_5021_88145">
<rect width="81" height="58" fill="white"/>
</clipPath>
</defs>
</svg>
