<svg width="24" height="24" viewBox="0 0 24 24" fill="none" xmlns="http://www.w3.org/2000/svg">
<g clip-path="url(#clip0_5511_60619)">
<mask id="path-1-inside-1_5511_60619" fill="white">
<path d="M6.60938 11.1484H7.19088V15.164H9.11568V15.6523H6.60938V11.1484Z"/>
</mask>
<path d="M6.60938 11.1484H7.19088V15.164H9.11568V15.6523H6.60938V11.1484Z" fill="#F6F6F6"/>
<path d="M6.60938 11.1484V10.1484H5.60938V11.1484H6.60938ZM7.19088 11.1484H8.19088V10.1484H7.19088V11.1484ZM7.19088 15.164H6.19088V16.164H7.19088V15.164ZM9.11568 15.164H10.1157V14.164H9.11568V15.164ZM9.11568 15.6523V16.6523H10.1157V15.6523H9.11568ZM6.60938 15.6523H5.60938V16.6523H6.60938V15.6523ZM6.60938 11.1484V12.1484H7.19088V11.1484V10.1484H6.60938V11.1484ZM7.19088 11.1484H6.19088V15.164H7.19088H8.19088V11.1484H7.19088ZM7.19088 15.164V16.164H9.11568V15.164V14.164H7.19088V15.164ZM9.11568 15.164H8.11568V15.6523H9.11568H10.1157V15.164H9.11568ZM9.11568 15.6523V14.6523H6.60938V15.6523V16.6523H9.11568V15.6523ZM6.60938 15.6523H7.60938V11.1484H6.60938H5.60938V15.6523H6.60938Z" fill="#F6F6F6" mask="url(#path-1-inside-1_5511_60619)"/>
<mask id="path-3-inside-2_5511_60619" fill="white">
<path d="M13.3555 13.3574C13.3555 14.9072 12.4126 15.7295 11.2632 15.7295C10.0737 15.7295 9.23828 14.8076 9.23828 13.4443C9.23828 12.0136 10.127 11.0781 11.3301 11.0781C12.5596 11.0781 13.3555 12.0205 13.3555 13.3574ZM9.85988 13.4307C9.85988 14.3936 10.3809 15.2549 11.2964 15.2549C12.2188 15.2549 12.7398 14.4063 12.7398 13.3838C12.7398 12.4883 12.2725 11.5527 11.3033 11.5527C10.3409 11.5527 9.85988 12.4415 9.85988 13.4307Z"/>
</mask>
<path d="M13.3555 13.3574C13.3555 14.9072 12.4126 15.7295 11.2632 15.7295C10.0737 15.7295 9.23828 14.8076 9.23828 13.4443C9.23828 12.0136 10.127 11.0781 11.3301 11.0781C12.5596 11.0781 13.3555 12.0205 13.3555 13.3574ZM9.85988 13.4307C9.85988 14.3936 10.3809 15.2549 11.2964 15.2549C12.2188 15.2549 12.7398 14.4063 12.7398 13.3838C12.7398 12.4883 12.2725 11.5527 11.3033 11.5527C10.3409 11.5527 9.85988 12.4415 9.85988 13.4307Z" fill="#F6F6F6"/>
<path d="M13.3555 13.3574H12.3555C12.3555 13.9267 12.1861 14.2562 12.0154 14.4358C11.8448 14.6154 11.5943 14.7295 11.2632 14.7295V15.7295V16.7295C12.0815 16.7295 12.8771 16.4325 13.4653 15.8135C14.0534 15.1945 14.3555 14.3379 14.3555 13.3574H13.3555ZM11.2632 15.7295V14.7295C10.9419 14.7295 10.7112 14.6122 10.551 14.4326C10.3832 14.2445 10.2383 13.9233 10.2383 13.4443H9.23828H8.23828C8.23828 14.3287 8.51102 15.1501 9.05836 15.7638C9.61322 16.3859 10.395 16.7295 11.2632 16.7295V15.7295ZM9.23828 13.4443H10.2383C10.2383 12.936 10.3939 12.5957 10.5753 12.3948C10.7513 12.1999 11.0009 12.0781 11.3301 12.0781V11.0781V10.0781C10.4562 10.0781 9.65988 10.4241 9.09073 11.0546C8.52699 11.6791 8.23828 12.5219 8.23828 13.4443H9.23828ZM11.3301 11.0781V12.0781C11.6716 12.0781 11.8984 12.2004 12.0515 12.3752C12.2155 12.5625 12.3555 12.8833 12.3555 13.3574H13.3555H14.3555C14.3555 12.4946 14.0975 11.6758 13.5562 11.0576C13.0039 10.427 12.218 10.0781 11.3301 10.0781V11.0781ZM9.85988 13.4307H8.85988C8.85988 14.0788 9.03316 14.753 9.42671 15.293C9.83779 15.8569 10.4837 16.2549 11.2964 16.2549V15.2549V14.2549C11.1935 14.2549 11.1212 14.2223 11.0429 14.1149C10.9471 13.9834 10.8599 13.7455 10.8599 13.4307H9.85988ZM11.2964 15.2549V16.2549C12.1061 16.2549 12.7577 15.8656 13.1746 15.2883C13.5717 14.7386 13.7398 14.0509 13.7398 13.3838H12.7398H11.7398C11.7398 13.7393 11.6473 13.9871 11.5533 14.1173C11.4791 14.22 11.4091 14.2549 11.2964 14.2549V15.2549ZM12.7398 13.3838H13.7398C13.7398 12.7808 13.5856 12.1132 13.2088 11.5656C12.8106 10.9869 12.1609 10.5527 11.3033 10.5527V11.5527V12.5527C11.3783 12.5527 11.4191 12.5691 11.4449 12.5837C11.4745 12.6004 11.5157 12.6332 11.5612 12.6993C11.6603 12.8434 11.7398 13.0914 11.7398 13.3838H12.7398ZM11.3033 11.5527V10.5527C10.4661 10.5527 9.81027 10.9595 9.39973 11.5498C9.01286 12.106 8.85988 12.7912 8.85988 13.4307H9.85988H10.8599C10.8599 13.0811 10.9474 12.8272 11.0416 12.6918C11.0848 12.6297 11.1235 12.5998 11.152 12.5842C11.1778 12.5701 11.2219 12.5527 11.3033 12.5527V11.5527Z" fill="#F6F6F6" mask="url(#path-3-inside-2_5511_60619)"/>
<mask id="path-5-inside-3_5511_60619" fill="white">
<path d="M17.542 15.4599C17.2813 15.5537 16.7666 15.707 16.1582 15.707C15.4766 15.707 14.915 15.5332 14.4746 15.1123C14.0869 14.7383 13.8457 14.1367 13.8457 13.4346C13.8525 12.0918 14.7754 11.1094 16.2852 11.1094C16.8067 11.1094 17.2149 11.2227 17.4082 11.3164L17.2676 11.791C17.0274 11.6836 16.7266 11.5967 16.2725 11.5967C15.1758 11.5967 14.461 12.2783 14.461 13.4082C14.461 14.5508 15.1495 15.2256 16.1983 15.2256C16.5792 15.2256 16.8399 15.1719 16.9737 15.1055V13.7617H16.0587V13.2939H17.5421L17.542 15.4599Z"/>
</mask>
<path d="M17.542 15.4599C17.2813 15.5537 16.7666 15.707 16.1582 15.707C15.4766 15.707 14.915 15.5332 14.4746 15.1123C14.0869 14.7383 13.8457 14.1367 13.8457 13.4346C13.8525 12.0918 14.7754 11.1094 16.2852 11.1094C16.8067 11.1094 17.2149 11.2227 17.4082 11.3164L17.2676 11.791C17.0274 11.6836 16.7266 11.5967 16.2725 11.5967C15.1758 11.5967 14.461 12.2783 14.461 13.4082C14.461 14.5508 15.1495 15.2256 16.1983 15.2256C16.5792 15.2256 16.8399 15.1719 16.9737 15.1055V13.7617H16.0587V13.2939H17.5421L17.542 15.4599Z" fill="#F6F6F6"/>
<path d="M17.542 15.4599L17.8806 16.4008L18.542 16.1628V15.4599H17.542ZM14.4746 15.1123L13.7803 15.832L13.7837 15.8352L14.4746 15.1123ZM13.8457 13.4346L12.8457 13.4295V13.4346H13.8457ZM17.4082 11.3164L18.367 11.6004L18.6081 10.7867L17.8444 10.4165L17.4082 11.3164ZM17.2676 11.791L16.8594 12.7039L17.902 13.17L18.2264 12.075L17.2676 11.791ZM16.9737 15.1055L17.4182 16.0012L17.9737 15.7256V15.1055H16.9737ZM16.9737 13.7617H17.9737V12.7617H16.9737V13.7617ZM16.0587 13.7617H15.0587V14.7617H16.0587V13.7617ZM16.0587 13.2939V12.2939H15.0587V13.2939H16.0587ZM17.5421 13.2939L18.5421 13.2939L18.5422 12.2939H17.5421V13.2939ZM17.542 15.4599L17.2034 14.5189C17.0021 14.5914 16.6084 14.707 16.1582 14.707V15.707V16.707C16.9248 16.707 17.5606 16.516 17.8806 16.4008L17.542 15.4599ZM16.1582 15.707V14.707C15.6551 14.707 15.3697 14.5845 15.1655 14.3893L14.4746 15.1123L13.7837 15.8352C14.4603 16.4818 15.2981 16.707 16.1582 16.707V15.707ZM14.4746 15.1123L15.1689 14.3926C15.0135 14.2426 14.8457 13.9212 14.8457 13.4346H13.8457H12.8457C12.8457 14.3522 13.1603 15.2339 13.7803 15.832L14.4746 15.1123ZM13.8457 13.4346L14.8457 13.4396C14.8479 13.0007 14.9955 12.6855 15.2031 12.4813C15.4096 12.2782 15.7526 12.1094 16.2852 12.1094V11.1094V10.1094C15.308 10.1094 14.4347 10.4318 13.8006 11.0555C13.1675 11.6782 12.8503 12.5257 12.8457 13.4295L13.8457 13.4346ZM16.2852 11.1094V12.1094C16.4746 12.1094 16.6384 12.1301 16.765 12.1566C16.8281 12.1698 16.8791 12.1838 16.9169 12.196C16.9563 12.2088 16.9737 12.217 16.972 12.2162L17.4082 11.3164L17.8444 10.4165C17.4922 10.2458 16.93 10.1094 16.2852 10.1094V11.1094ZM17.4082 11.3164L16.4494 11.0323L16.3088 11.5069L17.2676 11.791L18.2264 12.075L18.367 11.6004L17.4082 11.3164ZM17.2676 11.791L17.6758 10.8781C17.3115 10.7152 16.8719 10.5967 16.2725 10.5967V11.5967V12.5967C16.5813 12.5967 16.7433 12.652 16.8594 12.7039L17.2676 11.791ZM16.2725 11.5967V10.5967C15.5157 10.5967 14.7915 10.8356 14.2531 11.3669C13.7125 11.9004 13.461 12.6282 13.461 13.4082H14.461H15.461C15.461 13.0582 15.5669 12.8803 15.6579 12.7905C15.751 12.6986 15.9326 12.5967 16.2725 12.5967V11.5967ZM14.461 13.4082H13.461C13.461 14.181 13.6974 14.9062 14.2198 15.4428C14.7442 15.9817 15.4553 16.2256 16.1983 16.2256V15.2256V14.2256C15.8925 14.2256 15.7349 14.1321 15.6529 14.0479C15.5688 13.9614 15.461 13.778 15.461 13.4082H14.461ZM16.1983 15.2256V16.2256C16.6337 16.2256 17.0784 16.1699 17.4182 16.0012L16.9737 15.1055L16.5292 14.2097C16.5605 14.1942 16.5766 14.1902 16.5693 14.1924C16.5636 14.194 16.5456 14.1988 16.5132 14.2042C16.4478 14.2152 16.3437 14.2256 16.1983 14.2256V15.2256ZM16.9737 15.1055H17.9737V13.7617H16.9737H15.9737V15.1055H16.9737ZM16.9737 13.7617V12.7617H16.0587V13.7617V14.7617H16.9737V13.7617ZM16.0587 13.7617H17.0587V13.2939H16.0587H15.0587V13.7617H16.0587ZM16.0587 13.2939V14.2939H17.5421V13.2939V12.2939H16.0587V13.2939ZM17.5421 13.2939L16.5421 13.2938L16.542 15.4598L17.542 15.4599L18.542 15.4599L18.5421 13.2939L17.5421 13.2939Z" fill="#F6F6F6" mask="url(#path-5-inside-3_5511_60619)"/>
<path d="M19.1277 7.95516V19.085C19.1277 20.5373 17.9504 21.7146 16.4981 21.7146H7.50265C6.05035 21.7146 4.87305 20.5373 4.87305 19.085V4.91866C4.87305 3.46636 6.05035 2.28906 7.50265 2.28906H13.4616C14.159 2.28906 14.8278 2.56606 15.321 3.05926L18.3575 6.09576C18.8506 6.58886 19.1277 7.25776 19.1277 7.95516Z" stroke="#F6F6F6" stroke-miterlimit="10"/>
<path d="M19.0846 6.82286H15.7984C15.1094 6.82286 14.5508 6.26426 14.5508 5.57526V2.28906" stroke="#F6F6F6" stroke-miterlimit="10"/>
</g>
<defs>
<clipPath id="clip0_5511_60619">
<rect width="24" height="24" fill="white"/>
</clipPath>
</defs>
</svg>
